<svg width="108" height="33" viewBox="0 0 108 33" fill="none" xmlns="http://www.w3.org/2000/svg">
<g clip-path="url(#clip0_107_10329)">
<path d="M104.027 32.3276H3.77845C1.69547 32.3276 0 30.6252 0 28.5412V4.10844C0 2.02364 1.69547 0.327637 3.77845 0.327637H104.027C106.109 0.327637 107.864 2.02364 107.864 4.10844V28.5412C107.864 30.6252 106.109 32.3276 104.027 32.3276Z" fill="#A6A6A6"/>
<path d="M107.091 28.542C107.091 30.2348 105.721 31.606 104.027 31.606H3.77828C2.08521 31.606 0.710938 30.2348 0.710938 28.542V4.10755C0.710938 2.41555 2.08521 1.03955 3.77828 1.03955H104.027C105.721 1.03955 107.09 2.41555 107.09 4.10755L107.091 28.542Z" fill="black"/>
<path d="M24.0722 16.1551C24.049 13.5767 26.1807 12.3223 26.2782 12.2639C25.0709 10.5015 23.1996 10.2607 22.5421 10.2415C20.9705 10.0759 19.446 11.1831 18.6454 11.1831C17.8288 11.1831 16.596 10.2575 15.2672 10.2847C13.5574 10.3111 11.9578 11.3023 11.0805 12.8415C9.26998 15.9799 10.6203 20.5919 12.3549 23.1287C13.2226 24.3711 14.2365 25.7583 15.5637 25.7095C16.862 25.6559 17.347 24.8807 18.9138 24.8807C20.4663 24.8807 20.9217 25.7095 22.2752 25.6783C23.6687 25.6559 24.546 24.4303 25.3833 23.1767C26.386 21.7527 26.7887 20.3503 26.8047 20.2783C26.772 20.2671 24.0985 19.2455 24.0722 16.1551Z" fill="white"/>
<path d="M21.5153 8.57247C22.2137 7.69807 22.6915 6.50847 22.5588 5.30127C21.5481 5.34607 20.2841 6.00127 19.5562 6.85647C18.9122 7.61007 18.3369 8.84527 18.4856 10.0069C19.6209 10.0917 20.7867 9.43327 21.5153 8.57247Z" fill="white"/>
<path d="M42.862 25.5307H41.0474L40.0535 22.4035H36.5986L35.6518 25.5307H33.8853L37.3081 14.8843H39.4223L42.862 25.5307ZM39.7539 21.0915L38.855 18.3115C38.7599 18.0275 38.5817 17.3587 38.3189 16.3059H38.2869C38.1822 16.7587 38.0137 17.4275 37.7819 18.3115L36.8991 21.0915H39.7539Z" fill="white"/>
<path d="M51.6643 21.5979C51.6643 22.9035 51.3119 23.9355 50.6072 24.6931C49.976 25.3675 49.1922 25.7043 48.2566 25.7043C47.2466 25.7043 46.5211 25.3411 46.0793 24.6147H46.0473V28.6587H44.3439V20.3811C44.3439 19.5603 44.3223 18.7179 44.2808 17.8539H45.7789L45.874 19.0707H45.9059C46.474 18.1539 47.3361 17.6963 48.4931 17.6963C49.3975 17.6963 50.1526 18.0539 50.7566 18.7699C51.3623 19.4867 51.6643 20.4291 51.6643 21.5979ZM49.9289 21.6603C49.9289 20.9131 49.7611 20.2971 49.4239 19.8123C49.0556 19.3067 48.561 19.0539 47.941 19.0539C47.5207 19.0539 47.1388 19.1947 46.7976 19.4723C46.4556 19.7523 46.2319 20.1179 46.1272 20.5707C46.0745 20.7819 46.0481 20.9547 46.0481 21.0907V22.3707C46.0481 22.9291 46.2191 23.4003 46.5611 23.7851C46.9031 24.1699 47.3473 24.3619 47.8938 24.3619C48.5354 24.3619 49.0348 24.1139 49.3919 23.6195C49.7499 23.1243 49.9289 22.4715 49.9289 21.6603Z" fill="white"/>
<path d="M60.4828 21.5979C60.4828 22.9035 60.1305 23.9355 59.4249 24.6931C58.7945 25.3675 58.0107 25.7043 57.0751 25.7043C56.0652 25.7043 55.3397 25.3411 54.8986 24.6147H54.8667V28.6587H53.1632V20.3811C53.1632 19.5603 53.1416 18.7179 53.1001 17.8539H54.5982L54.6933 19.0707H54.7252C55.2925 18.1539 56.1547 17.6963 57.3124 17.6963C58.2161 17.6963 58.9711 18.0539 59.5767 18.7699C60.18 19.4867 60.4828 20.4291 60.4828 21.5979ZM58.7474 21.6603C58.7474 20.9131 58.5788 20.2971 58.2416 19.8123C57.8733 19.3067 57.3803 19.0539 56.7595 19.0539C56.3384 19.0539 55.9573 19.1947 55.6153 19.4723C55.2734 19.7523 55.0504 20.1179 54.9458 20.5707C54.8938 20.7819 54.8667 20.9547 54.8667 21.0907V22.3707C54.8667 22.9291 55.0377 23.4003 55.378 23.7851C55.72 24.1691 56.1642 24.3619 56.7124 24.3619C57.3539 24.3619 57.8533 24.1139 58.2105 23.6195C58.5684 23.1243 58.7474 22.4715 58.7474 21.6603Z" fill="white"/>
<path d="M70.3426 22.5453C70.3426 23.4509 70.0286 24.1877 69.3982 24.7565C68.7055 25.3781 67.7411 25.6885 66.5018 25.6885C65.3577 25.6885 64.4404 25.4677 63.7461 25.0253L64.1408 23.6037C64.8887 24.0565 65.7092 24.2837 66.6033 24.2837C67.2449 24.2837 67.7443 24.1381 68.103 23.8485C68.4602 23.5589 68.6383 23.1701 68.6383 22.6853C68.6383 22.2533 68.4913 21.8893 68.1965 21.5941C67.9033 21.2989 67.4135 21.0245 66.7295 20.7709C64.8679 20.0757 63.9379 19.0573 63.9379 17.7181C63.9379 16.8429 64.2638 16.1253 64.9166 15.5669C65.567 15.0077 66.4347 14.7285 67.5197 14.7285C68.4873 14.7285 69.2911 14.8973 69.9327 15.2341L69.5068 16.6245C68.9076 16.2981 68.2301 16.1349 67.4718 16.1349C66.8726 16.1349 66.4044 16.2829 66.0688 16.5773C65.7851 16.8405 65.6429 17.1613 65.6429 17.5413C65.6429 17.9621 65.8051 18.3101 66.1311 18.5837C66.4147 18.8365 66.9301 19.1101 67.678 19.4053C68.5928 19.7741 69.2648 20.2053 69.697 20.6997C70.1277 21.1925 70.3426 21.8093 70.3426 22.5453Z" fill="white"/>
<path d="M75.9745 19.1342H74.0969V22.8614C74.0969 23.8094 74.4276 24.283 75.0908 24.283C75.3952 24.283 75.6477 24.2566 75.8475 24.2038L75.8946 25.499C75.559 25.6246 75.1172 25.6878 74.5699 25.6878C73.8971 25.6878 73.3714 25.4822 72.9919 25.0718C72.6139 24.6606 72.4238 23.971 72.4238 23.0022V19.1326H71.3052V17.8526H72.4238V16.447L74.0969 15.9414V17.8526H75.9745V19.1342Z" fill="white"/>
<path d="M84.4463 21.6293C84.4463 22.8093 84.1091 23.7781 83.4363 24.5357C82.7308 25.3157 81.7944 25.7045 80.6271 25.7045C79.5021 25.7045 78.6064 25.3309 77.9385 24.5837C77.2705 23.8365 76.9365 22.8933 76.9365 21.7565C76.9365 20.5669 77.2801 19.5925 77.9696 18.8349C78.6576 18.0765 79.586 17.6973 80.7533 17.6973C81.8783 17.6973 82.7836 18.0709 83.4667 18.8189C84.1203 19.5445 84.4463 20.4813 84.4463 21.6293ZM82.6789 21.6845C82.6789 20.9765 82.5279 20.3693 82.2219 19.8629C81.8647 19.2501 81.3542 18.9445 80.6926 18.9445C80.0079 18.9445 79.4877 19.2509 79.1306 19.8629C78.8245 20.3701 78.6735 20.9869 78.6735 21.7165C78.6735 22.4245 78.8245 23.0317 79.1306 23.5373C79.4989 24.1501 80.0135 24.4557 80.6774 24.4557C81.3278 24.4557 81.8384 24.1437 82.2067 23.5213C82.5207 23.0053 82.6789 22.3917 82.6789 21.6845Z" fill="white"/>
<path d="M89.9834 19.3539C89.8148 19.3227 89.635 19.3067 89.4465 19.3067C88.8472 19.3067 88.3838 19.5331 88.0578 19.9867C87.7742 20.3867 87.6319 20.8923 87.6319 21.5027V25.5307H85.9293L85.9453 20.2715C85.9453 19.3867 85.9237 18.5811 85.8813 17.8547H87.3651L87.4274 19.3235H87.4745C87.6543 18.8187 87.938 18.4123 88.3263 18.1075C88.7058 17.8331 89.1157 17.6963 89.5575 17.6963C89.7149 17.6963 89.8571 17.7075 89.9834 17.7275V19.3539Z" fill="white"/>
<path d="M97.6019 21.3293C97.6019 21.6349 97.5819 21.8925 97.5396 22.1029H92.4292C92.4492 22.8613 92.6961 23.4413 93.1707 23.8413C93.6013 24.1989 94.1582 24.3781 94.8422 24.3781C95.5988 24.3781 96.2892 24.2573 96.91 24.0149L97.1768 25.1989C96.4514 25.5157 95.5948 25.6733 94.6065 25.6733C93.4176 25.6733 92.4844 25.3229 91.8052 24.6229C91.1277 23.9229 90.7881 22.9829 90.7881 21.8037C90.7881 20.6461 91.1037 19.6821 91.7357 18.9133C92.3973 18.0925 93.2913 17.6821 94.4163 17.6821C95.5213 17.6821 96.3579 18.0925 96.926 18.9133C97.3758 19.5653 97.6019 20.3717 97.6019 21.3293ZM95.9776 20.8869C95.9887 20.3813 95.8777 19.9445 95.6468 19.5757C95.3519 19.1013 94.8989 18.8645 94.2893 18.8645C93.7324 18.8645 93.2794 19.0957 92.9334 19.5597C92.6497 19.9285 92.4812 20.3709 92.4292 20.8861H95.9776V20.8869Z" fill="white"/>
<path d="M39.1908 8.3346C39.1908 9.2762 38.9087 9.985 38.3454 10.461C37.8237 10.9002 37.0822 11.1202 36.1218 11.1202C35.6456 11.1202 35.2381 11.0994 34.897 11.0578V5.913C35.342 5.841 35.8214 5.8042 36.3392 5.8042C37.254 5.8042 37.9435 6.0034 38.4086 6.4018C38.9295 6.8522 39.1908 7.4962 39.1908 8.3346ZM38.3079 8.3578C38.3079 7.7474 38.1465 7.2794 37.8237 6.953C37.5009 6.6274 37.0295 6.4642 36.4087 6.4642C36.145 6.4642 35.9205 6.4818 35.7343 6.5186V10.4298C35.8374 10.4458 36.026 10.453 36.3 10.453C36.9408 10.453 37.4354 10.2746 37.7837 9.9178C38.1321 9.561 38.3079 9.041 38.3079 8.3578Z" fill="white"/>
<path d="M43.8721 9.15727C43.8721 9.73727 43.7067 10.2125 43.3759 10.5853C43.0291 10.9685 42.5697 11.1597 41.996 11.1597C41.4431 11.1597 41.0029 10.9765 40.6745 10.6085C40.3469 10.2413 40.1831 9.77807 40.1831 9.21967C40.1831 8.63567 40.3517 8.15647 40.6905 7.78447C41.0292 7.41247 41.4847 7.22607 42.0583 7.22607C42.6113 7.22607 43.0555 7.40927 43.3919 7.77647C43.7115 8.13327 43.8721 8.59407 43.8721 9.15727ZM43.0036 9.18447C43.0036 8.83647 42.9285 8.53807 42.779 8.28927C42.6033 7.98847 42.3532 7.83807 42.028 7.83807C41.6916 7.83807 41.4359 7.98847 41.2601 8.28927C41.1099 8.53807 41.0356 8.84127 41.0356 9.19967C41.0356 9.54767 41.1107 9.84607 41.2601 10.0949C41.4415 10.3957 41.694 10.5461 42.02 10.5461C42.3396 10.5461 42.5905 10.3933 42.771 10.0869C42.9261 9.83327 43.0036 9.53247 43.0036 9.18447Z" fill="white"/>
<path d="M50.149 7.30273L48.9705 11.0739H48.2035L47.7153 9.43633C47.5914 9.02753 47.4908 8.62113 47.4125 8.21793H47.3973C47.3246 8.63233 47.2239 9.03793 47.0945 9.43633L46.5759 11.0739H45.8001L44.6919 7.30273H45.5524L45.9783 9.09553C46.0813 9.51953 46.166 9.92353 46.234 10.3059H46.2491C46.3115 9.99073 46.4145 9.58913 46.5599 9.10353L47.0945 7.30353H47.7768L48.289 9.06513C48.4128 9.49473 48.5135 9.90833 48.591 10.3067H48.6142C48.6709 9.91873 48.7564 9.50513 48.8698 9.06513L49.3269 7.30353H50.149V7.30273Z" fill="white"/>
<path d="M54.4899 11.074H53.6526V8.91403C53.6526 8.24843 53.4001 7.91563 52.8935 7.91563C52.645 7.91563 52.4445 8.00683 52.2887 8.19003C52.1345 8.37323 52.0562 8.58923 52.0562 8.83643V11.0732H51.2188V8.38043C51.2188 8.04923 51.2085 7.69003 51.1885 7.30123H51.9243L51.9635 7.89083H51.9867C52.0841 7.70763 52.2296 7.55643 52.4205 7.43563C52.6474 7.29483 52.9015 7.22363 53.1796 7.22363C53.5311 7.22363 53.8236 7.33723 54.0561 7.56523C54.3453 7.84443 54.4899 8.26123 54.4899 8.81483V11.074Z" fill="white"/>
<path d="M56.7989 11.0739H55.9624V5.57227H56.7989V11.0739Z" fill="white"/>
<path d="M61.729 9.15727C61.729 9.73727 61.5636 10.2125 61.2328 10.5853C60.8861 10.9685 60.4258 11.1597 59.853 11.1597C59.2993 11.1597 58.859 10.9765 58.5314 10.6085C58.2038 10.2413 58.04 9.77807 58.04 9.21967C58.04 8.63567 58.2086 8.15647 58.5474 7.78447C58.8862 7.41247 59.3416 7.22607 59.9145 7.22607C60.4682 7.22607 60.9116 7.40927 61.2488 7.77647C61.5684 8.13327 61.729 8.59407 61.729 9.15727ZM60.8597 9.18447C60.8597 8.83647 60.7846 8.53807 60.6352 8.28927C60.4602 7.98847 60.2093 7.83807 59.8849 7.83807C59.5477 7.83807 59.2921 7.98847 59.1171 8.28927C58.9669 8.53807 58.8926 8.84127 58.8926 9.19967C58.8926 9.54767 58.9677 9.84607 59.1171 10.0949C59.2985 10.3957 59.5509 10.5461 59.8769 10.5461C60.1965 10.5461 60.4466 10.3933 60.6272 10.0869C60.783 9.83327 60.8597 9.53247 60.8597 9.18447Z" fill="white"/>
<path d="M65.7811 11.0741H65.0292L64.9669 10.6397H64.9437C64.6865 10.9861 64.3197 11.1597 63.8435 11.1597C63.488 11.1597 63.2003 11.0453 62.9838 10.8181C62.7872 10.6117 62.689 10.3549 62.689 10.0501C62.689 9.58927 62.8807 9.23807 63.2666 8.99487C63.6518 8.75167 64.1935 8.63247 64.891 8.63807V8.56767C64.891 8.07087 64.6305 7.82287 64.1088 7.82287C63.7372 7.82287 63.4097 7.91647 63.1268 8.10207L62.9566 7.55167C63.3066 7.33487 63.7388 7.22607 64.2486 7.22607C65.233 7.22607 65.7267 7.74607 65.7267 8.78607V10.1749C65.7267 10.5517 65.7451 10.8517 65.7811 11.0741ZM64.9118 9.77807V9.19647C63.9881 9.18047 63.5263 9.43407 63.5263 9.95647C63.5263 10.1533 63.579 10.3005 63.6869 10.3989C63.7948 10.4973 63.9322 10.5461 64.096 10.5461C64.2798 10.5461 64.4515 10.4877 64.6082 10.3717C64.7656 10.2549 64.8622 10.1069 64.8982 9.92527C64.907 9.88447 64.9118 9.83487 64.9118 9.77807Z" fill="white"/>
<path d="M70.5393 11.0739H69.7963L69.7571 10.4683H69.7339C69.4966 10.9291 69.0923 11.1595 68.5243 11.1595C68.0704 11.1595 67.6925 10.9811 67.3929 10.6243C67.0933 10.2675 66.9438 9.80427 66.9438 9.23547C66.9438 8.62507 67.106 8.13067 67.432 7.75307C67.7476 7.40107 68.1343 7.22507 68.5946 7.22507C69.1003 7.22507 69.4543 7.39547 69.6556 7.73707H69.6716V5.57227H70.5098V10.0579C70.5098 10.4251 70.5193 10.7635 70.5393 11.0739ZM69.6716 9.48347V8.85467C69.6716 8.74587 69.6636 8.65787 69.6484 8.59067C69.6013 8.38907 69.4998 8.21947 69.3456 8.08267C69.1898 7.94587 69.0021 7.87707 68.7855 7.87707C68.4731 7.87707 68.2286 8.00107 68.0489 8.24987C67.8707 8.49867 67.7804 8.81627 67.7804 9.20427C67.7804 9.57707 67.8659 9.87947 68.0377 10.1123C68.219 10.3603 68.4635 10.4843 68.7695 10.4843C69.0444 10.4843 69.2641 10.3811 69.4311 10.1739C69.5925 9.98267 69.6716 9.75227 69.6716 9.48347Z" fill="white"/>
<path d="M77.7007 9.15727C77.7007 9.73727 77.5353 10.2125 77.2045 10.5853C76.8577 10.9685 76.3991 11.1597 75.8246 11.1597C75.2725 11.1597 74.8323 10.9765 74.5031 10.6085C74.1755 10.2413 74.0117 9.77807 74.0117 9.21967C74.0117 8.63567 74.1803 8.15647 74.5191 7.78447C74.8579 7.41247 75.3133 7.22607 75.8878 7.22607C76.4399 7.22607 76.8849 7.40927 77.2205 7.77647C77.5401 8.13327 77.7007 8.59407 77.7007 9.15727ZM76.833 9.18447C76.833 8.83647 76.7579 8.53807 76.6085 8.28927C76.4319 7.98847 76.1826 7.83807 75.8566 7.83807C75.521 7.83807 75.2653 7.98847 75.0888 8.28927C74.9386 8.53807 74.8642 8.84127 74.8642 9.19967C74.8642 9.54767 74.9394 9.84607 75.0888 10.0949C75.2701 10.3957 75.5226 10.5461 75.8486 10.5461C76.1682 10.5461 76.4199 10.3933 76.6005 10.0869C76.7547 9.83327 76.833 9.53247 76.833 9.18447Z" fill="white"/>
<path d="M82.203 11.074H81.3664V8.91403C81.3664 8.24843 81.114 7.91563 80.6066 7.91563C80.3581 7.91563 80.1576 8.00683 80.0026 8.19003C79.8476 8.37323 79.7701 8.58923 79.7701 8.83643V11.0732H78.9319V8.38043C78.9319 8.04923 78.9223 7.69003 78.9023 7.30123H79.6374L79.6766 7.89083H79.6997C79.798 7.70763 79.9434 7.55643 80.1336 7.43563C80.3613 7.29483 80.6146 7.22363 80.8934 7.22363C81.2442 7.22363 81.5366 7.33723 81.7691 7.56523C82.0592 7.84443 82.203 8.26123 82.203 8.81483V11.074Z" fill="white"/>
<path d="M87.8383 7.93048H86.9163V9.76248C86.9163 10.2281 87.0801 10.4609 87.4045 10.4609C87.5547 10.4609 87.6793 10.4481 87.7776 10.4217L87.7992 11.0577C87.6338 11.1201 87.4165 11.1513 87.1488 11.1513C86.818 11.1513 86.5607 11.0505 86.3746 10.8489C86.1876 10.6473 86.0949 10.3081 86.0949 9.83208V7.93048H85.5444V7.30248H86.0949V6.61128L86.9155 6.36328V7.30168H87.8375V7.93048H87.8383Z" fill="white"/>
<path d="M92.2711 11.0739H91.4329V8.92987C91.4329 8.25387 91.1805 7.91547 90.6747 7.91547C90.2864 7.91547 90.0211 8.11147 89.8757 8.50347C89.8509 8.58587 89.8365 8.68667 89.8365 8.80507V11.0731H89V5.57227H89.8365V7.84507H89.8525C90.1162 7.43147 90.4941 7.22507 90.9839 7.22507C91.3307 7.22507 91.6175 7.33867 91.8452 7.56667C92.1289 7.85067 92.2711 8.27307 92.2711 8.83147V11.0739Z" fill="white"/>
<path d="M96.8437 9.00995C96.8437 9.16035 96.8325 9.28675 96.8125 9.38995H94.3013C94.3125 9.76275 94.4323 10.0467 94.6648 10.2435C94.8774 10.4195 95.1514 10.5075 95.487 10.5075C95.8585 10.5075 96.1973 10.4483 96.5025 10.3291L96.6336 10.9115C96.2764 11.0667 95.8561 11.1443 95.3696 11.1443C94.7863 11.1443 94.3269 10.9723 93.9945 10.6283C93.6605 10.2843 93.4951 9.82275 93.4951 9.24355C93.4951 8.67475 93.6493 8.20115 93.9601 7.82355C94.2845 7.42035 94.7232 7.21875 95.2769 7.21875C95.8186 7.21875 96.2301 7.42035 96.5081 7.82355C96.7326 8.14355 96.8437 8.53955 96.8437 9.00995ZM96.0447 8.79315C96.0511 8.54435 95.996 8.32995 95.8825 8.14915C95.7371 7.91635 95.5158 7.79955 95.2162 7.79955C94.9429 7.79955 94.72 7.91315 94.5498 8.14115C94.4108 8.32275 94.3285 8.53955 94.3013 8.79315H96.0447Z" fill="white"/>
</g>
<defs>
<clipPath id="clip0_107_10329">
<rect width="107.864" height="32" fill="white" transform="translate(0 0.327637)"/>
</clipPath>
</defs>
</svg>
