<svg width="15" height="10" viewBox="0 0 15 10" fill="none" xmlns="http://www.w3.org/2000/svg">
<path d="M8.75 9.21875L14.325 2.5C14.6412 2.11875 15 1.82625 15 1.25C15 0.468752 14.355 1.69932e-06 13.75 1.50418e-06L10 2.94687e-07C10 2.94687e-07 9.4375 -1.79409e-06 8.75 -2.01583e-06L6.25 9.9254e-07C5.5625 7.708e-07 5 1.15562e-06 5 1.15562e-06L1.25 -2.52747e-06C0.644999 -2.7226e-06 -1.03377e-06 0.468747 -1.06792e-06 1.25C-1.09311e-06 1.82625 0.358749 2.11875 0.675 2.5L6.25 9.21875C6.64 9.6975 6.94375 10 7.5 10C8.05625 10 8.35875 9.6975 8.75 9.21875Z" fill="white"/>
</svg>
