<svg width="110" height="33" viewBox="0 0 110 33" fill="none" xmlns="http://www.w3.org/2000/svg">
<g clip-path="url(#clip0_107_10361)">
<path fill-rule="evenodd" clip-rule="evenodd" d="M105.16 32.3276H4.87716C2.66548 32.3276 0.864258 30.5241 0.864258 28.3276V4.32764C0.864258 2.12315 2.66548 0.327637 4.87716 0.327637H105.16C107.37 0.327637 109.173 2.12315 109.173 4.32764V28.3276C109.173 30.5241 107.37 32.3276 105.16 32.3276Z" fill="black"/>
<path fill-rule="evenodd" clip-rule="evenodd" d="M105.16 0.968036C107.015 0.968036 108.533 2.47826 108.533 4.32764V28.3276C108.533 30.177 107.025 31.6872 105.16 31.6872H4.87716C3.02214 31.6872 1.50385 30.177 1.50385 28.3276V4.32764C1.50385 2.47826 3.01218 0.968036 4.87716 0.968036H105.16ZM105.16 0.327637H4.87716C2.66548 0.327637 0.864258 2.13113 0.864258 4.32764V28.3276C0.864258 30.5321 2.66548 32.3276 4.87716 32.3276H105.16C107.37 32.3276 109.173 30.5321 109.173 28.3276V4.32764C109.173 2.13113 107.37 0.327637 105.16 0.327637Z" fill="#A6A6A6"/>
<path d="M57.9215 10.9133C57.1983 10.9133 56.5886 10.6599 56.1064 10.1612C55.6282 9.67639 55.3612 9.00806 55.3731 8.32577C55.3731 7.59759 55.6202 6.98113 56.1064 6.49235C56.5866 5.9936 57.1963 5.74023 57.9195 5.74023C58.6349 5.74023 59.2446 5.9936 59.7347 6.49235C60.2209 6.99709 60.468 7.61355 60.468 8.32577C60.46 9.05595 60.2129 9.6724 59.7347 10.1592C59.2545 10.6619 58.6448 10.9133 57.9215 10.9133ZM36.4005 10.9133C35.6931 10.9133 35.0795 10.6639 34.5773 10.1712C34.0792 9.68038 33.8262 9.05994 33.8262 8.32777C33.8262 7.5956 34.0792 6.97515 34.5773 6.48437C35.0695 5.99161 35.6832 5.74223 36.4005 5.74223C36.7512 5.74223 37.0919 5.81206 37.4187 5.9537C37.7395 6.09136 38.0005 6.27889 38.1937 6.50831L38.2416 6.56617L37.7016 7.09684L37.6458 7.03101C37.341 6.66792 36.9325 6.49036 36.3925 6.49036C35.9103 6.49036 35.4899 6.66193 35.1432 7.00108C34.7945 7.34223 34.6172 7.78911 34.6172 8.32976C34.6172 8.87041 34.7945 9.31729 35.1432 9.65844C35.4899 9.99759 35.9103 10.1692 36.3925 10.1692C36.9066 10.1692 37.339 9.99759 37.6757 9.65844C37.8749 9.45894 37.9985 9.17964 38.0423 8.82652H36.3108V8.08038H38.7855L38.7955 8.14821C38.8134 8.2739 38.8313 8.40358 38.8313 8.52328C38.8313 9.21156 38.6241 9.76816 38.2137 10.1791C37.7474 10.6659 37.1377 10.9133 36.4005 10.9133ZM65.0149 10.8076H64.2517L61.9145 7.06293L61.9344 7.73724V10.8056H61.1713V5.84797H62.042L62.066 5.88587L64.2637 9.41305L64.2438 8.74073V5.84797H65.0149V10.8076ZM52.1871 10.8076H51.414V6.5941H50.0731V5.84797H53.5261V6.5941H52.1851V10.8076H52.1871ZM49.4434 10.8076H48.6723V5.84797H49.4434V10.8076ZM45.1097 10.8076H44.3386V6.5941H42.9977V5.84797H46.4507V6.5941H45.1097V10.8076ZM42.5095 10.7996H39.5526V5.84797H42.5095V6.5941H40.3257V7.9547H42.2963V8.69285H40.3257V10.0535H42.5095V10.7996ZM56.6722 9.64846C57.0169 9.9936 57.4354 10.1672 57.9215 10.1672C58.4217 10.1672 58.8301 9.99759 59.1708 9.64846C59.5096 9.30931 59.6809 8.86442 59.6809 8.32777C59.6809 7.79111 59.5096 7.34422 59.1728 7.00707C58.8281 6.66193 58.4077 6.48836 57.9235 6.48836C57.4234 6.48836 57.0149 6.65794 56.6762 7.00707C56.3375 7.34622 56.1661 7.79111 56.1661 8.32777C56.1661 8.86442 56.3355 9.31131 56.6722 9.64846Z" fill="white"/>
<path fill-rule="evenodd" clip-rule="evenodd" d="M55.3015 17.7322C53.4185 17.7322 51.8923 19.1626 51.8923 21.1357C51.8923 23.0908 53.4285 24.5391 55.3015 24.5391C57.1844 24.5391 58.7106 23.0988 58.7106 21.1357C58.7106 19.1626 57.1844 17.7322 55.3015 17.7322ZM55.3015 23.1905C54.2713 23.1905 53.3847 22.3367 53.3847 21.1277C53.3847 19.9007 54.2733 19.0648 55.3015 19.0648C56.3316 19.0648 57.2182 19.9007 57.2182 21.1277C57.2202 22.3446 56.3316 23.1905 55.3015 23.1905ZM47.8634 17.7322C45.9805 17.7322 44.4543 19.1626 44.4543 21.1357C44.4543 23.0908 45.9905 24.5391 47.8634 24.5391C49.7464 24.5391 51.2726 23.0988 51.2726 21.1357C51.2726 19.1626 49.7444 17.7322 47.8634 17.7322ZM47.8634 23.1905C46.8333 23.1905 45.9466 22.3367 45.9466 21.1277C45.9466 19.9007 46.8353 19.0648 47.8634 19.0648C48.8936 19.0648 49.7802 19.9007 49.7802 21.1277C49.7802 22.3446 48.8936 23.1905 47.8634 23.1905ZM39.0127 18.7716V20.212H42.4657C42.3601 21.0199 42.0931 21.6165 41.6847 22.0254C41.1786 22.5322 40.3975 23.0828 39.0207 23.0828C36.8987 23.0828 35.2389 21.3671 35.2389 19.2424C35.2389 17.1177 36.8987 15.402 39.0207 15.402C40.1664 15.402 41.0012 15.8549 41.6209 16.4334L42.6411 15.412C41.7803 14.586 40.6346 13.9536 39.0287 13.9536C36.1176 13.9536 33.6748 16.3277 33.6748 19.2344C33.6748 22.1491 36.1156 24.5152 39.0287 24.5152C40.6008 24.5152 41.7803 24.0005 42.7128 23.0309C43.6632 22.0793 43.9641 20.7367 43.9641 19.6534C43.9641 19.3162 43.9382 19.013 43.8844 18.7556H39.0107C39.0127 18.7536 39.0127 18.7716 39.0127 18.7716ZM75.2146 19.8928C74.9296 19.1287 74.0689 17.7242 72.3035 17.7242C70.5541 17.7242 69.0996 19.1027 69.0996 21.1277C69.0996 23.0389 70.5381 24.5312 72.4729 24.5312C74.027 24.5312 74.9316 23.5795 75.3042 23.0209L74.1506 22.2469C73.768 22.8155 73.236 23.1885 72.4808 23.1885C71.7177 23.1885 71.1837 22.8414 70.829 22.1571L75.374 20.2718C75.374 20.2738 75.2146 19.8928 75.2146 19.8928ZM70.58 21.0299C70.5441 19.7152 71.6002 19.0469 72.3553 19.0469C72.9511 19.0469 73.4472 19.3401 73.6166 19.7671L70.58 21.0299ZM66.8879 24.3277H68.3803V14.3287H66.8879V24.3277ZM64.4371 18.4883H64.3833C64.0466 18.0873 63.407 17.7242 62.59 17.7242C60.8944 17.7242 59.3323 19.2185 59.3323 21.1377C59.3323 23.0489 60.8864 24.5252 62.59 24.5252C63.397 24.5252 64.0466 24.1601 64.3833 23.7511H64.4371V24.2399C64.4371 25.5387 63.7437 26.2389 62.6259 26.2389C61.7113 26.2389 61.1435 25.5805 60.9124 25.0299L59.6152 25.5726C59.9878 26.4703 60.9821 27.5815 62.6239 27.5815C64.3733 27.5815 65.8558 26.5501 65.8558 24.0344V17.9277H64.4451V18.4883C64.4471 18.4883 64.4371 18.4883 64.4371 18.4883ZM62.7235 23.1905C61.6934 23.1905 60.8327 22.3287 60.8327 21.1377C60.8327 19.9367 61.6934 19.0668 62.7235 19.0668C63.7437 19.0668 64.5347 19.9466 64.5347 21.1377C64.5447 22.3287 63.7457 23.1905 62.7235 23.1905ZM82.2023 14.3287H78.6337V24.3277H80.1261V20.5411H82.2043C83.8561 20.5411 85.4799 19.3421 85.4799 17.4389C85.4799 15.5357 83.862 14.3287 82.2023 14.3287ZM82.2461 19.1446H80.1241V15.7132H82.2461C83.3639 15.7132 83.9955 16.6369 83.9955 17.4289C83.9955 18.213 83.3559 19.1446 82.2461 19.1446ZM91.4614 17.7142C90.3775 17.7142 89.2597 18.195 88.7975 19.2424L90.1205 19.793C90.4054 19.2424 90.9274 19.0549 91.4794 19.0549C92.2525 19.0549 93.0335 19.5177 93.0515 20.3436V20.4494C92.7845 20.2978 92.1987 20.0663 91.4973 20.0663C90.0687 20.0663 88.6201 20.8484 88.6201 22.3147C88.6201 23.6574 89.7917 24.5192 91.0968 24.5192C92.099 24.5192 92.651 24.0663 92.9957 23.5416H93.0495V24.3157H94.4881V20.4853C94.4881 18.7017 93.165 17.7142 91.4614 17.7142ZM91.2741 23.1905C90.786 23.1905 90.1026 22.9511 90.1026 22.3367C90.1026 21.5626 90.9553 21.2693 91.6826 21.2693C92.3401 21.2693 92.651 21.411 93.0415 21.6065C92.9339 22.5042 92.1768 23.1825 91.2741 23.1905ZM99.7363 17.9277L98.0228 22.2648H97.969L96.1936 17.9277H94.5877L97.2517 23.9905L95.7334 27.3601H97.2875L101.386 17.9277H99.7363ZM86.3028 24.3277H87.7952V14.3287H86.3028V24.3277Z" fill="white"/>
<path fill-rule="evenodd" clip-rule="evenodd" d="M9.20105 6.35465C8.96992 6.60402 8.83643 6.98507 8.83643 7.48382V25.1736C8.83643 25.6723 8.96992 26.0534 9.20902 26.2928L9.27079 26.3467L19.1696 16.4354V16.214L9.26282 6.30078L9.20105 6.35465Z" fill="url(#paint0_linear_107_10361)"/>
<path fill-rule="evenodd" clip-rule="evenodd" d="M22.4632 19.7491L19.1616 16.4434V16.212L22.4632 12.9062L22.5349 12.9501L26.4402 15.1726C27.558 15.803 27.558 16.8444 26.4402 17.4828L22.5349 19.7053L22.4632 19.7491Z" fill="url(#paint1_linear_107_10361)"/>
<path fill-rule="evenodd" clip-rule="evenodd" d="M22.5345 19.7052L19.1612 16.3276L9.20068 26.3007C9.56531 26.6917 10.177 26.7356 10.8604 26.3546L22.5345 19.7052Z" fill="url(#paint2_linear_107_10361)"/>
<path fill-rule="evenodd" clip-rule="evenodd" d="M22.5345 12.9501L10.8604 6.31069C10.177 5.91967 9.56332 5.97353 9.20068 6.36456L19.1612 16.3276L22.5345 12.9501Z" fill="url(#paint3_linear_107_10361)"/>
<path opacity="0.2" fill-rule="evenodd" clip-rule="evenodd" d="M22.4631 19.6333L10.8687 26.2288C10.2212 26.6019 9.64335 26.5759 9.27075 26.2368L9.20898 26.2986L9.27075 26.3525C9.64335 26.6897 10.2212 26.7176 10.8687 26.3445L22.5428 19.7051L22.4631 19.6333Z" fill="black"/>
<path opacity="0.12" fill-rule="evenodd" clip-rule="evenodd" d="M26.4401 17.367L22.4531 19.6334L22.5249 19.7052L26.4302 17.4827C26.9901 17.1635 27.265 16.7446 27.265 16.3276C27.2312 16.7107 26.9462 17.0738 26.4401 17.367Z" fill="black"/>
<path opacity="0.25" fill-rule="evenodd" clip-rule="evenodd" d="M10.8608 6.42647L26.4402 15.2883C26.9463 15.5736 27.2312 15.9467 27.2751 16.3277C27.2751 15.9108 27.0001 15.4918 26.4402 15.1726L10.8608 6.31076C9.74302 5.67036 8.83643 6.20502 8.83643 7.48382V7.59953C8.83643 6.31874 9.74302 5.79405 10.8608 6.42647Z" fill="white"/>
</g>
<defs>
<linearGradient id="paint0_linear_107_10361" x1="18.2817" y1="7.29297" x2="2.4229" y2="11.5132" gradientUnits="userSpaceOnUse">
<stop stop-color="#00A0FF"/>
<stop offset="0.00657" stop-color="#00A1FF"/>
<stop offset="0.2601" stop-color="#00BEFF"/>
<stop offset="0.5122" stop-color="#00D2FF"/>
<stop offset="0.7604" stop-color="#00DFFF"/>
<stop offset="1" stop-color="#00E3FF"/>
</linearGradient>
<linearGradient id="paint1_linear_107_10361" x1="27.898" y1="16.3277" x2="8.56478" y2="16.3277" gradientUnits="userSpaceOnUse">
<stop stop-color="#FFE000"/>
<stop offset="0.4087" stop-color="#FFBD00"/>
<stop offset="0.7754" stop-color="#FFA500"/>
<stop offset="1" stop-color="#FF9C00"/>
</linearGradient>
<linearGradient id="paint2_linear_107_10361" x1="20.7003" y1="18.1655" x2="7.94737" y2="39.6027" gradientUnits="userSpaceOnUse">
<stop stop-color="#FF3A44"/>
<stop offset="1" stop-color="#C31162"/>
</linearGradient>
<linearGradient id="paint3_linear_107_10361" x1="6.69251" y1="0.470681" x2="12.3821" y2="10.0449" gradientUnits="userSpaceOnUse">
<stop stop-color="#32A071"/>
<stop offset="0.0685" stop-color="#2DA771"/>
<stop offset="0.4762" stop-color="#15CF74"/>
<stop offset="0.8009" stop-color="#06E775"/>
<stop offset="1" stop-color="#00F076"/>
</linearGradient>
<clipPath id="clip0_107_10361">
<rect width="108.309" height="32" fill="white" transform="translate(0.864258 0.327637)"/>
</clipPath>
</defs>
</svg>
