<svg width="17" height="9" viewBox="0 0 17 9" fill="none" xmlns="http://www.w3.org/2000/svg">
<path opacity="0.5" fill-rule="evenodd" clip-rule="evenodd" d="M12.2046 0.959229C11.3139 0.959229 10.3414 1.4332 9.31178 2.37297C8.82483 2.81123 8.40237 3.28172 8.09241 3.66439C8.08776 3.66548 8.08679 3.66982 8.08659 3.67157C8.08648 3.67171 8.08637 3.67185 8.08626 3.67198C6.97491 2.38091 5.47957 0.959229 3.9924 0.959229C2.2617 0.966989 0.78898 2.11721 0.295233 3.70288C0.234555 3.83328 0.207976 3.92593 0.200962 3.95048C0.135586 4.24467 0.0947266 4.54703 0.0947266 4.86574C0.102898 7.0313 1.84352 8.79644 3.98457 8.79644C4.87531 8.79644 5.84777 8.32247 6.87743 7.38269C7.36775 6.94141 7.79269 6.46744 8.10322 6.08336C8.10322 6.08336 7.60473 5.51949 7.05721 4.91477C6.76302 5.2825 6.32991 5.78099 5.8396 6.23045C4.92434 7.06399 4.32779 7.2356 3.98457 7.2356C2.70157 7.2356 1.65557 6.18142 1.65557 4.87391C1.65557 3.58274 2.6934 2.52856 3.98457 2.51222C4.02012 2.51222 4.06514 2.51538 4.11375 2.52169C4.91991 2.84082 5.59566 3.38543 5.77388 3.5579C6.37632 4.13802 6.9449 4.78583 7.04841 4.90376C7.05863 4.9154 7.06432 4.92188 7.06505 4.92262C7.61257 5.52734 8.11106 6.0912 8.11106 6.0912L8.11923 6.08303C9.23878 7.36602 10.7342 8.79611 12.2215 8.79611C14.0061 8.78811 15.5164 7.55756 15.962 5.88726C15.9766 5.84583 15.9848 5.81727 15.9883 5.80519C16.0536 5.511 16.0945 5.20863 16.0945 4.88993C16.0781 2.71619 14.3457 0.959229 12.2046 0.959229ZM12.1363 7.24042C12.1614 7.24244 12.1846 7.24345 12.2046 7.24345C13.4958 7.2271 14.5336 6.17292 14.5336 4.88176C14.5336 3.57425 13.4876 2.52007 12.2046 2.52007C11.8614 2.52007 11.2649 2.69168 10.3496 3.52522C9.86349 3.97083 9.43359 4.46465 9.13957 4.83145C9.13995 4.83187 9.14034 4.8323 9.14072 4.83272C9.14072 4.83272 9.76179 5.55185 10.4237 6.18927C10.606 6.36569 11.3089 6.92723 12.1363 7.24042Z" fill="white"/>
</svg>
