<?xml version="1.0" encoding="utf-8"?>
<!-- Generator: Adobe Illustrator 24.0.1, SVG Export Plug-In . SVG Version: 6.00 Build 0)  -->
<svg version="1.1" id="Layer_1" xmlns="http://www.w3.org/2000/svg" xmlns:xlink="http://www.w3.org/1999/xlink" x="0px" y="0px"
	 viewBox="0 0 2047.6 1712.4" style="enable-background:new 0 0 2047.6 1712.4;" xml:space="preserve">
<style type="text/css">
	.st0{fill:url(#SVGID_1_);}
	.st1{opacity:0.1;fill:#FFFFFF;}
	.st2{opacity:0.2;fill:#FFFFFF;}
	.st3{display:none;}
	.st4{display:inline;}
	.st5{fill:#11132C;}
	.st6{fill:#EEEEEE;}
	.st7{fill:#C7C6C6;}
	.st8{fill:#F8C520;}
	.st9{fill:#DEAC26;}
	.st10{fill:url(#SVGID_2_);}
	.st11{fill:url(#SVGID_3_);}
	.st12{fill:#11132D;}
	.st13{fill:url(#SVGID_4_);}
	.st14{fill:url(#SVGID_5_);}
	.st15{fill:#050606;}
	.st16{fill:url(#SVGID_6_);}
	.st17{fill:#707284;}
	.st18{fill:url(#SVGID_7_);}
	.st19{fill:url(#SVGID_8_);}
	.st20{fill:url(#SVGID_9_);}
	.st21{fill:url(#SVGID_10_);}
	.st22{fill:url(#SVGID_11_);}
	.st23{fill:url(#SVGID_12_);}
	.st24{fill:url(#SVGID_13_);}
	.st25{fill:url(#SVGID_14_);}
	.st26{fill:url(#SVGID_15_);}
	.st27{fill:url(#SVGID_16_);}
	.st28{fill:url(#SVGID_17_);}
	.st29{opacity:0.2;fill:#061833;}
	.st30{opacity:0.4;fill:#FFFFFF;}
	.st31{opacity:0.5;fill:#FFFFFF;}
	.st32{opacity:0.2;fill:#FFFEFF;}
	.st33{fill:#2B2422;}
	.st34{fill:url(#SVGID_18_);}
	.st35{fill:url(#SVGID_19_);}
	.st36{fill:url(#SVGID_20_);}
	.st37{fill:url(#SVGID_21_);}
	.st38{fill:url(#SVGID_22_);}
	.st39{fill:url(#SVGID_23_);}
	.st40{fill:url(#SVGID_24_);}
	.st41{fill:url(#SVGID_25_);}
	.st42{fill:url(#SVGID_26_);}
	.st43{fill:url(#SVGID_27_);}
	.st44{fill:url(#SVGID_28_);}
	.st45{fill:url(#SVGID_29_);}
	.st46{fill:url(#SVGID_30_);}
	.st47{fill:url(#SVGID_31_);}
	.st48{fill:url(#SVGID_32_);}
	.st49{fill:url(#SVGID_33_);}
	.st50{fill:url(#SVGID_34_);}
	.st51{fill:url(#SVGID_35_);}
	.st52{fill:url(#SVGID_36_);}
	.st53{fill:url(#SVGID_37_);}
	.st54{fill:url(#SVGID_38_);}
	.st55{fill:url(#SVGID_39_);}
	.st56{fill:url(#SVGID_40_);}
	.st57{fill:url(#SVGID_41_);}
	.st58{fill:url(#SVGID_42_);}
	.st59{fill:url(#SVGID_43_);}
	.st60{fill:url(#SVGID_44_);}
	.st61{fill:url(#SVGID_45_);}
	.st62{opacity:0.8;fill:#FFFFFF;}
	.st63{fill:url(#SVGID_46_);}
	.st64{fill:#FFFFFF;}
</style>
<g>
	<g>
		<g>
			<g>
				<path d="M1197,645.2c-39,0-72.4-12.8-96.8-36.1c-35.8,28.1-80.3,32.4-126.4,12.4c-26.5,16.6-58.1,21.5-91.7,13.8
					c-14.7,4.9-30.7,7.4-47.8,7.4c-49.6,0-77.9-20.7-93-38.1c-24.9-28.7-33.7-70-26.1-123c4.6-32.2,18.2-57.6,30.1-80
					c33.1-62,18.3-80.3-14.3-120.4c-13.7-16.9-14.9-40.7-2.9-58.8c12-18.1,34.4-26.3,55.2-20.4c32.8,9.4,63,24.6,89.4,44.4
					c-2-16.6-7-37.7-16.8-65c-7.7-21.4,0.1-45.3,19-58c18.8-12.7,43.9-11,60.9,4.1c28.5,25.4,53.2,54.7,73.3,86.5
					c-1.2-17.3-4.9-38.9-12.1-66.3c-5.8-22.2,4.4-45.6,24.6-56.4c20.2-10.9,45.3-6.4,60.6,10.8c35.4,39.7,63.7,85.4,83.1,133.3
					c25.6-17.8,54.3-31.5,85-40.3c20.9-5.9,43.3,2.4,55.2,20.5c11.9,18.2,10.7,42-3.1,58.8c-49.7,60.6-38.1,82.1-15,124.9
					c12.4,22.9,26.4,48.9,31.2,81.8l0,0c7.7,53.8-1.1,95.9-26.4,125.1C1276.9,624,1247.9,645.2,1197,645.2z M1108.3,471.4
					c2.5,0,5.1,0.2,7.6,0.6c20,3.1,36.2,18.1,40.8,37.8c0.7,3.1,1.3,5.7,2,8.3c5.5,20.2,15.8,27.7,38.3,27.7
					c11.9,0,18.3-2.5,20.1-4.6c3.1-3.6,7.2-17.2,3.1-45.8c-2.2-15.4-10.6-30.9-20.2-48.8c-11.4-21.1-25.2-46.7-30-78.1
					c-11.4,8.3-26.1,11.5-40.4,8.2c-19.5-4.5-34.4-20.2-37.9-40c-1.2-7-2.7-14-4.4-21c-12,20.6-29,38.4-51.2,54.5
					c-13.2,9.5-30.3,12-45.6,6.6c-15.4-5.4-27.1-18-31.4-33.7c-0.6-2.2-1.3-4.5-1.9-6.7c-6.7,13.6-15.5,26.2-26.3,38.2
					c-10.4,11.4-25.5,17.4-40.9,16c-10.8-0.9-20.9-5.3-28.8-12.3c-5.4,27.9-17.8,51-28,70.2c-9.3,17.3-17.3,32.3-19.4,47.1
					c-4.9,34.4,2.4,43.4,2.8,43.8c1.6,1.9,7.8,3.8,17.9,3.8c8.8,0,15.8-1.4,21-4.3c12.6-6.9,27.7-8,41.2-3c19.6,7.3,25.7,2,31.8-5.7
					c16.2-20.6,45.7-25.1,67.3-10.2c33.9,23.4,43.3,12.2,50.1,3.9c7.2-8.8,13.9-18.3,19.9-28.4
					C1074.6,480.5,1090.9,471.4,1108.3,471.4z"/>
				<linearGradient id="SVGID_1_" gradientUnits="userSpaceOnUse" x1="995.6118" y1="274.6143" x2="1051.7372" y2="627.9942">
					<stop  offset="0" style="stop-color:#EE3024"/>
					<stop  offset="0.5529" style="stop-color:#FDEE0D"/>
				</linearGradient>
				<path class="st0" d="M1269.5,488.3c-11.5-79.9-106.9-121.5-5.4-245.3c-49,14-93.2,43.5-123.3,85.3
					c-12.3-70.7-47.4-139.1-95.6-193.1c33.1,126.7,1.7,165.9-38.2,194.8c-17.5-63.6-55.5-121.8-104.2-165.3
					c36.3,101.1,19.9,145.1-8.7,176.4c-29-45.1-74-76.8-124.4-91.2c97.8,120.5,5.8,161-5.2,238.8C752.2,574.4,794.1,593,834.3,593
					c18.5,0,33.1-4,44.9-10.4c42.4,15.7,70.5,0.9,88.1-21.5c56.3,38.9,94.1,22,116.7-5.4c9.2-11.2,17.2-22.8,24.3-34.6
					c0.8,3.3,1.6,6.6,2.5,10c8.7,32.1,31.9,64.3,86.3,64.3C1238.7,595.4,1282.2,576.4,1269.5,488.3z"/>
				<path class="st1" d="M827.2,459.3c0,0,35-44.9,25.5-100.3c0,0,31,12.1,41.8,37.5c0,0,48.1-21.8,58.8-95.9
					c0,0,32.7,36.2,38.6,96.9c0,0,84.9-27.6,98-111.1c0,0,30.3,59.9,35.6,115.8c0,0,36.8-55.2,65.3-74.9c0,0-22,69.3,13.1,111.1
					C1238.9,480.2,827.1,496.6,827.2,459.3z"/>
				<path class="st2" d="M868.7,457.5c0,0,9.2-13.9,8.8-25.6c0,0,10.9,13.4,10.9,27.8c0,0,44.9-15.6,65.1-59
					c0,0,12.6,33.4,10.1,74.1c0,0,111.2-43.4,128-84.7c0,0,13.4,52.4,13.4,81.3l30.2,1.7c0,0,6.7-38.4,26.4-54
					c0,0-2.5,29.5,10.9,35.1l-25.2,34.5H863.7L868.7,457.5z"/>
			</g>
			<g class="st3">
				<g class="st4">
					<path class="st5" d="M1075.3,1345.9L780,1192.2l-383-927.7l207.8-105l521.2,857.7L1075.3,1345.9z M858.1,1120.7l140.1,72.9
						l24-155.8L567.6,289.7l-43.5,22L858.1,1120.7z"/>
					<path class="st5" d="M369.6,182.5c-24.1,0-47.4-13.2-59-36.1c-8-15.7-9.4-33.6-3.9-50.4c5.5-16.8,17.2-30.4,32.9-38.3
						L471.9-9.2c32.4-16.4,72.2-3.4,88.6,29.1c8,15.7,9.4,33.6,3.9,50.4c-5.5,16.8-17.2,30.4-32.9,38.3l-132.3,66.9
						C389.7,180.2,379.6,182.5,369.6,182.5z"/>
					<path class="st5" d="M433.7,300.7L331.1,98.4L509.8,8.1l102.6,202.3L433.7,300.7z M464.8,142.3l12.6,24.9l1.2-0.6L466,141.6
						L464.8,142.3z"/>
					<path class="st5" d="M363,397.8c-32.4,0-63.7-17.8-79.3-48.6c-10.7-21.1-12.6-45.2-5.2-67.7c7.4-22.5,23.1-40.8,44.2-51.4
						c15-7.6,31.7-10.6,48.2-9l214.3-108.3c8.5-14.2,20.8-25.9,35.8-33.4c43.6-22,97-4.5,119.1,39.1c10.7,21.2,12.6,45.2,5.2,67.7
						c-7.4,22.5-23.1,40.8-44.2,51.4c-15,7.6-31.8,10.6-48.2,9L438.7,354.8c-8.5,14.2-20.8,25.9-35.8,33.4
						C390.1,394.7,376.5,397.8,363,397.8z"/>
				</g>
				<g class="st4">
					<polygon class="st6" points="1039.3,1269.8 525.9,256.3 463.1,288.1 821.6,1156.4 					"/>
					<polygon class="st7" points="1039.3,1269.8 525.9,256.3 588.7,224.6 1076.7,1027.5 					"/>
					<path class="st8" d="M379.3,131c-8,4-17.8,0.8-21.9-7.2c-4.1-8-0.9-17.8,7.1-21.8l66.2-33.4l14.7,29L379.3,131z"/>
					<path class="st9" d="M511.6,64.2l-66.2,33.4l-14.7-29l66.2-33.4c8-4,17.8-0.8,21.9,7.2C522.8,50.3,519.6,60.1,511.6,64.2z"/>
					<linearGradient id="SVGID_2_" gradientUnits="userSpaceOnUse" x1="400.4532" y1="165.7807" x2="503.0555" y2="165.7807">
						<stop  offset="0" style="stop-color:#EE3024"/>
						<stop  offset="1" style="stop-color:#EE3024"/>
					</linearGradient>
					<polygon class="st10" points="445.4,97.6 400.5,120.3 458.1,234 503.1,211.2 					"/>
					<path class="st8" d="M525.9,256.3l-123,62.2c-2.6,10.6-9.5,20.1-20,25.5c-19.2,9.7-42.6,2-52.3-17.2
						c-9.7-19.2-2.1-42.6,17.1-52.3c10.5-5.3,22.3-5.2,32.4-1l123-62.2L525.9,256.3z"/>
					<path class="st9" d="M681.3,193.1c-10.5,5.3-22.3,5.2-32.4,1l-123,62.2l-22.9-45.1l123-62.2c2.6-10.6,9.5-20.1,20-25.5
						c19.2-9.7,42.6-2,52.3,17.2C708.1,160,700.5,183.4,681.3,193.1z"/>
					<path d="M675.9,152.2c-3.4-6.8-11.7-9.5-18.4-6.1c-6.8,3.4-9.4,11.7-6,18.4c3.4,6.8,11.7,9.5,18.4,6.1
						C676.6,167.2,679.3,158.9,675.9,152.2z"/>
					<linearGradient id="SVGID_3_" gradientUnits="userSpaceOnUse" x1="445.4336" y1="143.0449" x2="548.0363" y2="143.0449">
						<stop  offset="0.7281" style="stop-color:#8F1506"/>
						<stop  offset="0.8474" style="stop-color:#8F1506"/>
					</linearGradient>
					<polygon class="st11" points="490.4,74.9 445.4,97.6 503.1,211.2 548,188.5 					"/>
					<path d="M377.5,303c-3.4-6.8-11.7-9.5-18.4-6.1c-6.7,3.4-9.4,11.7-6,18.4c3.4,6.8,11.7,9.5,18.4,6.1S381,309.7,377.5,303z"/>
				</g>
				<g class="st4">
					<path class="st12" d="M920.5,1336.3l-41.7-329.6l547.3-842.5l205.5,110.2l-410.7,916.4L920.5,1336.3z M982,1030.3l19.7,156.1
						L1145,1117l358-798.8l-43.2-23.2L982,1030.3z"/>
					<path class="st12" d="M1663.5,193.3c-10.5,0-21.2-2.5-31.1-7.8l-131-70.2c-15.6-8.3-27-22.3-32-39.2c-5.1-17-3.2-34.8,5.3-50.4
						C1492.1-6.1,1532.1-18,1564-1l131,70.2c15.6,8.4,27,22.3,32,39.2c5.1,16.9,3.2,34.8-5.3,50.4l0,0
						C1709.7,180.8,1686.9,193.3,1663.5,193.3z"/>
					<path class="st12" d="M1664.6,408.4c-14.2,0-28.5-3.4-41.8-10.5c-14.8-8-26.9-19.9-35-34.3l-212.3-113.8
						c-16.5,1.2-33.2-2.3-48-10.2c-21-11.2-36.2-29.9-43-52.7c-6.8-22.7-4.2-46.8,7.1-67.6c23.3-42.8,77.2-58.8,120.2-35.8
						c14.8,8,26.9,19.9,35,34.3l212.3,113.8c16.5-1.2,33.2,2.3,48,10.2l0,0c20.9,11.2,36.2,29.9,43,52.7c6.8,22.7,4.2,46.7-7.1,67.6
						C1726.8,391.6,1696.2,408.4,1664.6,408.4z"/>
					<path class="st12" d="M1593.9,309.5l-176.7-94.7l108.7-199.2l176.7,94.7L1593.9,309.5z M1552.5,174.5l1.4,0.8l13.4-24.6
						l-1.4-0.8L1552.5,174.5z"/>
				</g>
				<g class="st4">
					<polygon class="st6" points="963.6,1261.3 1507.6,262.9 1569.8,296.3 1185.4,1153.8 					"/>
					<polygon class="st7" points="963.6,1261.3 1507.6,262.9 1445.4,229.6 932.9,1018.5 					"/>
					<path class="st8" d="M1658.4,141.7c7.9,4.2,17.8,1.3,22.1-6.6c4.3-7.9,1.4-17.7-6.6-22L1608.5,78l-15.6,28.6L1658.4,141.7z"/>
					<path class="st9" d="M1527.4,71.5l65.5,35.1l15.6-28.6L1543,42.9c-7.9-4.2-17.8-1.3-22.1,6.6
						C1516.6,57.4,1519.5,67.2,1527.4,71.5z"/>
					<linearGradient id="SVGID_4_" gradientUnits="userSpaceOnUse" x1="1531.8655" y1="174.4746" x2="1637.4535" y2="174.4746">
						<stop  offset="0" style="stop-color:#EE3024"/>
						<stop  offset="1" style="stop-color:#EE3024"/>
					</linearGradient>
					<polygon class="st13" points="1592.9,106.6 1637.5,130.4 1576.4,242.4 1531.9,218.5 					"/>
					<path class="st8" d="M1507.6,262.9l121.7,65.3c2.3,10.7,9,20.3,19.4,25.9c19,10.2,42.7,3.1,53-15.8
						c10.3-18.9,3.3-42.5-15.7-52.6c-10.4-5.6-22.2-5.8-32.5-1.9l-121.7-65.3L1507.6,262.9z"/>
					<path class="st9" d="M1353.4,195.8c10.4,5.6,22.2,5.8,32.5,1.9l121.7,65.3l24.2-44.4l-121.7-65.3c-2.3-10.7-9-20.3-19.4-25.9
						c-19-10.2-42.7-3.1-53,15.8C1327.4,162,1334.4,185.6,1353.4,195.8z"/>
					<path d="M1360,155c3.6-6.7,12-9.1,18.7-5.6c6.7,3.6,9.2,11.9,5.5,18.5c-3.6,6.7-12,9.1-18.7,5.6
						C1358.8,170,1356.3,161.7,1360,155z"/>
					<linearGradient id="SVGID_5_" gradientUnits="userSpaceOnUse" x1="1487.3323" y1="150.6017" x2="1592.9205" y2="150.6017">
						<stop  offset="0.7281" style="stop-color:#8F1506"/>
						<stop  offset="0.8474" style="stop-color:#8F1506"/>
					</linearGradient>
					<polygon class="st14" points="1548.4,82.7 1592.9,106.6 1531.9,218.5 1487.3,194.6 					"/>
					<path d="M1655.3,313.4c3.6-6.7,12-9.1,18.7-5.6c6.7,3.6,9.2,11.9,5.5,18.5c-3.6,6.7-12,9.1-18.7,5.6S1651.7,320,1655.3,313.4z"
						/>
				</g>
			</g>
			<g>
				<path d="M736.2,841.7c-16,0-31.7-7.7-41.2-21.9l-37.6-55.7c-17.4-25.8-38.3-65.1-60.3-106.7l-8.6-16.2
					c-10.7-20.2-21.2-43.1-32.2-67.5c-14.6-32.1-29.7-65.2-46.1-93.3c-32.2-55.3-50.5-87.5-75-132.7c-11.4-21.1-17.7-29.5-23.3-36.9
					c-6.9-9.1-14-18.6-23.1-38.5c-5.3-11.5-8.4-15.3-13.1-21.1c-5.2-6.4-12.3-15.1-19.7-29.6c-3.9-7.7-7.4-12.5-11.3-18
					c-5.1-7.1-11.5-15.9-16.8-28.4c-8.3-19.3-10.5-31.5-11-37.1c-0.4-3.7-0.3-7.4,0.1-11.1c1-7.6,11.7-75.7,95-111.2
					c82.9-35.4,134-1.1,139.5,2.9c5,3.6,9.3,8.1,12.6,13.3c1.9,3,47.6,73.8,69.7,114.4c25.6,47.2,77.6,146.7,110.6,220.1
					c34.1,75.9,48.1,105.3,81.5,168.3c11.6,21.9,20.6,39.5,28.7,55.5c15.9,31.2,28.4,55.8,52.1,95.3c13.9,23.2,6.8,53.2-16.1,67.6
					L762.7,834C754.5,839.2,745.3,841.7,736.2,841.7z M418.2,133.8c0.3,0.7,0.6,1.5,1,2.3c1,2.2,2.3,4.2,6,9.3
					c5,7,11.9,16.5,19.4,31.2c2.5,5,4.3,7.1,8.1,11.8c6.7,8.2,15.9,19.5,26.4,42.5c4.7,10.2,7,13.3,12.2,20.2
					c6.9,9.2,16.3,21.7,31.2,49.2c24.2,44.7,41.4,75.1,73.4,130c19,32.5,35.8,69.6,50.7,102.3c10.4,22.9,20.3,44.5,29.5,61.9
					l8.6,16.3c19.9,37.5,40.5,76.2,54.9,97.6l10.7,15.8l46.6-29.4c-11.8-21.3-21-39.4-31.1-59.3c-8-15.6-16.7-32.7-28-54
					c-34.5-64.9-49.7-97.1-84.3-174.1c-31.8-70.9-84.1-170.7-107.3-213.5c-14.8-27.3-42.8-71.9-57-94.2c-7.1-0.8-19.6-0.2-38.2,7.7
					C431.2,115.7,422.1,127.1,418.2,133.8z"/>
				<path d="M745.5,835.2c-1.2,0-2.5,0-3.7-0.1c-14-1-26.9-8-35.5-19c-1.5-1.9-15.1-19.7-38.4-57.9c-23.4-38.6-42.5-73.8-58.3-107.6
					l-2.5-5.3c-13.6-29.3-55.2-118.3-70.7-141.7c-12-18.2-20.2-36.5-28-54.2c-6.2-13.9-12-27.1-19.6-39.8
					c-8.8-14.9-15.8-29.1-22.4-42.9c-8.9-18.5-17.4-35.9-30.2-54.3l-8.6-12.2c-21.6-30.7-38.6-55-58.3-87.4
					c-4.8-7.8-9.2-14.4-13-20.2c-15.3-22.9-34.3-51.5-19.5-89.8c15.1-39.2,76.2-85,135.5-87.6c34.5-1.5,67.1-2.9,88.2,35.1
					c0.4,0.7,0.8,1.5,1.4,2.5c1.4,2.3,2.9,4.5,4.6,7.1c8.9,13.5,22.4,34,50.4,87.7c12.6,24.2,27.2,51.8,41.6,79.2
					c24.2,46,47.1,89.4,61.4,117.3c11.4,22.2,21.9,46.6,33,72.5c12.3,28.5,26.2,60.9,43.5,95.4c33,65.6,94,179.8,94.6,180.9
					c6.6,12.3,7.7,26.7,3.1,39.8c-4.6,13.1-14.5,23.7-27.2,29.2c-0.3,0.1-46,20.5-87.2,59.5C770.5,830.3,758.3,835.2,745.5,835.2z
					 M436.3,133.1c1,1.4,1.9,2.9,2.8,4.3c4.5,6.7,9.6,14.4,15.1,23.6c18,29.6,34.2,52.7,54.8,82l8.6,12.3
					c17.4,24.8,28.5,47.7,38.3,67.9c6,12.5,11.7,24.2,18.4,35.4c10.6,17.8,18.3,35.1,25,50.3c6.8,15.2,12.6,28.4,20,39.6
					c17.3,26.1,49.1,92.8,77.9,154.6l2.4,5.3c14.2,30.5,31.6,62.5,53.2,98c1.2,2,2.4,3.9,3.6,5.8c8.3-6,16.3-11.3,23.8-15.9
					c-21-39.7-51.9-98.3-72.6-139.7c-18.7-37.2-33.2-71-46-100.8c-10.9-25.4-20.3-47.3-30.2-66.5c-14-27.4-37.8-72.6-60.8-116.3
					c-14.5-27.5-29.1-55.3-41.8-79.5c-25.7-49.2-37.6-67.2-45.4-79.1c-0.1-0.1-0.1-0.2-0.2-0.2c-2,0.1-4.2,0.2-6.7,0.3
					C462.6,115.1,446.3,124.9,436.3,133.1z M428.2,141.4L428.2,141.4L428.2,141.4z"/>
				<path d="M740.8,837.7c-2.8,0-5.6-0.2-8.4-0.7c-13.5-2.3-25.4-10-33-21.4l-56.8-85.1c-1.2-1.7-2.2-3.5-3.1-5.4l-89.8-179.5
					l-91.7-176.2c-22.9-38.8-84.2-141.3-104.5-167.5c-42.7-55.4-23.1-99.8-4.8-117.3c10.4-9.9,24.5-14.9,38.8-13.6
					c14.3,1.3,27.3,8.7,35.8,20.3l17.4,23.9c2.1,2.9,58.2,78.8,92.9,145.2c12.7,24.3,24.8,45.7,36.5,66.4
					c18.8,33.3,36.5,64.7,54.7,104c13.3,28.7,22.9,44.5,31.4,58.5c9.1,14.9,17.6,28.9,24.6,49.8c5.1,15.4,21.7,40.2,36.4,62.2
					c8.1,12.1,16.4,24.5,24,36.9c23.7,38.7,59.9,111.5,61.5,114.5c10.7,21.5,4.5,47.5-14.7,61.9l-17.4,13
					C762,834.3,751.5,837.7,740.8,837.7z"/>
				<path d="M505.2,170.9c-10.7,0-21.5-3.3-30.6-9.7c-4.5-3.2-11-8.2-16-14c-5.1-5.8-7.9-11.4-9.9-15.5c-0.2-0.5-0.5-1-0.8-1.6
					c-11.1-10-16-20.4-18.5-28.8c-4.3-7.1-8.7-15.1-10.2-17.9c-6.9-13-7.8-28.4-2.3-42.1c5.5-13.7,16.8-24.2,30.8-28.7
					c23.4-7.6,47.1-3.8,63.2,10.2c11.7,10.1,34.5,44,36.3,72.5c0.1,0.9,0.6,3,1.2,4.2c11.1,20.3,6.1,44.2-11.2,59.6
					C528.1,167.1,516.7,170.9,505.2,170.9z M451,132.8C451.1,132.9,451.1,132.9,451,132.8C451.1,132.9,451.1,132.9,451,132.8z"/>
				<path d="M629.8,372.9c-16.9,0-33.2-8.6-42.4-23.8c-5-8.2-14.6-22.5-20.1-28.4c-11.6-12.7-19.2-28.2-26.5-43.2
					c-3.4-7-6.9-14.2-10-19.1c-11.6-18.6-20.7-35.2-21.1-35.9c-11.5-20.9-6.5-47,11.9-62.2c18.4-15.2,44.9-15.3,63.3-0.1
					c2.8,2.3,27.7,23.2,45,53.2c4.1,7.2,7.4,13,10.3,18.1c6.3,11.1,10.1,17.8,16.8,27.9c16,24.2,21,50.5,21.9,55.5
					c4,23.5-9.3,46.5-31.6,54.8C641.5,371.9,635.6,372.9,629.8,372.9z"/>
				<path d="M784.8,678.8c-9.1,0-18.3-2.5-26.5-7.7c-8.4-5.3-21.8-17.2-38.4-44.2c-3.3-5.4-4.8-6.7-8.4-10
					c-6.3-5.7-15.9-14.3-24.7-31.4l-3-5.8c-5.3-10.3-16.3-31.8-20.9-37.5c-15.1-16.1-50.7-80.5-61.1-105.6
					c-10.1-24.5-39.9-102.4-41.2-105.7c-9.3-24.3,1.7-51.6,25.2-62.7c23.5-11.1,51.6-2.2,64.5,20.4c2.4,4.2,59.1,103.8,76.3,137.9
					c20.7,41,47.9,92.9,59,109.9c14.1,21.7,40.6,64.9,41.7,66.7c12.1,19.7,9,45.1-7.5,61.4C810.2,673.9,797.5,678.8,784.8,678.8z"/>
				<path d="M784.8,678.8c-17.5,0-34.4-9.3-43.4-25.4c-0.1-0.2-12.8-22.6-30-44.2c-14.8-18.6-23.7-36.4-29.6-48.2
					c-1.5-3-3.4-6.9-4.5-8.8c-8.5-9.7-16.1-24.3-31.3-54.2c-9.3-18.4-19.9-39.2-28.2-52.4c-20.6-33.1-52.6-104.1-56.1-112.1
					c-10.7-23.9-1-52.1,22.2-64.3c23.2-12.2,51.9-4.4,65.6,18c0,0,47.2,77,67.5,110.6c5.5,9.2,11.3,18.1,16.9,26.7
					c17.2,26.7,32.1,49.7,36.7,73.1c1,5.3,2.2,7.8,4.9,13.2c2.3,4.7,5.4,10.9,7.9,18.8c2.4,3.7,8.3,10.8,12,15.3
					c6.1,7.4,11.9,14.4,16.6,21.7c11.2,17.5,18.7,41.8,20.7,48.8c7,24.3-5.3,49.9-28.6,59.7C797.8,677.6,791.2,678.8,784.8,678.8z
					 M678.3,553.5c0.2,0.2,0.3,0.4,0.5,0.5C678.7,553.9,678.5,553.7,678.3,553.5z"/>
				<path d="M583.9,404.1c-21.2,0-40.6-13.6-47.3-34.6c0-0.1-11.3-33.6-40.3-77.4l-9.9-15c-28.9-43.5-46.3-69.8-56.4-87.3
					c-4.2-7.3-7.1-13.2-9.4-17.9c-3.8-7.7-4.4-9.1-8.6-13.4c-16.9-17.5-35-45.8-38.4-51.3c-14.2-22.5-8.1-52.2,13.8-67.3l9.9-6.8
					c11.7-8.1,26.3-10.8,40.1-7.4c13.8,3.4,25.5,12.5,32.1,25.1l0,0c4.8,9,12.2,20.4,15.5,23.8c21.7,17.7,34.3,46.8,47.3,80.2
					c3.4,8.8,7.6,15.3,19.3,32.8c8.3,12.4,19.5,29.4,34.7,54.1c38.2,62.3,45.6,96.2,46.9,105.1c3.9,25.6-12.5,50-37.8,55.9
					C591.5,403.6,587.6,404.1,583.9,404.1z M484.3,74.1c0.1,0,0.1,0.1,0.2,0.1C484.4,74.2,484.3,74.1,484.3,74.1z"/>
				<path d="M582.4,406.4c-13.7,0-31.8-5.6-47.6-29.1c-4.6-6.8-11-17.8-18.4-30.4c-7.5-12.8-16.8-28.8-21.6-35.6
					c-1.1-1.6-2.8-3.5-6.1-6.9c-10.5-11.3-26.5-28.4-54.2-74.6c-20-33.3-25.8-51.8-30.6-66.6c-4.1-12.9-7.3-23-24.4-49.4
					c-14.2-21.8-9.1-50.9,11.6-66.7c20.7-15.8,50.1-12.9,67.4,6.6l38,42.9c2.5,2.9,4.7,6,6.6,9.4l33,61.3l28.6,43.3
					c0.4,0.6,0.8,1.2,1.1,1.8l41.6,69.2c1.3,2.2,2.4,4.4,3.4,6.8l19.3,47.1c2,4.9,3.2,10.2,3.6,15.5c1.6,23.9-12.2,45-34.3,52.6
					C595.3,404.9,589.4,406.4,582.4,406.4z"/>
			</g>
			<g>
				<path class="st15" d="M736.1,792c0,0-19.5-29-37.6-55.7c-18.1-26.8-42.3-73.5-66.2-118.4C608.4,573,583.4,507.5,553,455.4
					c-30.4-52.1-48.5-84-74.2-131.4c-25.7-47.4-30.8-41.6-44.9-72.4c-14.1-30.8-22.4-30.4-33.7-52.5C389,177,380,170.9,373.5,155.7
					s-7.2-22.4-7.2-22.4s5.8-46.3,65.1-71.7s90.8-2.5,90.8-2.5s46.3,71.7,67.7,111.1C611.3,209.6,665.2,312,698.9,387
					c33.7,74.9,48.5,106.4,82.9,171.2c34.4,64.8,45.2,91.6,82.2,153.1L736.1,792z"/>
				
					<linearGradient id="SVGID_6_" gradientUnits="userSpaceOnUse" x1="-276.5181" y1="1386.1501" x2="66.0803" y2="1386.1501" gradientTransform="matrix(-0.7071 0.7071 -0.7071 -0.7071 1522.5244 1468.9935)">
					<stop  offset="0" style="stop-color:#1C1F29"/>
					<stop  offset="1" style="stop-color:#42434E"/>
				</linearGradient>
				<path class="st16" d="M745.5,785.5c0,0-12.7-16.3-35.1-53.2c-22.4-36.9-40.5-70.2-55.7-102.8C639.5,596.9,596.4,503.9,578,476
					s-27.1-59.7-46.3-91.9c-19.2-32.2-29.3-64.1-54.7-100.3c-25.3-36.2-43.8-61.9-65.1-97s-35.8-47.4-28.6-66.2s49.6-53.9,91.2-55.7
					s36.9,0.7,45.2,14.1s19.9,27.9,53.2,91.6s80,151.7,102.8,196.2c22.8,44.5,42.7,100.6,76.4,167.6c33.7,67,95.2,182.1,95.2,182.1
					S794.2,739.2,745.5,785.5"/>
				<path class="st17" d="M758.2,775c0,0-36.6-73.5-59.4-110.8c-22.8-37.3-54.7-77.8-65.1-109.3c-10.5-31.5-25.3-41.3-53.9-103.2
					c-28.6-61.9-56.8-104.6-90.1-168.3s-89-139-89-139l-17.4-23.9c0,0-17,16.3,9.8,51c26.8,34.7,108.6,173.7,108.6,173.7l92.7,178.1
					L684,702.9l56.8,85.1L758.2,775z"/>
				<path class="st15" d="M462.9,59.9c0,0,7,13,11.1,18.9c4.1,5.9,0.5,8.9,8.3,15.3c7.9,6.4,11.2,17.6,13.5,20.2
					c2.3,2.6,7.4,6.2,7.4,6.2s-5-10.2-5.8-22.1c-0.8-12-14.7-34.1-19.2-38C473.7,56.5,462.9,59.9,462.9,59.9z"/>
				<path class="st15" d="M553.3,198.6c0,0,20.2,16.6,33.5,39.6s17.6,32,28.6,48.6s14.3,36.3,14.3,36.3s-14.6-23.8-25.8-36.1
					c-11.3-12.3-20-37.3-30.9-55S553.3,198.6,553.3,198.6z"/>
				<path class="st17" d="M784.8,629.1c0,0-8.5-5.4-22.6-28.2c-14-22.8-22-20-31.3-38.1c-9.3-18.1-22.2-44.1-31.3-53.9
					c-9.1-9.8-41.9-67-51.9-91.2c-10-24.2-40.7-104.5-40.7-104.5s58.3,102.3,75.1,135.7c16.8,33.4,47.8,93.2,61.7,114.6
					C757.7,584.9,784.8,629.1,784.8,629.1z"/>
				<path class="st15" d="M607,313.2c0,0,47.1,76.7,67.3,110.2s43.5,63.9,47.3,83.6c3.8,19.7,11,26.3,14.8,39.4
					c3.8,13,25.3,34,33.5,46.8s14.8,35.8,14.8,35.8s-14.3-25.6-34.5-50.9s-26.3-48.9-35.3-58.3c-9-9.5-35.6-69.3-55-100.5
					S607,313.2,607,313.2z"/>
				<path class="st15" d="M425.4,74c0,0,15.2,28.8,27.8,38.9c12.6,10.1,23.3,35.9,32.6,59.9s22,36.1,57.9,94.8s40.2,86.7,40.2,86.7
					s-12.4-38.7-46.3-89.7s-54.3-81.6-64.7-99.6s-11.1-26.3-25.3-41s-32.1-43.2-32.1-43.2L425.4,74z"/>
				<path class="st17" d="M583.9,354.3c0,0,0.5,7.6-7.8-4.8s-29.8-51.6-40.4-66.7s-22.8-19.2-58.4-78.6S461,147.7,421.3,86.6l38,43
					l34,63.3l29.8,45.2l41.6,69.2L583.9,354.3z"/>
			</g>
			<g>
				<path d="M1312.4,846.8c-8.8,0-17.6-2.3-25.6-7.1l-129.3-78c-23.1-14-30.9-43.8-17.5-67.3c22.9-40,34.9-64.9,50.2-96.4
					c7.8-16.2,16.5-34,27.6-56.1c32.1-63.6,45.4-93.3,78-169.9c39.5-92.9,103.3-217.1,106-222.3c21.2-41.1,65.4-112.8,67.3-115.8
					c3.2-5.2,7.4-9.8,12.3-13.5c5.5-4.1,55.8-39.5,139.4-5.9c83.9,33.8,96.1,101.6,97.2,109.2c0.5,3.7,0.7,7.4,0.4,11.2
					c-0.4,5.5-2.4,17.7-10.2,37.2c-5.1,12.7-11.3,21.6-16.2,28.7c-3.8,5.6-7.2,10.4-11,18.2c-7.1,14.6-14,23.5-19,30
					c-4.6,5.9-7.7,9.8-12.7,21.4c-8.7,20-15.6,29.6-22.3,38.9c-5.4,7.5-11.5,16.1-22.5,37.4c-23.7,45.9-41.2,78.5-72.2,134.3
					c-15.8,28.4-30.2,61.9-44.1,94.2c-10.6,24.6-20.6,47.8-30.9,68.1l-8.1,16.1c-21.3,42.2-41.4,82-58.3,108.1l-36.5,56.5
					C1344.8,838.7,1328.8,846.8,1312.4,846.8z M1249.8,701.2l47.1,28.4l10.3-16c14-21.7,33.8-61,53-99l8.2-16.2
					c8.9-17.6,18.3-39.4,28.3-62.6c14.2-33,30.3-70.4,48.6-103.2c30.8-55.4,47.3-86.1,70.8-131.5c14.3-27.8,23.5-40.5,30.2-49.8
					c5.1-7,7.4-10.2,11.8-20.5c10.1-23.2,19-34.6,25.6-43c3.7-4.8,5.4-6.9,7.9-12c7.1-14.8,13.8-24.5,18.7-31.5
					c3.6-5.2,4.9-7.2,5.8-9.5c0.3-0.8,0.6-1.5,0.8-2.1c-4.1-7.1-13.3-17.9-33.1-25.9c-18.7-7.5-31.3-7.8-38.4-6.9
					c-13.7,22.6-40.9,67.8-55.1,95.4c-22.3,43.3-72.5,144-102.9,215.6c-33,77.7-47.6,110.2-80.7,175.8
					c-10.9,21.5-19.2,38.8-26.9,54.6C1270,661.4,1261.2,679.7,1249.8,701.2z"/>
				<path d="M1302.9,840.5c-12.3,0-24.3-4.6-33.5-13c-41.9-38.2-88-57.5-88.4-57.7c-12.8-5.3-22.9-15.7-27.7-28.7
					c-4.8-13-4-27.4,2.2-39.8c0.6-1.2,59.2-116.6,90.9-182.8c16.6-34.9,29.9-67.5,41.6-96.3c10.6-26.1,20.6-50.7,31.5-73.1
					c13.7-28.1,35.6-71.9,58.8-118.3c13.9-27.8,28-55.8,40.1-80.3c26.9-54.2,40-74.9,48.6-88.7c1.7-2.6,3.1-5,4.5-7.2
					c0.6-0.9,1-1.8,1.4-2.5c20.3-38.4,52.9-37.7,87.4-36.9c59.3,1.3,121.3,45.8,137.2,84.7c15.5,37.9-2.9,66.9-17.7,90.1
					c-3.7,5.8-8,12.5-12.6,20.4c-19.1,32.9-35.7,57.6-56.7,88.9l-8.1,12.1c-12.4,18.6-20.5,36.2-29.1,54.8
					c-6.4,13.9-13,28.4-21.6,43.4c-7.3,12.8-12.8,26.1-18.7,40.1c-7.5,17.9-15.2,36.3-26.9,54.7c-15,23.7-54.7,113.6-67.7,143.1
					l-2.4,5.4c-15.1,34.1-33.4,69.7-56.1,108.8c-22.5,38.7-35.7,56.8-37.2,58.7c-8.4,11.3-21.2,18.4-35.1,19.8
					C1306.1,840.4,1304.5,840.5,1302.9,840.5z M1266.5,702.4c7.5,4.5,15.6,9.6,24,15.4c1.1-1.9,2.3-3.9,3.4-5.9
					c20.8-35.9,37.5-68.3,51.1-99.1l2.4-5.3c27.5-62.4,58-129.7,74.7-156.1c7.2-11.4,12.8-24.7,19.2-40c6.5-15.4,13.8-32.8,24-50.8
					c6.4-11.3,11.9-23.2,17.7-35.8c9.4-20.4,20-43.5,36.8-68.7l8.2-12.2c20-29.8,35.8-53.3,53.3-83.4c5.4-9.2,10.3-17.1,14.7-23.9
					c0.9-1.4,1.8-2.9,2.7-4.3c-10.1-8-26.6-17.4-40.6-17.7c-2.5-0.1-4.7-0.1-6.7-0.1c-0.1,0.1-0.1,0.2-0.2,0.3
					c-7.6,12-19,30.3-43.7,80c-12.2,24.6-26.3,52.7-40.2,80.6c-22.1,44.1-44.9,89.7-58.3,117.3c-9.4,19.4-18.4,41.5-28.8,67
					c-12.2,30.1-26,64.2-44,101.7C1316.3,603,1286.7,662.3,1266.5,702.4z M1607,140.4L1607,140.4L1607,140.4z"/>
				<path d="M1307.7,842.9c-10.3,0-20.5-3.2-29-9.3l-17.6-12.7c-19.5-14-26.2-39.9-16-61.6c1.5-3.1,36.2-76.6,59.1-115.8
					c7.3-12.6,15.4-25.2,23.2-37.4c14.2-22.2,30.3-47.4,35.1-62.9c6.5-21,14.8-35.3,23.6-50.3c8.2-14.1,17.5-30.1,30.2-59.1
					c17.4-39.8,34.5-71.5,52.6-105.2c11.3-20.9,22.9-42.6,35.1-67.2c33.3-67.1,87.8-144.2,90.1-147.4l16.6-23.9
					c8.2-11.8,21.1-19.4,35.4-21c14.3-1.6,28.5,3.1,39.1,12.8c18.7,17.1,39.1,61.1-2.4,117.4c-19.7,26.6-78.9,130.3-101,169.6
					l-88.4,178.8l-85.7,180.6c-0.9,1.9-1.9,3.7-3,5.4l-55.1,86.2c-7.4,11.5-19.1,19.5-32.5,22.1
					C1314,842.6,1310.8,842.9,1307.7,842.9z"/>
				<path d="M1530.2,171.3c-11.3,0-22.5-3.8-31.5-11.5c-17.6-15.1-22.9-39.3-12.2-59.8c0.1-0.3,0.6-2.4,0.7-3.3
					c1.2-28.5,23.3-62.8,34.8-73.1c15.9-14.3,39.4-18.6,63-11.5c14.1,4.2,25.6,14.5,31.4,28.1c5.8,13.5,5.3,29-1.4,42.1
					c-1.4,2.8-5.7,11-9.9,18.2c-2.4,8.5-7.1,19-17.9,29.1c-0.3,0.6-0.5,1.1-0.7,1.6c-2,4.2-4.6,9.9-9.6,15.8
					c-4.9,5.7-11.2,10.9-15.7,14.2C1552,167.9,1541.1,171.3,1530.2,171.3z M1584.1,132.3C1584,132.3,1584,132.3,1584.1,132.3
					C1584,132.3,1584,132.3,1584.1,132.3z"/>
				<path d="M1409.2,376c-5.5,0-11.1-0.9-16.5-2.8c-22.5-7.9-36.2-30.6-32.7-54.2c0.7-5,5.3-31.4,20.7-55.9
					c6.5-10.2,10.1-17,16.1-28.1c2.8-5.2,6-11.2,10-18.5c16.7-30.3,41.1-51.7,43.9-54.1c18.1-15.5,44.7-16,63.3-1.2
					c18.7,14.8,24.2,40.8,13.2,61.9c-0.4,0.7-9.1,17.5-20.4,36.3c-3,5-6.3,12.3-9.6,19.3c-7,15.2-14.3,30.8-25.6,43.7
					c-5.4,6.1-14.6,20.6-19.5,28.9C1443,367,1426.5,376,1409.2,376z"/>
				<path d="M1260.5,685c-12.4,0-24.7-4.6-34.2-13.6c-16.8-15.9-20.4-41.3-8.8-61.2c1.1-1.9,26.6-45.6,40.3-67.5
					c10.7-17.3,36.9-69.7,56.7-111.1c16.5-34.5,71.1-135.2,73.4-139.5c12.4-22.8,40.3-32.3,64-21.7c23.7,10.6,35.3,37.7,26.5,62.2
					c-1.2,3.3-29.4,81.8-39,106.5c-9.8,25.3-44.2,90.3-59.3,107.3c-4.1,5.3-14.6,26.9-19.7,37.3l-2.9,6c-8.4,17.3-17.8,26-24,31.9
					c-3.6,3.3-5,4.7-8.2,10.2c-16,27.3-29.2,39.6-37.4,45C1279.6,682.3,1270.1,685,1260.5,685z"/>
				<path d="M1260.5,685c-6.1,0-12.3-1.1-18.2-3.5c-23.5-9.3-36.3-34.6-29.8-59c1.9-7.1,8.9-31.5,19.7-49.2
					c4.5-7.4,10.2-14.5,16.1-22c3.6-4.5,9.4-11.8,11.7-15.5c2.4-7.9,5.3-14.2,7.5-18.9c2.5-5.4,3.7-7.9,4.6-13.2
					c4.1-23.5,18.5-46.8,35.2-73.8c5.3-8.6,11-17.7,16.3-27c19.6-34,65.2-111.9,65.2-111.9c13.2-22.6,41.8-31.1,65.2-19.3
					c23.4,11.8,33.7,39.7,23.5,63.8c-3.4,8.1-33.9,79.7-53.8,113.3c-7.9,13.4-18.1,34.4-27.1,53c-14.6,30.2-21.9,44.9-30.2,54.8
					c-1,1.9-2.9,5.9-4.4,8.9c-5.7,11.9-14.2,29.9-28.6,48.7c-16.8,22-29,44.6-29.1,44.8C1295.5,675.3,1278.4,685,1260.5,685z
					 M1365.5,557.5c-0.2,0.2-0.3,0.4-0.5,0.6C1365.1,557.9,1365.3,557.7,1365.5,557.5z"/>
				<path d="M1455.8,406.1c-3.5,0-7.1-0.4-10.6-1.1c-25.3-5.5-42.1-29.4-38.7-55c1.2-8.9,7.9-43,44.8-106.1
					c14.6-25,25.6-42.2,33.6-54.8c11.3-17.8,15.4-24.4,18.6-33.2c12.3-33.6,24.2-62.9,45.6-81.1c3.6-3.8,11-16.2,15-24.1
					c6.4-12.7,17.9-22.1,31.6-25.8c13.7-3.7,28.4-1.3,40.3,6.6l10,6.6c22.2,14.7,28.9,44.2,15.2,67c-3.3,5.6-20.8,34.3-37.4,52.1
					c-4,4.4-4.8,6-8.3,13.5c-2.2,4.8-5,10.8-9,18.1c-9.7,17.7-26.7,44.4-54.7,88.6l-9.5,14.9c-28.2,44.4-38.7,78.1-38.8,78.4
					C1496.8,392.1,1477.2,406.1,1455.8,406.1z M1549.6,74.2c0,0-0.1,0.1-0.1,0.1C1549.5,74.3,1549.6,74.3,1549.6,74.2z"/>
				<path d="M1457.2,408.5c-6.6,0-12.1-1.3-15.8-2.5c-21.9-7-36.5-28.3-35.4-51.9c0.3-5.3,1.4-10.6,3.3-15.6l18.3-47.5
					c0.9-2.4,2-4.7,3.3-6.8l40.1-70c0.3-0.6,0.7-1.2,1.1-1.8l27.7-43.9l31.7-62c1.7-3.4,3.9-6.6,6.4-9.5l37.1-43.7
					c16.8-19.9,46.1-23.4,67.2-8c21,15.3,26.7,44.3,12.9,66.4c-16.6,26.7-19.6,36.9-23.4,49.9c-4.4,15-9.9,33.6-29.2,67.2
					c-26.8,46.8-42.4,64.2-52.7,75.7c-3.2,3.5-4.9,5.4-5.9,7c-4.6,6.8-13.5,22.9-20.7,35.8c-7.2,12.9-13.4,24-17.8,31
					C1489.6,402.8,1471.1,408.5,1457.2,408.5z"/>
			</g>
			<g>
				<path class="st15" d="M1312.5,797.1c0,0,18.9-29.4,36.5-56.5c17.5-27.1,40.8-74.3,63.8-119.7c23-45.4,46.6-111.4,75.9-164.1
					s46.8-84.9,71.5-132.9c24.7-47.9,29.9-42.2,43.4-73.3s21.8-30.9,32.6-53.2c10.8-22.3,19.7-28.6,25.9-44s6.8-22.6,6.8-22.6
					s-6.7-46.2-66.6-70.2c-59.8-24.1-90.8-0.6-90.8-0.6s-44.8,72.6-65.4,112.5s-72.4,143.4-104.5,219s-46.3,107.4-79.4,172.8
					s-43.4,92.5-79,154.7L1312.5,797.1z"/>
				
					<linearGradient id="SVGID_7_" gradientUnits="userSpaceOnUse" x1="241.7558" y1="1876.6625" x2="584.3542" y2="1876.6625" gradientTransform="matrix(0.721 0.6918 0.6923 -0.7216 -172.9486 1485.6912)">
					<stop  offset="0" style="stop-color:#1C1F29"/>
					<stop  offset="1" style="stop-color:#42434E"/>
				</linearGradient>
				<path class="st18" d="M1303,790.7c0,0,12.3-16.5,34-53.9s39.1-71,53.6-103.9c14.5-32.9,55.7-126.7,73.6-155
					c17.9-28.2,25.9-60.3,44.4-92.9c18.5-32.6,28-64.6,52.6-101.4s42.5-62.8,63.1-98.3s34.8-48.1,27.2-66.8
					c-7.6-18.7-50.7-52.9-92.3-53.8s-36.9,1.5-44.9,15.1s-19.3,28.3-51.3,92.6s-76.9,153.2-98.7,198.2
					c-21.9,45-40.6,101.5-72.9,169.1c-32.3,67.6-91.4,184-91.4,184S1253.4,745.6,1303,790.7"/>
				<path class="st17" d="M1290.1,780.5c0,0,35-74.2,57.1-111.9c22-37.7,53-78.9,62.9-110.6c9.8-31.7,24.5-41.8,51.8-104.2
					c27.3-62.5,54.7-105.7,86.6-170.1c32-64.4,86.2-140.8,86.2-140.8l16.9-24.2c0,0,17.3,15.9-8.7,51.2s-105,175.9-105,175.9
					l-89,179.9L1362.8,707l-55.1,86.2L1290.1,780.5z"/>
				<path class="st15" d="M1570.7,59.7c0,0-6.7,13.2-10.7,19.2c-4,6-0.3,8.9-8,15.5c-7.7,6.5-10.8,17.8-13.1,20.4
					c-2.2,2.6-7.3,6.4-7.3,6.4s4.8-10.3,5.3-22.2c0.5-12,14-34.4,18.5-38.4C1559.8,56.4,1570.7,59.7,1570.7,59.7z"/>
				<path class="st15" d="M1483.1,200.2c0,0-19.9,17-32.7,40.3s-17,32.3-27.6,49.2c-10.7,16.8-13.6,36.6-13.6,36.6
					s14.1-24.1,25.1-36.6c11-12.5,19.2-37.7,29.8-55.6S1483.1,200.2,1483.1,200.2z"/>
				<path class="st17" d="M1260.5,635.3c0,0,8.4-5.6,22-28.7c13.6-23.1,21.6-20.4,30.5-38.7c8.9-18.3,21.2-44.6,30.2-54.6
					c8.9-10,40.6-67.8,50-92.2c9.5-24.4,38.5-105.3,38.5-105.3s-56.1,103.5-72.3,137.2s-45.9,94.2-59.3,115.8
					C1286.7,590.6,1260.5,635.3,1260.5,635.3z"/>
				<path class="st15" d="M1431.8,315.9c0,0-45.5,77.7-65,111.6s-42.2,64.8-45.6,84.6c-3.4,19.8-10.5,26.6-14,39.7
					c-3.6,13.1-24.6,34.5-32.5,47.5s-14.1,36.1-14.1,36.1s13.8-25.9,33.5-51.6c19.7-25.7,25.3-49.4,34.1-59s34.1-70,52.9-101.6
					C1399.8,391.5,1431.8,315.9,1431.8,315.9z"/>
				<path class="st15" d="M1608.5,72.9c0,0-14.6,29.1-27,39.5c-12.4,10.4-22.5,36.4-31.4,60.6s-21.2,36.6-55.9,96
					c-34.7,59.4-38.4,87.5-38.4,87.5s11.6-38.9,44.4-90.7s52.7-82.7,62.6-100.9s10.6-26.5,24.4-41.5c13.8-15,31.2-43.9,31.2-43.9
					L1608.5,72.9z"/>
				<path class="st17" d="M1455.7,356.4c0,0-0.4,7.6,7.7-5c8.1-12.6,28.8-52.2,39.1-67.5c10.3-15.4,22.3-19.7,56.8-79.8
					c34.4-60.1,15.1-56.8,53.5-118.6l-37.1,43.7l-32.7,64l-28.9,45.8l-40.1,70L1455.7,356.4z"/>
			</g>
		</g>
		<g>
			<g>
				<g>
					<path d="M464.5,983.2c-0.9,0-1.9,0-2.8,0c-20.8-0.1-79.6-4.3-125.2-7.8c-40.2-3.1-71.7-35.7-73.4-75.9
						c-1.3-29.5-1.9-75.5-1.9-140.5c0-68.6,0.2-129.2,0.6-185.1v-73.6c0-39.3,28.7-72.7,67.5-78.6c42-6.4,83.7-7.8,123.8-3.9
						c59.6,5.7,110.5,22.6,151.3,50c36.5,24.6,79.9,71.7,79.9,156.8c0,26.1-5.8,52.6-17.2,79.3c3.8,5.2,7.1,10,10.1,14.7
						c0,0,0,0,0,0C693,743.1,701,771,701,801.5c0,10.6-1,21.8-3,33.4c-0.2,0.9-0.3,1.8-0.5,2.6c-11.9,57.3-46.8,100.7-98.4,122.3
						C562.1,975.3,516.9,983.2,464.5,983.2z M433.3,767.9c-4.3,8.6-5.6,16.2-5.6,19.9c0,3.2,0.5,5,0.5,5l6-2l6.1-22.9H433.3z
						 M434.2,607.4c0,0-4.1,8-4.1,21.2c0,3.5,0.3,7,0.9,10.4l11.9-42.2C439.8,599.7,436.8,603.2,434.2,607.4
						C434.2,607.4,434.2,607.4,434.2,607.4z M451,590.7C451,590.8,451,590.8,451,590.7L451,590.7z"/>
					<path d="M830.6,990.2c-0.1,0-0.1,0-0.2,0c-31.9,0-63-4.5-92.4-13.2c-34.1-10.1-63.3-26.3-86.9-48.2
						c-30.5-28.3-47.7-66.1-48.6-106.5c-0.5-21.8,0.1-51.8,0.7-89.7l1.1-64.7c0.8-37.7,1.2-65.3,1.2-82.4c0-27.7-0.3-41.8-0.6-48.8
						c-0.8-22.3,7.8-44,23.7-59.7c15.9-15.7,37.6-23.9,60-22.7l14.2,0.7c13.9,0.3,21.2,0.4,35.5,0.7c0.8,0,1.5,0,2.3,0.1
						c26.4,1.2,50.5,4.9,71.7,11c5.3,1.5,10.3,3.6,15,6c7.5-3.2,15.5-5.3,24-6.2l12.8-1.2c3.2-0.3,6.3-0.4,9.6-0.3
						c1.1,0,4.8-0.1,15.8-0.9c8.3-0.6,28.8-1.9,41.6-1.1c15.4,1,31.1,2.1,46.5,6.1c37.8,4.6,67.5,35.7,69.7,74.6
						c2.1,38.5,3.2,74.7,3.2,107.7c0,64.6-3.8,125.3-11.2,180.6c-5.9,43.7-27.5,82-62.6,110.9c-31.4,25.9-70.5,41.2-116.1,45.4
						c-0.8,0.1-1.6,0.2-2.4,0.3C848.4,989.8,839.1,990.2,830.6,990.2z"/>
					<path d="M1102.7,982.5c-0.9,0-1.8,0-2.7,0l-13.5-0.5l-31.4,0c-23.3,0-78.2-9.5-84.5-97.4c-1.3-17.8-1.9-42.8-1.9-76.5
						c0-55.7-0.6-112.7-1.8-169.5c-1.5-68-3.5-85.4-4-88.8c-4.4-21.5,0.3-43.9,13-61.8c12.9-18.2,32.8-30.1,54.9-32.9l16.4-2.1
						c0.3,0,0.7-0.1,1-0.1c25.2-3,46.1-5.4,62.5-7c18.1-1.8,36.8-3,55.7-3.5c20.3-0.5,38.6-0.2,54.2,1c34.9,2.6,67.8,11.8,97.8,27.3
						c31.3,16.2,57.1,37.5,76.7,63.2c23,30.1,35.2,64.8,35.2,100.2c0,32.6-10.8,66.3-32,100c-8,12.6-17.4,24-28,34.3
						c11.9,15.7,22.1,29.8,30.4,42c12.9,18.8,23.8,38.5,32.4,58.4c10.6,24.5,8.2,52.8-6.5,75.1c-14.6,22.4-39.5,35.9-66.3,36l-9.9,0
						c-1.7,0-8,0.1-30.2,1.1c-18.2,0.8-33.2,1.2-44.8,1.2c-7.2,0-17.3-0.3-30.8-1.1l-9.8-0.5c-13.2-0.6-25.7-4.5-36.7-11
						C1174.7,978.4,1144.2,982.5,1102.7,982.5C1102.7,982.5,1102.7,982.5,1102.7,982.5z M1187.6,684.2
						C1187.7,684.2,1187.7,684.2,1187.6,684.2C1187.7,684.2,1187.7,684.2,1187.6,684.2z M1150.8,617.5c-5.3,9-5.8,16.9-5.8,19.9
						c0,6.4,3.9,19.5,14.5,30.9l-7.7-50.2L1150.8,617.5z M1231.6,657.2L1231.6,657.2L1231.6,657.2z M1151.5,616.4
						c-0.2,0.3-0.4,0.7-0.6,1l0.9,0.5L1151.5,616.4z M1165.2,601.5c-2.6,1.9-5,4.1-7.2,6.4l18.9-1.5l0-2l0.3,2l22-1.7
						c-1.7-1.2-3.4-2.3-5.1-3.3c-7.2-0.2-15.2-0.1-24,0.1C1168.5,601.4,1166.9,601.5,1165.2,601.5z"/>
					<path d="M1485.1,983.6c-6.1,0-13.3-0.4-24.5-1.3c-9.7-0.8-13.2-0.7-13.2-0.8c-0.9,0-1.8,0-2.7,0l-30.3-0.9
						c-43-1.3-77.1-36.6-77.1-79.5v-40.3c0-22.2-0.4-54.6-1.2-96.3c-0.4-21.6-0.6-54.4-0.6-97.8c0-59.8,2-111.3,5.9-152.9
						c3.1-32.5,25.7-59.9,57.1-69c16.5-4.8,34.5-7.9,53.5-9.2c12-0.8,25.5-1,41.5-0.4c18.2,0.7,32.8,2.9,45.5,7
						c8.1-6.2,17.4-10.8,27.7-13.6c20.9-5.6,43.2-9.6,66.1-12c21.1-2.2,42.9-2.2,65-0.3c41,3.7,72.5,38,72.5,79.2V899
						c0,38.9-27.9,71.3-64.9,78.2c-11,3.3-21,4-29.8,4.7c-2,0.1-4.1,0.3-6.3,0.5c-4.2,0.4-11.3,1.1-45.7-1.3
						c-4.4-0.3-10-0.6-16.7-0.9c-1.2,0-2.2-0.1-3.1-0.1c-16,1.4-31.8-2.2-45.5-9.8c-5,2.6-10.3,4.6-15.9,6.1
						c-17.6,4.7-36.7,7.2-56.7,7.3C1485.5,983.6,1485.3,983.6,1485.1,983.6z M1691.6,978.6c0,0-0.1,0-0.1,0
						C1691.5,978.6,1691.5,978.6,1691.6,978.6z M1691.7,978.6C1691.6,978.6,1691.6,978.6,1691.7,978.6
						C1691.6,978.6,1691.6,978.6,1691.7,978.6z M1620.6,976.8C1620.6,976.8,1620.6,976.8,1620.6,976.8
						C1620.6,976.8,1620.6,976.8,1620.6,976.8z M1620.8,976.7C1620.7,976.7,1620.7,976.7,1620.8,976.7
						C1620.7,976.7,1620.7,976.7,1620.8,976.7z M1602.5,734.2c2.6,5.5,5.6,11.5,8.8,18V732c-1.3,0.4-2.6,0.8-3.9,1.1
						C1605.7,733.5,1604.1,733.9,1602.5,734.2z M1494.6,647.4c0,6.3-0.1,12.8-0.1,19.4c0,2.1,0,4.1,0,6.1c3.4-1.2,6.9-2.2,10.6-3
						c0.2,0,0.5-0.1,0.7-0.1C1502.3,662.7,1498.9,655.9,1494.6,647.4z"/>
					<path d="M81.4,1478.6c-19.4,0-38.1-7.1-52.7-20c-16.2-14.4-25.9-34.7-26.8-56.4c-1.3-32.4-1.9-83.2-1.9-151
						c0-63.8,0.1-132.2,0.6-199.8v-79.6c0-35.1,23-66.1,56.7-76.2c42.4-12.7,84.8-19.4,125.9-19.7c60.8-0.6,113.9,12.9,156.9,39.8
						c37.4,23.4,82,70.1,82,159.6c0,27.8-6,56.1-18.1,85.6c4.1,5.4,7.7,10.6,10.9,15.5c15.8,24.5,23.8,52.8,23.8,84.2
						c0,10.6-1,22-2.9,33.8c-0.1,0.8-0.3,1.6-0.4,2.3c-10.9,57.1-42,101.7-89.9,129c-36.2,20.6-81.4,34.7-134.3,42
						c-11.8,1.6-33.3,3.4-85.2,7.6l-38.2,3.1C85.7,1478.5,83.6,1478.6,81.4,1478.6z M172.6,1238.4c-6.7,11.6-6.8,20.7-6.8,20.8
						c0,2.3,0.3,3.6,0.3,3.6l12.6-4.1l2-12.6l-0.7-7.7H172.6z M170.8,1072.9c-0.7,1.8-2.5,7.6-2.5,16.2c0,7.6,1.5,15.3,4.4,22.3
						l8.3-44.8l-0.3-5.3C177.1,1064.2,173.6,1068.1,170.8,1072.9z"/>
					<path d="M398.2,1438.9c-19.6,0-38.7-7.3-53.4-20.5c-16.7-15.1-26.3-36.5-26.3-59c0-5.5,0.5-11.6,1.8-22.6
						c1-8.8,2.5-18.3,4.5-29l13.6-72.1c10.6-58.5,21.1-110.9,31.1-155.2c10.3-45.7,23.7-93.8,40-143.1c9.6-28.9,34.8-49.8,64.9-53.9
						c9.2-1.2,20.2-1.9,33.6-2l3.7,0c24.7-0.2,49.2-1.2,72.9-3c37.6-2.8,71.9,21,82.4,57c5.2,17.8,10,35.5,14.4,52.7
						c4.1,16.2,7.8,30.7,11,43.5c12.9,48.6,21.7,81.1,26.1,97.2c0.4,1.5,0.8,3,1.1,4.6c13.5,62.7,27.1,125.3,40.8,187.9
						c9.2,42.2-16.9,84-58.9,94.2c-17.7,4.3-36.7,7.2-56.5,8.4l0,0c-22.7,1.4-47.4,0.7-73.3-2.2c-8.2-0.9-16.1-3.1-23.5-6.4
						c-8.2,6.2-17.5,10.7-27.5,13.4c-8.6,2.3-18.7,3.9-31.7,5c-3.3,0.3-9.3,0.6-17.8,0.9l-9.9,0.4c-32.5,1.4-51.7,2.9-55.1,3.3
						C403.5,1438.8,400.8,1438.9,398.2,1438.9z"/>
					<path d="M774.1,1416.7c-25.3,0-49.5-12.1-64.6-33.2c-12.5-17.4-15.8-35.7-17.2-48.1c-1.1-9.2-1.3-18.2-0.8-26.9v-23
						c0-0.3,0-0.7,0-1l0.6-47.6c0.1-36.5-0.4-73.2-1.6-109.7c-6.9-0.8-13-2-18.8-3.6c-20.2-5.5-37.4-18.7-47.9-36.7
						c-9-15.4-12-31.5-13.6-50.8c-1-11.8-1.5-25.1-1.5-39.3c0-19,0.2-32.9,0.7-42.4c2.1-42.2,36.9-75.3,79.1-75.5l48.3-0.7
						c0.6,0,1.8,0,2.4,0l69.4-0.7c2.8,0,5.5,0,8.3,0c58.4,0,107.8,1.8,147.2,5.5l4.3,0c41.8,0,76.5,32.4,79.4,74.1
						c0.9,13.7,1.4,26.8,1.4,38.9c0,24.8-1.9,47.8-5.6,68.4c-6.8,37.9-39.6,64.8-76.9,65.4c0.6,46.4,1.6,93.1,2.7,138.6
						c0.4,19.1,0.9,38.1,1.3,57.2c0.8,39.5-27.5,73.6-66.4,80.1c-15.6,2.6-32.9,4.2-52.9,4.7l-17.7,0.5c-16.5,0.5-31.7,2-45.1,4.5
						C783.7,1416.2,778.9,1416.7,774.1,1416.7z M966.6,1060.6c-0.1,0.4-0.1,0.7-0.2,1.1C966.5,1061.4,966.5,1061,966.6,1060.6z
						 M966.7,1060c0,0.2,0,0.4,0,0.7c0.6-3.9,0.9-7.9,0.9-12.1C967.5,1052.4,967.2,1056.2,966.7,1060z M967.5,1048.5
						C967.5,1048.5,967.5,1048.5,967.5,1048.5C967.5,1048.5,967.5,1048.5,967.5,1048.5z"/>
					<path d="M1097.7,1411.9c-25.6,0-49.8-12.3-64.8-33.5c-12.3-17.3-15.6-35.5-17-47.7c-1.1-9.2-1.3-18.3-0.8-26.9v-22.7
						c0-0.3,0-0.7,0-1l0.6-46.9c0.1-36.1-0.4-72.5-1.6-108.5c-7.2-0.9-13.6-2.2-19.6-3.9c-19.6-5.5-36.4-18.4-46.8-35.9
						c-9.3-15.5-12.3-31.6-14-50.9c-1-11.7-1.6-24.7-1.6-38.8c0-18.6,0.2-32.2,0.7-41.7c2.2-42.3,37.1-75.4,79.5-75.4l49.1-0.5
						c0.6,0,1.1,0,1.7,0l34.1,0l35.3-0.5c0.4,0,0.8,0,1.1,0c62.7,0.1,113.3,2.1,154.4,6.2l4.2,0c41.7,0.2,76.2,32.6,79,74.2
						c0.9,13.8,1.4,27,1.4,39.3c0,25-1.9,48.1-5.6,68.9c-6.8,38.1-39.6,65-76.9,65.6c0.6,46.2,1.6,92.8,2.6,138.3
						c0.4,19.1,0.9,38.3,1.3,57.4c0.9,41.1-29.7,76-70.5,80.7c-15.7,1.8-33.1,2.4-53.1,1.9l-17.7-0.4c-16.5-0.3-31.6,0.3-45,2.1
						C1104.5,1411.7,1101.1,1411.9,1097.7,1411.9z M1290.2,1061c-0.1,0.4-0.1,0.7-0.2,1.1C1290.1,1061.8,1290.1,1061.4,1290.2,1061z
						 M1290.3,1060.4c0,0.1,0,0.2,0,0.4c0.6-3.8,0.9-7.7,0.9-11.8C1291.2,1052.8,1290.9,1056.6,1290.3,1060.4z M1290.3,1059.9
						C1290.3,1059.9,1290.3,1059.9,1290.3,1059.9C1290.3,1059.9,1290.3,1059.9,1290.3,1059.9z M1291.2,1048.9
						C1291.2,1048.9,1291.2,1048.9,1291.2,1048.9C1291.2,1048.9,1291.2,1048.9,1291.2,1048.9z"/>
					<path d="M1618.6,1438.2c-5.4,0-11.3-0.3-18-1l-4.3-0.4c-1.5-0.1-2.9-0.3-4.4-0.5l-6.2-0.9l-12.3-0.7c-17.6-1.1-40-2.8-67.8-4.9
						l-46.4-3.4c-37.6-2.7-69.1-4.8-94.5-6.5l-18.1-1.2c-41.8-2.8-74.3-37.5-74.3-79.4V1327c0-1.4,0-2.7,0.1-4.1
						c2.9-55.6,4.3-113.6,4.2-172.5c0-12.5-0.2-37.9-1.2-88.7c0-0.5,0-1,0-1.5V1030c-0.3-5.6-0.6-15.2-0.6-34.1l-0.6-33.9
						c-0.6-35.6,22.4-67.3,56.5-77.6c10.5-3.2,22.6-5.5,37.9-7.3c13.4-1.6,27-2.3,40.5-2.3c14.9,0.1,29.8,1.1,44.5,3
						c17.5,2.3,32.2,5.6,44.9,10.3c32.2,11.8,53.3,43,52.2,77.3c-0.8,24.9-1.2,45-1.2,59.8c0,20.9,0.4,53.3,1.2,96.2
						c0.3,15.2,0.5,35.5,0.6,60.5c3.4,0.3,7,0.7,11.4,1.2c0.8,0.1,1.6,0.2,2.3,0.3c15.9,2.1,30.8,3.7,44.3,4.7
						c8.5,0.6,15.6,1,21.3,0.9c21.3-0.4,41.8,8,56.9,22.9c15.1,14.9,23.7,35.3,23.7,56.6c0,11.5-0.3,19.3-1.1,25.8
						c-0.3,3.7-0.3,5.7-0.3,6.5c0,0.3,0,0.7,0.1,1l0.6,9.8c0.6,6.8,0.8,15.1,0.8,25.3c0,12.8-1,31.9-9.9,50.5
						c-12.6,26.5-37.2,45.1-65.7,49.6C1630.4,1437.8,1624.8,1438.2,1618.6,1438.2z M1709.7,1299.3c0,0.3,0,0.5,0.1,0.8
						C1709.7,1299.8,1709.7,1299.5,1709.7,1299.3z"/>
					<path d="M1961.4,1480.3c-4.1,0-8.2-0.3-12.3-1c-13.8-2.2-38.4-5.7-77-10.3c-0.4,0-0.8-0.1-1.2-0.2
						c-31.8-4.3-47.7-6.3-79.5-10.2c-37.2-4.8-75.2-10.5-113.4-17.1c-39.2-6.7-67.3-41.3-66-81c0.3-9.3,0.1-53.6-1.9-137.3
						c-1.1-45.9-1.9-83.1-1.9-109.4c0-53.3,1.5-103.8,4.5-150c2.7-41.2,36.4-73.6,77.7-74.4l54.2-1.1c62.7-1.7,109.1-2.4,141.6-2
						c29.7,0.3,58.7,1.8,86.3,4.4c35.4,3.3,64.2,29.6,70.8,64.6c2.5,13.5,3.8,28.6,3.8,44.9c0,8.3-0.5,20-1.4,35
						c-0.7,11.8-1.1,20.5-1.1,26c0,38.7-27.8,71.8-65.9,78.4c-6.4,1.1-12.9,2.1-19.6,2.9c1,10.2,1.5,20.8,1.5,31.6c0,0.7,0,1.3,0,2
						l-1.2,47.9c-0.1,2.8-0.3,5.5-0.6,8.2c4.7,0.4,9.6,0.9,15.7,1.5c39.6,3.7,70.3,36.1,72,75.8c1.2,27.9,1.3,33.2,1.3,36.3
						c0,28.3-3.3,54.2-9.8,77C2027.9,1457.2,1996.3,1480.3,1961.4,1480.3z"/>
				</g>
				<g>
					<linearGradient id="SVGID_8_" gradientUnits="userSpaceOnUse" x1="481.1103" y1="903.5988" x2="481.1103" y2="495.1195">
						<stop  offset="0" style="stop-color:#D12228"/>
						<stop  offset="1" style="stop-color:#FFC839"/>
					</linearGradient>
					<path class="st19" d="M610.3,761.6c7.4,11.5,11.1,24.8,11.1,39.9c0,6.1-0.6,12.7-1.9,19.9c-6.6,31.8-23.7,53.5-51.3,65.1
						c-27.6,11.6-63,17.4-106.2,17.2c-12.7-0.1-52.7-2.4-119.6-7.6c-1.2-28.6-1.8-74.3-1.8-137.1c0-61.5,0.1-123,0.6-184.4
						c0-29.7,0-44.5,0-74.2c36.1-5.5,70.9-6.6,104.2-3.4c46.5,4.5,84.6,16.7,114.5,36.8c29.8,20.1,44.8,50.1,44.8,90.8
						c0,26.3-10.5,54.4-31.5,84.7c0-0.2,0-0.3,0-0.5c-0.8,1.4-1.2,2.5-1.2,3.2c0,1.1,1.2,2.8,3.7,5c0,0.2,0,0.3,0,0.5
						C591.4,735.4,602.9,750.1,610.3,761.6z M503.5,767.4c0,0.2,0,0.3,0,0.5c-2.1-4.1-4.9-7.9-8.6-11.3c-3.7-3.4-7.5-5.6-11.1-6.5
						c-6.5-1.6-16.3-3.2-29-4.4c-1.2,0-2.6,0-4,0.1c-1.4,0.1-3,0-4.6-0.5c-4.1,15.4-6.2,28.9-6.2,40.5c0,13.4,2.3,23.9,6.8,31.4
						c14.8,0.7,26.4,0.5,34.9-0.5c8.4-1.1,15.5-4.7,21.3-10.8c2.9-3.6,4.3-9.6,4.3-18C507.2,781.6,506,774.8,503.5,767.4z
						 M483.8,598.8c-6.1-1.5-11.9-1.8-15.4-2.2c-10.4-1.1-18.7-3-24.1-4.5c1.2,6.4,1.9,16.1,1.9,29.1c0,8,0,12,0,20.1
						c0,9.3,0.2,16.5,0.6,21.8c7.2,0.4,10.7,0.6,17.9,1c18.1,1,30.4-3.9,37-14.5c5.3-8.5,8-15.5,8-21c0-3.3-0.8-6.5-2.5-9.5
						C501.1,608.4,492.8,601,483.8,598.8z"/>
					<linearGradient id="SVGID_9_" gradientUnits="userSpaceOnUse" x1="826.3715" y1="910.6769" x2="826.3715" y2="533.7637">
						<stop  offset="0" style="stop-color:#D12228"/>
						<stop  offset="1" style="stop-color:#FFC839"/>
					</linearGradient>
					<path class="st20" d="M970.9,651.6c0,60.1-3.4,117-10.5,170c-3.2,23.9-14.8,44-34.3,60.2c-19.6,16.2-44.9,25.5-75.8,27.9
						c0.2,0,0.4,0,0.6,0c-7.4,0.7-14.2,1-20.4,1c-24.3,0-47.6-3.3-69.9-9.9c-22.3-6.6-40.7-16.7-55.3-30.2
						c-14.6-13.6-22.8-30.6-23.2-49.8c-0.5-25.4,0.4-64.9,1.2-116.8c0.2-13.9,0.4-20.8,0.6-34.7c0.8-37.7,1.2-65.6,1.2-83.7
						c0-23.5-0.2-40.7-0.6-51.8c6.2,0.3,9.3,0.5,15.5,0.8c14.8,0.3,22.3,0.5,37.1,0.7c20.2,0.9,37.9,3.6,53.2,8
						c-1.7,39.3-2.5,69.5-2.5,90.6c0,51,2.7,107.4,8,169.3c0-0.2,0-0.3,0-0.5c2.5,7.1,6.2,12.4,11.1,16.2c5,3.7,10.3,5.6,16.1,5.7
						c6.6,0.1,12.8-2.2,18.6-6.7c5.8-4.5,9.7-10.2,11.8-17.2c0,0.2,0,0.3,0,0.5c1.6-32.1,2.9-83,3.7-152.5
						c0.2-13.4,0.4-20.1,0.6-33.5c0-16.8,0.4-39.8,1.2-69.2c5.2-0.5,7.8-0.7,13-1.2c5.8,0.1,13.7-0.3,23.5-1.1
						c16.7-1.2,27.2-1.2,30.3-1c16.8,1.1,30.1,2.1,37.1,5.7c2,0,3,0,4.9,0C969.8,585.6,970.9,620,970.9,651.6z"/>
					<linearGradient id="SVGID_10_" gradientUnits="userSpaceOnUse" x1="1200.4073" y1="902.9589" x2="1200.4073" y2="521.6438">
						<stop  offset="0" style="stop-color:#D12228"/>
						<stop  offset="1" style="stop-color:#FFC839"/>
					</linearGradient>
					<path class="st21" d="M1335,855.2c10.1,14.8,18.4,29.8,25,45.1c-4,0-5.9,0-9.9,0c-4.9,0-16.1,0.4-33.4,1.2
						c-17.3,0.8-31.1,1.1-41.4,1.2c-5.8,0-14.4-0.3-26-1c-4.2-0.2-6.3-0.3-10.5-0.5c-26.8-51.8-50.7-90.4-71.8-116
						c0,5.4,0,8.2,0,13.6c0,21.6,1.4,49.5,4.3,83.7c0-0.2,0-0.3,0-0.5c0.4,2.4,0.6,6.6,0.6,12.6c-14,5.6-37.1,8.4-69.3,8.5
						c-5.9-0.2-8.9-0.3-14.9-0.5c-13.1,0-19.7,0-32.8,0c-4.5,0-6.8-31.4-6.8-94.3c0-57-0.6-114.1-1.9-171.2
						c-1.2-57.1-3.1-91.5-5.6-102.9c6.7-0.9,10-1.3,16.7-2.2c24.8-2.9,45.2-5.3,61.3-6.9c16.1-1.6,32.6-2.7,49.5-3.1
						c18.1-0.4,33.7-0.1,46.4,0.8c23.8,1.8,46.3,7.9,67.1,18.6c20.8,10.8,37.5,24.4,50.1,40.8c12.6,16.5,18.9,33.8,18.9,51.9
						c0,17.4-6.6,36.7-19.8,57.6c-8.2,13-19.2,23.9-32.8,32.7c-13.6,8.8-29.9,14.2-48.9,16.3c11.1,16.7,24.1,34,39,52.1
						c2.9,4.2,5.2,7,6.8,8.4C1311.6,822.3,1324.9,840.4,1335,855.2z M1219.6,657.5c3.3-5.7,5-12.4,5-20.1c0-14.4-4.1-23.5-12.4-27.5
						c-5.4-2.7-10.8-4.3-16.4-4.9c-5.6-0.6-11.9-0.8-18.9-0.6c-10.6,1.7-16,2.5-26.6,4.1c0.8,10.4,1.2,19.3,1.2,26.7
						c0,18.8,0.5,33.4,1.9,34.5c2.4,1.9,15.7,0.8,26,0.7c9.5-0.2,18.9-0.5,26.6-2C1211.5,667.1,1216.3,663.2,1219.6,657.5z"/>
					<linearGradient id="SVGID_11_" gradientUnits="userSpaceOnUse" x1="1552.9075" y1="904.0753" x2="1552.9075" y2="494.5994">
						<stop  offset="0" style="stop-color:#D12228"/>
						<stop  offset="1" style="stop-color:#FFC839"/>
					</linearGradient>
					<path class="st22" d="M1572.4,851.6c-25.9-50.5-43-84.7-51.2-103.8c0,42.1,0,63.1,0,105.1c0,22.6,0.2,38.2,0.6,46.5
						c-11.1,3-23.3,4.5-36.4,4.5c-4.1,0-10.3-0.4-18.5-1c-9-0.7-15.7-1-19.8-1c-12.1-0.4-18.2-0.6-30.3-0.9c0-16.1,0-24.2,0-40.3
						c0-22.9-0.4-55.6-1.2-97.8c-0.4-21.1-0.6-53.2-0.6-96.2c0-57.7,1.9-106.2,5.6-145.5c11.1-3.2,23.5-5.3,37.1-6.3
						c9.1-0.6,20.1-0.7,33-0.3c13,0.5,21.9,1.9,26.9,4.5c5.8,9,12.9,21.7,21.3,38.1c8.4,16.4,16.6,32.8,24.4,49.2
						c9.9,19.7,14.8,29.5,24.7,49.4c-0.8-25.9-1.2-56.4-1.2-91.5c0-28.5,0.2-48.1,0.6-58.9c16.9-4.5,34.7-7.7,53.6-9.7
						c16-1.6,32.7-1.7,49.9-0.2c0,134.4,0,268.9,0,403.3c-1.2,0-3.8,0.5-7.4,1.8c-4,1.4-12.3,1.5-21.6,2.4
						c-1.9,0.2-12.9-0.1-32.7-1.5c-4.9-0.3-11.2-0.7-18.8-1c-7.6-0.3-12-0.3-13.3,0.1C1587.3,881,1582.3,871.2,1572.4,851.6z"/>
					<linearGradient id="SVGID_12_" gradientUnits="userSpaceOnUse" x1="219.3993" y1="1399.0695" x2="219.3993" y2="955.4526">
						<stop  offset="0" style="stop-color:#42434E"/>
						<stop  offset="1" style="stop-color:#707284"/>
					</linearGradient>
					<path class="st23" d="M348.1,1219.6c7.4,11.4,11.1,25,11.1,41c0,6.4-0.6,13.5-1.8,21.2c-6.6,34.3-23.6,59.1-51.1,74.8
						c-27.5,15.6-62.8,26.4-105.8,32.3c-12.7,1.7-52.5,4.8-119.1,10.2c-1.2-30.6-1.9-79.9-1.8-147.8c0-66.4,0.1-132.9,0.6-199.3
						c0-32.1,0-48.1,0-80.2c36-10.8,70.5-16.1,103.7-16.3c46.3-0.4,84.3,9.1,114.1,27.7c29.7,18.6,44.6,49.1,44.6,92.1
						c0,27.8-10.5,58.4-31.4,92.7c0-0.2,0-0.3,0-0.6c-0.8,1.6-1.2,2.8-1.2,3.5c0,1.2,1.2,2.8,3.7,4.9c0,0.2,0,0.3,0,0.6
						C329.3,1193.9,340.8,1208.2,348.1,1219.6z M241.7,1237.8c0,0.2,0,0.4,0,0.6c-2.1-4.1-4.9-7.8-8.6-11c-3.7-3.2-7.4-5-11.1-5.5
						c-6.5-0.9-16.2-1.4-28.9-1c-1.2,0.1-2.6,0.3-4,0.7c-1.4,0.3-3,0.4-4.6,0.1c-4.1,17.1-6.1,31.8-6.1,44.2
						c0,14.3,2.2,25.3,6.8,32.7c14.7-1.3,26.3-3,34.7-5.3c8.4-2.3,15.5-7,21.2-14.3c2.9-4.2,4.3-10.8,4.3-19.8
						C245.4,1252.5,244.1,1245.4,241.7,1237.8z M222,1060.2c-6.1-0.9-11.8-0.6-15.4-0.6c-10.3,0-18.6-1-24-2c1.2,6.7,1.8,17,1.8,31
						c0,8.6,0,12.9,0,21.5c0,9.9,0.2,17.7,0.6,23.2c7.1-0.4,10.7-0.7,17.8-1.1c18-1.1,30.3-7.8,36.9-19.8c5.3-9.7,8-17.4,8-23.3
						c0-3.5-0.8-6.8-2.5-9.9C239.2,1068.6,230.9,1061.5,222,1060.2z"/>
					<linearGradient id="SVGID_13_" gradientUnits="userSpaceOnUse" x1="540.3474" y1="1359.3384" x2="540.3474" y2="957.7797">
						<stop  offset="0" style="stop-color:#42434E"/>
						<stop  offset="1" style="stop-color:#707284"/>
					</linearGradient>
					<path class="st24" d="M640,1344.7c-18.1,1.2-37.9,0.5-59.3-1.9c-2.9-6.7-7.5-20.8-13.6-42.5c-6.2-22-11.1-36.6-14.8-43.7
						c-4.9,0.1-7.4,0.1-12.3,0.2c-4.2,0.5-6.3,0.7-10.5,1.2c-1.6,4.5-4.5,15.5-8,32.9c-3,14.4-5.8,26.3-8.6,35.5
						c-2.9,9.2-7,17.7-12.3,25.5c-4.1,1.1-10.3,2-18.5,2.7c-3.7,0.3-11.8,0.6-24.1,1.1c-35.5,1.5-55.7,3.2-59.8,3.6
						c0-1.9,0.4-6.3,1.2-13.4c0.8-7,2.1-14.9,3.7-23.7c5.4-28.9,8.1-43.2,13.6-71.9c10.7-58.7,20.9-109.5,30.5-152.6
						c9.7-43,22.3-88.3,37.9-135.6c5.8-0.8,13.6-1.2,23.5-1.3c1.5,0,2.2,0,3.7,0c26.7-0.2,52.9-1.2,78.4-3.2
						c4.9,16.9,9.5,33.6,13.6,49.9c4.1,16.3,7.8,30.9,11.1,43.8c13.2,49.7,22,82.5,26.6,98.8c13.5,62.7,27.1,125.4,40.8,188.1
						C669.4,1341.6,655.2,1343.7,640,1344.7z M540.6,1078.2c-0.2-2.2-0.4-3.3-0.6-5.4c-0.5,5.3-0.7,7.9-1.2,13.1
						c-1.2,27.4-3.1,49.1-5.6,65.3c-2.2,14.8-3.3,22.1-5.6,36.9c10.4-0.5,15.6-0.8,25.9-1.3C544.5,1114.6,540.1,1078.2,540.6,1078.2
						z"/>
					<linearGradient id="SVGID_14_" gradientUnits="userSpaceOnUse" x1="828.9249" y1="1337.0869" x2="828.9249" y2="956.9364">
						<stop  offset="0" style="stop-color:#42434E"/>
						<stop  offset="1" style="stop-color:#707284"/>
					</linearGradient>
					<path class="st25" d="M969.6,995.8c0,20.2-1.5,38.2-4.3,54.2c-13.6-2-24.3-3-32.2-3c-11.6-0.2-17.5-0.2-29.1-0.4
						c-10.7,0.1-16.1,0.6-16.1,1.7c-0.8,4.9-1.3,15.2-1.2,30.9c0.2,82.4,2.6,165.3,4.3,247.9c-12,2-26,3.2-42.1,3.7
						c-7.2,0.2-10.8,0.3-17.9,0.5c-20.6,0.7-39.6,2.6-56.9,5.8c-1.2-1.7-2.2-5.3-2.8-10.7c-0.6-5.4-0.7-10.4-0.3-15
						c0-10.4,0-15.5,0-25.9c0.2-19,0.4-28.5,0.6-47.5c0.2-62.4-1.4-125.1-4.9-187.4c-4.5-1.7-10.9-2.5-19.2-2.4
						c-9.9,0.3-14.8,0.5-24.7,0.9c-14,0.2-24.1-0.5-30.3-2.2c-1.2-2.1-2.3-8-3.1-17.5c-0.8-9.6-1.2-20.4-1.2-32.5
						c0-17.8,0.2-30.6,0.6-38.4c10.6,0,15.9-0.1,26.6-0.1c9.6-0.2,14.5-0.4,24.1-0.6c13.8,0,20.8-0.1,34.6-0.1
						c14.3-0.3,21.5-0.4,35.9-0.6c61.4-0.2,111.6,1.7,150.3,5.5c3.2,0,4.8,0,8,0C969.2,974.3,969.6,985.4,969.6,995.8z"/>
					<linearGradient id="SVGID_15_" gradientUnits="userSpaceOnUse" x1="1152.4836" y1="1332.3807" x2="1152.4836" y2="956.7476">
						<stop  offset="0" style="stop-color:#42434E"/>
						<stop  offset="1" style="stop-color:#707284"/>
					</linearGradient>
					<path class="st26" d="M1293.2,996.8c0,20.5-1.4,38.8-4.3,54.9c-13.6-2.3-24.3-3.5-32.2-3.6c-11.6-0.3-17.4-0.5-29.1-0.8
						c-10.7-0.1-16.1,0.4-16.1,1.4c-0.8,4.9-1.3,15.3-1.2,31c0.2,82.7,2.6,166,4.3,248.9c-12,1.4-26,1.8-42.1,1.5
						c-7.2-0.2-10.8-0.3-17.9-0.4c-20.6-0.4-39.6,0.5-56.9,2.7c-1.2-1.8-2.2-5.3-2.8-10.7c-0.6-5.4-0.7-10.4-0.3-14.9
						c0-10.2,0-15.3,0-25.6c0.2-18.8,0.4-28.2,0.6-46.9c0.2-61.7-1.4-123.7-5-185.2c-4.5-1.7-10.9-2.6-19.2-2.7
						c-9.9,0.2-14.9,0.3-24.8,0.5c-14,0-24.1-0.9-30.3-2.6c-1.2-2.1-2.3-7.8-3.1-17.2c-0.8-9.4-1.2-20-1.2-31.8
						c0-17.4,0.2-29.9,0.6-37.5c10.6,0,16,0,26.6,0c9.7-0.2,14.5-0.3,24.1-0.5c13.9,0,20.8,0,34.7,0c14.4-0.2,21.5-0.3,35.9-0.5
						c61.5,0.1,111.6,2.1,150.3,6.1c3.2,0,4.8,0,8,0C1292.8,974.9,1293.2,986.2,1293.2,996.8z"/>
					<linearGradient id="SVGID_16_" gradientUnits="userSpaceOnUse" x1="1491.8179" y1="1358.6259" x2="1491.8179" y2="954.3205">
						<stop  offset="0" style="stop-color:#42434E"/>
						<stop  offset="1" style="stop-color:#707284"/>
					</linearGradient>
					<path class="st27" d="M1631.7,1336.8c0,7.9-0.7,13.3-2.2,16.3c-1.4,3-3.6,4.8-6.5,5.2c-2.9,0.5-7.8,0.3-14.8-0.3
						c-1.7-0.2-2.6-0.2-4.3-0.4c-3.9-0.6-5.9-0.9-9.9-1.5c-6.4-0.4-9.6-0.6-16-0.9c-25.5-1.6-63.1-4.6-113-8.2
						c-47.4-3.5-85.1-5.9-113.1-7.7c0-4.9,0-7.4,0-12.3c3.1-58.8,4.4-118,4.3-176.7c0-17.4-0.4-47.4-1.2-90.1c0-5.1,0-7.7,0-12.8
						c0-7.9,0-11.8,0-19.7c-0.4-6-0.6-16.9-0.6-32.5c-0.2-13.9-0.4-20.8-0.6-34.6c5.8-1.7,13.8-3.2,24.1-4.4
						c10.3-1.2,20.6-1.8,30.9-1.8c11.5,0,23.1,0.8,34.6,2.3c11.5,1.5,20.8,3.5,27.8,6.1c-0.8,26-1.2,46.8-1.2,62.4
						c0,21.7,0.4,54.3,1.2,97.7c0.4,21.7,0.6,53.7,0.6,96.1c0,14.1,0,21.2,0,35.3c13.6,0.8,30.3,2.3,50,4.7
						c13.1,1.3,19.6,1.9,32.7,3.3c17.3,2.3,33.5,4,48.7,5.2c10.7,0.8,20.1,1.2,28.4,1.1c0,8.6-0.2,14.2-0.6,16.8c0-0.2,0-0.3,0-0.6
						c-0.8,10-1,17.3-0.6,21.8c0.2,4.3,0.4,6.4,0.6,10.7C1631.4,1321.6,1631.7,1328.2,1631.7,1336.8z"/>
					<linearGradient id="SVGID_17_" gradientUnits="userSpaceOnUse" x1="1827.8849" y1="1400.7731" x2="1827.8849" y2="965.7613">
						<stop  offset="0" style="stop-color:#42434E"/>
						<stop  offset="1" style="stop-color:#707284"/>
					</linearGradient>
					<path class="st28" d="M1961.3,1400.8c-18-2.8-44.6-6.5-79.8-10.7c-32.2-4.3-48.3-6.4-80.5-10.3c-36.5-4.7-73-10.3-109.6-16.5
						c0.4-12.1,0.1-59.7-1.8-141.8c-1.1-46.6-1.8-82.6-1.8-107.6c0-51.9,1.4-100.2,4.3-144.9c21.7-0.5,32.5-0.7,54.2-1.1
						c60.7-1.7,107-2.3,138.9-2c27.4,0.3,54,1.7,79.8,4.1c1.6,8.6,2.5,18.7,2.5,30.3c0,6.2-0.4,16.3-1.2,30.2
						c-0.8,13.1-1.2,23.4-1.2,30.8c-24.5,4.3-51.9,5.6-82.2,4.4c-31.9-1.1-47.9-1.6-79.9-2.6c-2.1,18.3-3.1,33.5-3.1,45.6
						c0,9.4,1.2,17.6,3.7,24.8c16.2-0.9,24.3-1.4,40.6-2.3c5.7,0.3,14.3,1.3,25.8,2.8c3.2,0.4,4.8,0.7,8,1.1
						c2,12.1,3.1,25.2,3.1,39.2c-0.5,19.2-0.7,28.7-1.2,47.9c-13.1,2.4-30.7,2.6-52.8,0.7c-6.4-0.8-9.6-1.2-16-2
						c-2.9-0.2-4.7,0-5.5,0.7c-1,12.1-1.5,18.2-2.5,30.3c0,16,0.8,29.4,2.5,40.1c21.3,2.2,42,5.1,62.1,8.5c7,1.2,15.6,2.6,25.8,4.2
						c10.2,1.6,22.3,3.2,36.2,4.9c15,1.3,22.5,2,37.4,3.4c0.8,19,1.2,30,1.2,32.9C1968,1366.7,1965.8,1385.1,1961.3,1400.8z"/>
				</g>
				<path class="st29" d="M483.2,500.2c0,0,147.9,47.5,88.8,211.7c0,0,96,125.8-49,187s106.6-20.2,106.6-20.2V525l-140-32.2
					L483.2,500.2z"/>
				<path class="st29" d="M956.9,546.5c0,0,5.9,119,0.7,194.5c-5.2,75.5-7.8,104.7-26,136c-18.2,31.2,19.5,14.3,33.2-53.3
					s7.2-283,7.2-283L956.9,546.5z"/>
				<path class="st29" d="M778.7,536.7c0,0-11.4,210.3,17.1,266.5s0.5-267.8,0.5-267.8L778.7,536.7z"/>
				<path class="st29" d="M1249.3,740.5c0,0,85.6-27.3,85.6-100.2s-92.1-113.8-92.1-113.8s33.9,5.1,50.5,7
					c16.6,1.9,94.6,58.8,54.4,149C1307.4,772.7,1249.3,740.5,1249.3,740.5z"/>
				<path class="st29" d="M1167,785.1h-8c0,0,3.2,99.5,5.1,116.7c1.9,17.3,12.2-10.9,12.2-10.9L1167,785.1z"/>
				<path class="st29" d="M1150.3,608.5l-7.3,0.8c0,0,0.5,43.8,4.5,59.8l5.9,0.6l1.6-39.6L1150.3,608.5z"/>
				<path class="st29" d="M1249.3,740.5h-11.7c0,0,91.8,121.2,112,164.6c16.1-3.3,16.1-3.3,16.1-3.3L1302.1,798L1249.3,740.5z"/>
				<polygon class="st29" points="1682.4,493 1683.5,907.3 1695.3,900.9 1694.8,490.3 				"/>
				<polygon class="st29" points="1504.6,514 1577.6,653.7 1587.9,656 1519.6,512.4 				"/>
				<polygon class="st29" points="1521.2,747.8 1514.2,735.9 1514.2,905.2 1528.7,903 				"/>
				<polygon class="st30" points="865.1,545.3 853.3,800.6 858.9,545.9 				"/>
				<polygon class="st30" points="694.7,534.3 681.8,810.8 684.5,533.8 				"/>
				<polygon class="st30" points="350.6,498.5 342.6,896 341.4,500.3 				"/>
				<polygon class="st29" points="444.3,592.1 440.2,591 442.1,662.8 446.8,663 448.3,608.1 				"/>
				<path class="st29" d="M446.1,745.4l-7.2-0.3c0,0-5.9,26.8-4.1,44.9c1.9,18.1,5.1,26.8,5.1,26.8l6.8,0.4L446.1,745.4z"/>
				<path class="st30" d="M1048.1,533.4l6.9,369.1c0,0-6.2-7-6.8-75.4s-1.2-76.7-1.4-165.1s-6-128-6-128L1048.1,533.4z"/>
				<polygon class="st30" points="1593,504.1 1587.9,656 1587.3,505.5 				"/>
				<path class="st2" d="M1429.5,518.5l-12.7,292.1c0,0-2-108.3-1.7-166.4c0.3-58.1,5.4-122.9,5.4-122.9L1429.5,518.5z"/>
				<path class="st30" d="M1198.7,605.2c18,2.2,30.2,9.1,30.2,30.9c0,21.8-12,28.6-21.6,31.9c0,0,17.3-3.4,17.3-33.6
					C1224.6,611.2,1198.7,605.2,1198.7,605.2z"/>
				<path class="st30" d="M482.1,598.4c17.6,2.4,31.8,11.5,31.1,33.1c-0.7,21.6-28.3,30.3-28.3,30.3s15-4.2,22-22.1
					c7-18-0.7-22.6-8.1-31.4C491.5,599.5,482.1,598.4,482.1,598.4z"/>
				<path class="st30" d="M482.1,749.7c17.4,4,27.2,15.3,29.2,33.3c2,18.1-4.5,26.5-22.7,32c0,0,19.1-3.5,18.6-25.5
					c-0.5-22.1-4.6-25.1-12.2-32.9C487.2,748.9,482.1,749.7,482.1,749.7z"/>
				<path class="st30" d="M1167,785.1c0,0,40.8,40.4,82.3,116.5l-10.5-0.5l-31.5-57.5l-22.1-34.1L1167,785.1z"/>
				<polygon class="st30" points="1521.2,747.8 1607.8,900.1 1597.1,900.7 				"/>
				<polygon class="st31" points="81.4,1399.1 94.4,967.7 80.2,971.8 				"/>
				<path class="st31" d="M398.1,1359.3l95-398l-8,0.9c0,0-26.1,82.7-34.4,121.5c-8.3,38.8-19.3,87.4-29,139
					S400.6,1333.6,398.1,1359.3z"/>
				<path class="st31" d="M692.5,1046.8c0,0-3.5-54.5,3.4-88.4l-7.1,0C688.8,958.4,685.8,1025.5,692.5,1046.8z"/>
				<path class="st31" d="M766.7,1050.6c0,0,10.1,33,9.7,131.5c-0.4,98.6-7.1,95.3-2.3,155c0,0-4.7-10.5-3.2-36.8
					c0,0-0.5-22.7,0.6-54.1c1.1-31.4-0.6-99.3-1.5-126.9C769.1,1091.6,766.7,1050.6,766.7,1050.6z"/>
				<path class="st31" d="M552.3,1256.6l2.1-0.2c0,0,20.8,53.5,29.7,86.6l-3.3-0.2c0,0-9.9-28.1-17.2-54.7
					C556.3,1261.4,552.3,1256.6,552.3,1256.6z"/>
				<polygon class="st31" points="539.9,1072.8 556.1,1186.6 553.5,1186.8 				"/>
				<path class="st31" d="M1018.3,957.6c0,0-6.2,58-2.2,86.6c0,0-6.6-18.2-3.7-86.5L1018.3,957.6z"/>
				<path class="st31" d="M1094.7,1306.8c7.4-98.1-1-256.6-1-256.6l-3.3-1.2c0,0,3.6,62.1,4.2,107.8c0.6,45.7,1,87.5,0,115.4
					C1093.5,1300.1,1094.7,1306.8,1094.7,1306.8z"/>
				<path class="st31" d="M1353.8,1281c11.2-119.9,4.5-321.8,4.5-321.8l-4.4,1.4l0.6,44.9l0.6,42l0.6,54.1l0.5,48l-0.1,49.2
					l-0.7,44.4L1353.8,1281z"/>
				<path class="st31" d="M1698.4,968.6c0,0-4.6,69.6-4.6,215.1s-2.4,179.5-2.4,179.5s-1.6-96.4-2.6-150.2
					c-1-53.9-1.7-115.5,0-173.3c1.7-57.8,3.2-70.7,3.2-70.7L1698.4,968.6z"/>
				<path class="st31" d="M222,1060.2c21.4,3.2,32.5,18.6,28,32.3c-4.5,13.8-10.6,23.4-17.9,29.3c0,0,8.7-7.6,14-23.8
					s-4.3-24.1-8.4-28.9C233.6,1064.4,222,1060.2,222,1060.2z"/>
				<path class="st31" d="M226.5,1290.6c20.2-9.3,21.9-14.5,21-36.8c-0.9-22.3-14.4-30.5-26.9-32.1c0,0,12.9-1,21.2,16.7
					c3.2,7,5.1,21.4,2.7,31.9s-7.1,12.7-10.3,15.6C230.9,1288.8,226.5,1290.6,226.5,1290.6z"/>
				<polygon class="st29" points="182.7,1057.6 177.6,1057 180.5,1132.9 185.1,1133.2 189.2,1103.4 				"/>
				<path class="st29" d="M184.5,1221.6l-4.5-0.3c0,0-5.3,18-5.3,41.6c0,23.6,6.6,34.9,6.6,34.9l3.8,0.8l3.1-51.1L184.5,1221.6z"/>
				<path class="st29" d="M252.3,963.6c56.5,36.9,113.7,74.1,57.7,207.4c0,0,108.9,129.9-43.2,202.6c0,0,87.2-8.9,92.3-106.8
					c5-97.9-5.6-201.9-29.1-253.3C306.5,962,252.3,963.6,252.3,963.6z"/>
				<path class="st29" d="M539.9,1072.8l-1-0.2c0,0-2,36.9-5.7,58.5c-3.7,21.6-9.3,57-9.3,57l3.7,0l9.9-56.3L539.9,1072.8z"/>
				<path class="st29" d="M500.4,1351.9l-6.9,1.3c0,0,14.4-16.4,31-95.5l4.8,0.4l-12.1,55.2l-7.9,28.2L500.4,1351.9z"/>
				<polygon class="st29" points="590.6,957.8 582.8,958.4 676.1,1339 682.6,1338.4 608.9,1000.6 				"/>
				<path class="st29" d="M968.4,962.4l-6.1,0c0,0,4.4,13.4,1.6,48.2c-2.8,34.8-3.6,39-3.6,39l5,0.4c0,0,4.1-17.6,4.6-49.2
					C970.4,969.2,968.4,962.4,968.4,962.4z"/>
				<path class="st29" d="M888,1048.3l-3.4,0.3c0,0-1,16.5-0.4,72.1c0.6,55.6,2.2,118.9,2.2,144.2c0,25.3,0.6,62.9,0.6,62.9l4-0.8
					L888,1048.3z"/>
				<path class="st29" d="M1292,962.4l-6.1,0c0,0,4.4,13.9,1.6,50.2c-2.8,36.3-3.6,40.7-3.6,40.7l5,0.4c0,0,4.1-18.3,4.6-51.3
					C1294,969.5,1292,962.4,1292,962.4z"/>
				<path class="st29" d="M1632.1,1268.2l-6.1,0c0,0,4.4,13.9,1.6,50.2c-2.8,36.3-3.6,40.7-3.6,40.7l5,0.4c0,0,4.1-18.3,4.6-51.3
					C1634,1275.2,1632.1,1268.2,1632.1,1268.2z"/>
				<path class="st29" d="M1211.6,1048.3l-3.4,0.3c0,0-1,16.7-0.4,72.6c0.6,56,2.2,119.8,2.2,145.3s0.6,63.4,0.6,63.4l4-0.8
					L1211.6,1048.3z"/>
				<path class="st29" d="M1470.9,960.6l-4,0.3c0,0-1.2,17.4-0.5,75.8c0.7,58.4,2.7,125,2.7,151.7c0,26.6,0.7,66.2,0.7,66.2l4.8-0.9
					L1470.9,960.6z"/>
				<path class="st29" d="M1881.3,1132.4l-8.1,0.2c0,0,6.3,14.1,3.5,51.4c-2.8,37.3-3.7,41.8-3.7,41.8l6.7,0.3c0,0,5-18.9,4.7-52.7
					C1884.1,1139.6,1881.3,1132.4,1881.3,1132.4z"/>
				<path class="st29" d="M1967.6,969.1l-8.1,0.2c0,0,6.3,14.1,3.5,51.4c-2.8,37.3-3.7,41.8-3.7,41.8l6.7,0.3c0,0,5-18.9,4.7-52.7
					C1970.4,976.2,1967.6,969.1,1967.6,969.1z"/>
				<path class="st29" d="M1967.6,1309.7l-8.1,0.2c0,0,6.3,14.1,3.5,51.4c-2.8,37.3-3.7,41.8-3.7,41.8l6.7,0.3c0,0,5-18.9,4.7-52.7
					C1970.4,1316.9,1967.6,1309.7,1967.6,1309.7z"/>
				<path class="st29" d="M1803.2,1063.3h-4.3c0,0-8.6,39.4,0.3,70.3l4.6,0.1L1803.2,1063.3z"/>
				<path class="st29" d="M1806.9,1221.8h-4.3c0,0-8.6,39.4,0.3,70.3l4.6,0.1L1806.9,1221.8z"/>
				<circle class="st29" cx="498.4" cy="530.6" r="4.7"/>
				<circle class="st29" cx="602.3" cy="332.7" r="4.7"/>
				<circle class="st29" cx="403.8" cy="138" r="4.7"/>
				<circle class="st29" cx="880" cy="561.5" r="4.7"/>
				<circle class="st29" cx="773.3" cy="667.6" r="4.7"/>
				<circle class="st29" cx="1087.2" cy="574.5" r="4.7"/>
				<circle class="st29" cx="1378.7" cy="398.3" r="4.7"/>
				<circle class="st29" cx="1528.9" cy="102.4" r="4.7"/>
				<circle class="st29" cx="499.5" cy="544.1" r="2.9"/>
				<circle class="st29" cx="582.6" cy="245.7" r="2.9"/>
				<circle class="st29" cx="535.8" cy="423.1" r="2.9"/>
				<circle class="st29" cx="872" cy="806.4" r="2.9"/>
				<circle class="st29" cx="1105.6" cy="672.3" r="2.9"/>
				<circle class="st29" cx="1648" cy="574.5" r="2.9"/>
				<circle class="st29" cx="1474.6" cy="851.5" r="2.9"/>
				<circle class="st29" cx="725.8" cy="842.3" r="2.9"/>
				<circle class="st29" cx="766.2" cy="684.9" r="2.9"/>
				<circle class="st29" cx="1262.5" cy="689.8" r="2.9"/>
				<circle class="st29" cx="1434.5" cy="311.3" r="2.9"/>
				<circle class="st29" cx="1491.6" cy="355" r="2.9"/>
				<circle class="st29" cx="434.1" cy="698.3" r="2.9"/>
				<circle class="st29" cx="506.7" cy="299.5" r="2.9"/>
				<circle class="st29" cx="494.6" cy="114.6" r="2.9"/>
				<circle class="st29" cx="1443.6" cy="670.4" r="2.9"/>
				<circle class="st29" cx="1459.7" cy="218.4" r="2.9"/>
				<circle class="st29" cx="1599.2" cy="152.8" r="2.9"/>
				<circle class="st29" cx="476.6" cy="189.8" r="2.9"/>
				<circle class="st29" cx="1199.5" cy="557.1" r="2.9"/>
				<circle class="st29" cx="1559.8" cy="699.5" r="2.9"/>
				<circle class="st29" cx="1533.8" cy="319.2" r="2.9"/>
				<circle class="st29" cx="1073.6" cy="863.1" r="2.9"/>
				<circle class="st29" cx="364.7" cy="861.3" r="2.9"/>
				<circle class="st29" cx="506" cy="537.5" r="1.3"/>
				<circle class="st29" cx="661.5" cy="416.9" r="1.3"/>
				<circle class="st29" cx="947.4" cy="715.1" r="1.3"/>
				<circle class="st29" cx="726.4" cy="580.2" r="1.3"/>
				<circle class="st29" cx="1285.1" cy="614.2" r="1.3"/>
				<circle class="st29" cx="1611.2" cy="814.7" r="1.3"/>
				<circle class="st29" cx="1493.4" cy="569.7" r="1.3"/>
				<circle class="st29" cx="1454" cy="420.3" r="1.3"/>
				<circle class="st29" cx="558.7" cy="670.1" r="1.3"/>
				<polygon class="st29" points="386,547 385.2,627.1 388.6,574.3 				"/>
				<polygon class="st29" points="922.6,612.2 884.7,611.3 909.7,614.8 				"/>
				<polygon class="st29" points="513.7,716.1 475.8,715.2 500.8,718.7 				"/>
				<polygon class="st29" points="798.9,851.5 791.8,873.8 801.8,860.9 				"/>
				<polygon class="st29" points="709.1,755.7 708.2,720.6 706.2,646.5 712.1,707 				"/>
				<polygon class="st29" points="1096.9,815.7 1104.2,781.3 1119.7,708.9 1111.2,769 				"/>
				<polygon class="st29" points="1507.9,258.8 1522.8,226.9 1554,159.8 1532.3,216.5 				"/>
				<polygon class="st29" points="1426.5,886.8 1502.2,886.2 1454.7,890.3 				"/>
				<polygon class="st29" points="1134.5,577.5 1210.2,576.9 1162.7,581 				"/>
				<polygon class="st29" points="906.4,817.2 907.6,738.6 908.8,824.3 				"/>
				<polygon class="st29" points="1247.6,853.5 1252.9,844.7 1268.7,818.3 1257.6,847.1 				"/>
				<polygon class="st29" points="400.7,876.2 405.9,867.4 421.8,841 410.6,869.8 				"/>
				<polygon class="st29" points="1644.2,667 1645.4,851.3 1648.3,703.4 				"/>
				<polygon class="st29" points="1478.6,655.6 1476.3,762.4 1472.8,670.9 				"/>
				<polygon class="st32" points="124.7,1147.4 98.7,1117.7 89.4,1085.4 80.5,1075.2 80.5,1067 91.8,1081 101.9,1113.9 				"/>
				<g>
					<g>
						<polygon class="st33" points="137.3,1009 152.9,1000.9 167.2,1006 185.2,1002.2 167.8,1010.2 153.1,1005.8 						"/>
						<linearGradient id="SVGID_18_" gradientUnits="userSpaceOnUse" x1="137.2612" y1="1007.0283" x2="185.2162" y2="1007.0283">
							<stop  offset="0" style="stop-color:#6E7082"/>
							<stop  offset="1" style="stop-color:#707284"/>
						</linearGradient>
						<polygon class="st34" points="137.3,1009 153.1,1005.8 167.8,1010.2 185.2,1002.2 168.1,1011.9 152.9,1007.6 						"/>
					</g>
					<g>
						<polygon points="311.9,1253.1 315.7,1261.6 312.5,1269 314,1278.7 310.3,1269.2 313.1,1261.6 						"/>
						
							<linearGradient id="SVGID_19_" gradientUnits="userSpaceOnUse" x1="836.611" y1="1076.2526" x2="862.001" y2="1076.2526" gradientTransform="matrix(-5.935235e-02 0.9982 -0.9982 -5.935235e-02 1436.932 481.9278)">
							<stop  offset="0" style="stop-color:#6E7082"/>
							<stop  offset="1" style="stop-color:#707284"/>
						</linearGradient>
						<polygon class="st35" points="311.9,1253.1 313.1,1261.6 310.3,1269.2 314,1278.7 309.4,1269.4 312.2,1261.4 						"/>
					</g>
					<g>
						<polygon points="803.8,1093.2 807.6,1101.7 804.4,1109.1 805.9,1118.7 802.2,1109.3 805,1101.6 						"/>
						
							<linearGradient id="SVGID_20_" gradientUnits="userSpaceOnUse" x1="647.7321" y1="594.7066" x2="673.1221" y2="594.7066" gradientTransform="matrix(-5.935235e-02 0.9982 -0.9982 -5.935235e-02 1436.932 481.9278)">
							<stop  offset="0" style="stop-color:#6E7082"/>
							<stop  offset="1" style="stop-color:#707284"/>
						</linearGradient>
						<polygon class="st36" points="803.8,1093.2 805,1101.6 802.2,1109.3 805.9,1118.7 801.3,1109.4 804.1,1101.5 						"/>
					</g>
					<g>
						<polygon points="1203,1002.3 1219.8,998.6 1231.9,1007 1249.9,1008 1231.5,1011.2 1218.7,1003.2 						"/>
						
							<linearGradient id="SVGID_21_" gradientUnits="userSpaceOnUse" x1="1084.8022" y1="765.0886" x2="1131.5798" y2="765.0886" gradientTransform="matrix(0.9656 0.2601 -0.2601 0.9656 355.0302 -20.5089)">
							<stop  offset="0" style="stop-color:#6E7082"/>
							<stop  offset="1" style="stop-color:#707284"/>
						</linearGradient>
						<polygon class="st37" points="1203,1002.3 1218.7,1003.2 1231.5,1011.2 1249.9,1008 1231.3,1012.8 1218.1,1004.9 						"/>
					</g>
					<g>
						<polygon points="1863.6,1345.2 1880.4,1341.5 1892.6,1350 1910.5,1351 1892.1,1354.1 1879.4,1346.2 						"/>
						
							<linearGradient id="SVGID_22_" gradientUnits="userSpaceOnUse" x1="1811.925" y1="924.3828" x2="1858.7028" y2="924.3828" gradientTransform="matrix(0.9656 0.2601 -0.2601 0.9656 355.0302 -20.5089)">
							<stop  offset="0" style="stop-color:#6E7082"/>
							<stop  offset="1" style="stop-color:#707284"/>
						</linearGradient>
						<polygon class="st38" points="1863.6,1345.2 1879.4,1346.2 1892.1,1354.1 1910.5,1351 1892,1355.8 1878.7,1347.8 						"/>
					</g>
					<g>
						<polygon points="1389.8,1286.6 1396.5,1270.7 1410.4,1265.7 1421.7,1251.6 1413.6,1268.5 1399.7,1274.3 						"/>
						
							<linearGradient id="SVGID_23_" gradientUnits="userSpaceOnUse" x1="859.0723" y1="1625.6095" x2="905.85" y2="1625.6095" gradientTransform="matrix(0.7708 -0.6371 0.6371 0.7708 -309.2589 579.467)">
							<stop  offset="0" style="stop-color:#6E7082"/>
							<stop  offset="1" style="stop-color:#707284"/>
						</linearGradient>
						<polygon class="st39" points="1389.8,1286.6 1399.7,1274.3 1413.6,1268.5 1421.7,1251.6 1414.8,1269.5 1400.7,1275.7 						
							"/>
					</g>
					<g>
						<polygon points="1758.1,1030.5 1764.8,1014.6 1778.7,1009.6 1789.9,995.6 1781.8,1012.4 1768,1018.2 						"/>
						
							<linearGradient id="SVGID_24_" gradientUnits="userSpaceOnUse" x1="1306.0621" y1="1662.8691" x2="1352.8398" y2="1662.8691" gradientTransform="matrix(0.7708 -0.6371 0.6371 0.7708 -309.2589 579.467)">
							<stop  offset="0" style="stop-color:#6E7082"/>
							<stop  offset="1" style="stop-color:#707284"/>
						</linearGradient>
						<polygon class="st40" points="1758.1,1030.5 1768,1018.2 1781.8,1012.4 1789.9,995.6 1783.1,1013.4 1768.9,1019.7 						"/>
					</g>
					<g>
						<polygon points="1188.8,1285 1192.6,1293.5 1189.4,1300.9 1190.9,1310.6 1187.2,1301.1 1190,1293.5 						"/>
						
							<linearGradient id="SVGID_25_" gradientUnits="userSpaceOnUse" x1="816.3925" y1="199.0077" x2="841.7826" y2="199.0077" gradientTransform="matrix(-5.935235e-02 0.9982 -0.9982 -5.935235e-02 1436.932 481.9278)">
							<stop  offset="0" style="stop-color:#6E7082"/>
							<stop  offset="1" style="stop-color:#707284"/>
						</linearGradient>
						<polygon class="st41" points="1188.8,1285 1190,1293.5 1187.2,1301.1 1190.9,1310.6 1186.3,1301.2 1189.1,1293.3 						"/>
					</g>
					<g>
						<polygon points="1765.7,1196.3 1769.5,1204.8 1766.4,1212.2 1767.8,1221.8 1764.1,1212.4 1766.9,1204.7 						"/>
						
							<linearGradient id="SVGID_26_" gradientUnits="userSpaceOnUse" x1="693.5714" y1="-371.6601" x2="718.9615" y2="-371.6601" gradientTransform="matrix(-5.935235e-02 0.9982 -0.9982 -5.935235e-02 1436.932 481.9278)">
							<stop  offset="0" style="stop-color:#6E7082"/>
							<stop  offset="1" style="stop-color:#707284"/>
						</linearGradient>
						<polygon class="st42" points="1765.7,1196.3 1766.9,1204.7 1764.1,1212.4 1767.8,1221.8 1763.2,1212.5 1766,1204.6 						"/>
					</g>
					<g>
						<polygon points="583.4,1119 587.3,1127.5 584.1,1134.9 585.5,1144.6 581.8,1135.1 584.7,1127.5 						"/>
						
							<linearGradient id="SVGID_27_" gradientUnits="userSpaceOnUse" x1="686.6115" y1="813.1336" x2="712.0015" y2="813.1336" gradientTransform="matrix(-5.935235e-02 0.9982 -0.9982 -5.935235e-02 1436.932 481.9278)">
							<stop  offset="0" style="stop-color:#6E7082"/>
							<stop  offset="1" style="stop-color:#707284"/>
						</linearGradient>
						<polygon class="st43" points="583.4,1119 584.7,1127.5 581.8,1135.1 585.5,1144.6 581,1135.2 583.7,1127.3 						"/>
					</g>
					<g>
						<polygon points="624.3,1329.9 630.5,1316.3 642.6,1312.3 652.7,1300.3 645.3,1314.8 633.2,1319.5 						"/>
						
							<linearGradient id="SVGID_28_" gradientUnits="userSpaceOnUse" x1="327.3086" y1="1256.8655" x2="367.8642" y2="1256.8655" gradientTransform="matrix(0.787 -0.617 0.617 0.787 -409.7668 541.4143)">
							<stop  offset="0" style="stop-color:#6E7082"/>
							<stop  offset="1" style="stop-color:#707284"/>
						</linearGradient>
						<polygon class="st44" points="624.3,1329.9 633.2,1319.5 645.3,1314.8 652.7,1300.3 646.4,1315.7 634,1320.8 						"/>
					</g>
					<g>
						<polygon points="1079.6,1007.8 1085.7,994.2 1097.9,990.1 1107.9,978.2 1100.6,992.6 1088.4,997.3 						"/>
						
							<linearGradient id="SVGID_29_" gradientUnits="userSpaceOnUse" x1="884.3475" y1="1284.238" x2="924.9031" y2="1284.238" gradientTransform="matrix(0.787 -0.617 0.617 0.787 -409.7668 541.4143)">
							<stop  offset="0" style="stop-color:#6E7082"/>
							<stop  offset="1" style="stop-color:#707284"/>
						</linearGradient>
						<polygon class="st45" points="1079.6,1007.8 1088.4,997.3 1100.6,992.6 1107.9,978.2 1101.6,993.5 1089.2,998.6 						"/>
					</g>
					<g>
						<polygon points="835,1308.7 841.1,1295.1 853.3,1291.1 863.3,1279.1 855.9,1293.5 843.8,1298.2 						"/>
						
							<linearGradient id="SVGID_30_" gradientUnits="userSpaceOnUse" x1="506.1815" y1="1370.1267" x2="546.7371" y2="1370.1267" gradientTransform="matrix(0.787 -0.617 0.617 0.787 -409.7668 541.4143)">
							<stop  offset="0" style="stop-color:#6E7082"/>
							<stop  offset="1" style="stop-color:#707284"/>
						</linearGradient>
						<polygon class="st46" points="835,1308.7 843.8,1298.2 855.9,1293.5 863.3,1279.1 857,1294.5 844.6,1299.5 						"/>
					</g>
					<g>
						<polygon class="st33" points="282.5,1082.3 277.4,1062.1 291,1063.6 297,1052.9 306.7,1050.8 297,1051.4 290,1061.2 
							272.9,1057.2 						"/>
						<polygon class="st32" points="282.5,1082.3 277.4,1062.1 291,1063.6 297,1052.9 306.7,1050.8 297.5,1053.5 291.6,1065.8 
							280.8,1064.7 						"/>
					</g>
					<g>
						<polygon class="st33" points="558.8,1054.2 553.7,1034.1 567.3,1035.5 573.2,1024.9 583,1022.8 573.3,1023.4 566.3,1033.2 
							549.2,1029.2 						"/>
						<polygon class="st32" points="558.8,1054.2 553.7,1034.1 567.3,1035.5 573.2,1024.9 583,1022.8 573.7,1025.5 567.9,1037.8 
							557,1036.7 						"/>
					</g>
					<g>
						<polygon points="311.1,1168.5 304.9,1159 294.3,1153.9 288.8,1145.2 295.5,1153 306.5,1156.5 315.5,1162.6 						"/>
						<polygon class="st32" points="310.8,1168 304.9,1159 294.3,1153.9 288.8,1145.2 294.1,1154.9 303.8,1160.6 310.1,1169.8 
													"/>
					</g>
					<polygon class="st15" points="76,1061.4 91.8,1081 101.9,1113.9 124.7,1147.4 105.7,1107.5 95.6,1067.7 74.1,1035.5 					"/>
					<polygon class="st15" points="1011.2,987.4 1027,1007 1037.1,1039.8 1059.8,1073.3 1040.9,1033.5 1030.8,993.7 1009.3,961.5 
											"/>
					<g>
						<polygon points="244,1190.9 237.5,1186.4 236.1,1185.1 231.2,1182.3 227.9,1179.9 220.4,1179.7 216.6,1176.3 210.5,1173.5 
							212.5,1176.6 214.9,1177.9 218.6,1181.5 221.5,1182.9 227.4,1182.6 229.4,1186 236.2,1189.6 241.5,1190.4 						"/>
						<linearGradient id="SVGID_31_" gradientUnits="userSpaceOnUse" x1="210.4557" y1="1182.2065" x2="244.0045" y2="1182.2065">
							<stop  offset="0" style="stop-color:#6E7082"/>
							<stop  offset="1" style="stop-color:#707284"/>
						</linearGradient>
						<polygon class="st47" points="210.5,1173.5 212.5,1176.6 214.9,1177.9 218.6,1181.5 221.5,1182.9 227.4,1182.6 229.4,1186 
							236.2,1189.6 244,1190.9 234.8,1191 227.9,1187 226.8,1184.1 220.1,1184.7 216.2,1182 213.6,1178.6 211.7,1177.2 						"/>
					</g>
					<g>
						<polygon points="499,1211.4 492.6,1206.9 491.2,1205.7 486.3,1202.9 482.9,1200.4 475.4,1200.2 471.6,1196.8 465.5,1194 
							467.6,1197.1 470,1198.4 473.7,1202.1 476.5,1203.5 482.5,1203.2 484.4,1206.5 491.2,1210.2 496.5,1211 						"/>
						<linearGradient id="SVGID_32_" gradientUnits="userSpaceOnUse" x1="465.4995" y1="1202.7506" x2="499.0483" y2="1202.7506">
							<stop  offset="0" style="stop-color:#6E7082"/>
							<stop  offset="1" style="stop-color:#707284"/>
						</linearGradient>
						<polygon class="st48" points="465.5,1194 467.6,1197.1 470,1198.4 473.7,1202.1 476.5,1203.5 482.5,1203.2 484.4,1206.5 
							491.2,1210.2 499,1211.4 489.9,1211.5 483,1207.6 481.9,1204.6 475.2,1205.2 471.2,1202.5 468.7,1199.1 466.7,1197.7 						
							"/>
					</g>
					<g>
						<polygon points="835.6,1223.6 829.1,1219 827.7,1217.8 822.8,1215 819.5,1212.6 811.9,1212.4 808.2,1208.9 802,1206.1 
							804.1,1209.2 806.5,1210.6 810.2,1214.2 813.1,1215.6 819,1215.3 821,1218.6 827.7,1222.3 833.1,1223.1 						"/>
						<linearGradient id="SVGID_33_" gradientUnits="userSpaceOnUse" x1="802.0449" y1="1214.8687" x2="835.5937" y2="1214.8687">
							<stop  offset="0" style="stop-color:#6E7082"/>
							<stop  offset="1" style="stop-color:#707284"/>
						</linearGradient>
						<polygon class="st49" points="802,1206.1 804.1,1209.2 806.5,1210.6 810.2,1214.2 813.1,1215.6 819,1215.3 821,1218.6 
							827.7,1222.3 835.6,1223.6 826.4,1223.6 819.5,1219.7 818.4,1216.7 811.7,1217.3 807.8,1214.7 805.2,1211.2 803.3,1209.8 
													"/>
					</g>
					<g>
						<polygon points="1547.8,1311.5 1541.4,1307 1539.9,1305.7 1535,1303 1531.7,1300.5 1524.2,1300.3 1520.4,1296.9 
							1514.3,1294.1 1516.3,1297.2 1518.8,1298.5 1522.4,1302.2 1525.3,1303.6 1531.2,1303.3 1533.2,1306.6 1540,1310.3 
							1545.3,1311.1 						"/>
						<linearGradient id="SVGID_34_" gradientUnits="userSpaceOnUse" x1="1514.271" y1="1302.8467" x2="1547.8198" y2="1302.8467">
							<stop  offset="0" style="stop-color:#6E7082"/>
							<stop  offset="1" style="stop-color:#707284"/>
						</linearGradient>
						<polygon class="st50" points="1514.3,1294.1 1516.3,1297.2 1518.8,1298.5 1522.4,1302.2 1525.3,1303.6 1531.2,1303.3 
							1533.2,1306.6 1540,1310.3 1547.8,1311.5 1538.6,1311.6 1531.8,1307.7 1530.7,1304.7 1523.9,1305.3 1520,1302.6 
							1517.4,1299.2 1515.5,1297.8 						"/>
					</g>
					<g>
						<polygon class="st15" points="178.1,1260.2 154.3,1238.9 130.1,1236.5 118.7,1224.9 132.2,1234.4 155,1232.5 182.7,1243 
							180,1260.9 						"/>
						<polygon class="st32" points="179.4,1242 155,1232.5 132.2,1234.4 118.7,1224.9 132.7,1232.4 155.6,1229.7 						"/>
					</g>
					<g>
						<polygon class="st15" points="1212.9,1225.7 1189.1,1204.4 1164.9,1202 1153.5,1190.4 1167,1199.9 1189.8,1198 1217.5,1208.5 
							1214.8,1226.3 						"/>
						<polygon class="st32" points="1214.2,1207.5 1189.8,1198 1167,1199.9 1153.5,1190.4 1167.5,1197.9 1190.4,1195.1 						"/>
					</g>
					<g>
						<polygon class="st15" points="1884.9,1210.4 1861.2,1189 1837,1186.7 1825.6,1175.1 1839.1,1184.5 1861.9,1182.6 
							1889.5,1193.1 1886.8,1211 						"/>
						<polygon class="st32" points="1886.3,1192.1 1861.9,1182.6 1839.1,1184.5 1825.6,1175.1 1839.6,1182.6 1862.4,1179.8 						
							"/>
					</g>
					<g>
						<polygon points="159.6,1328.9 151.6,1335.7 149.6,1337.2 144,1342.2 139.8,1345.7 133.7,1353.5 128.5,1357.4 121.9,1363.8 
							125.5,1361.6 128.3,1359.1 133.5,1355.2 136.7,1352.3 141.2,1346.2 144.8,1344.1 152.6,1337 157.3,1331.5 						"/>
						
							<linearGradient id="SVGID_35_" gradientUnits="userSpaceOnUse" x1="76.2267" y1="912.2795" x2="123.6785" y2="912.2795" gradientTransform="matrix(0.4211 -0.907 0.907 0.4211 -728.8179 1052.8252)">
							<stop  offset="0" style="stop-color:#6E7082"/>
							<stop  offset="1" style="stop-color:#707284"/>
						</linearGradient>
						<polygon class="st51" points="121.9,1363.8 125.5,1361.6 128.3,1359.1 133.5,1355.2 136.7,1352.3 141.2,1346.2 144.8,1344.1 
							152.6,1337 159.6,1328.9 152.4,1338.4 144.4,1345.5 141.6,1346.7 136.7,1353.6 131.9,1357.7 127.6,1360.4 125.2,1362.4 						
							"/>
					</g>
					<g>
						<polygon points="501.7,1105.4 499.8,1111 499.3,1112.3 498.1,1116.5 497,1119.4 496.4,1125 495,1128.5 493.6,1133.6 
							494.8,1131.4 495.4,1129.4 496.8,1126 497.4,1123.6 497.8,1119.2 499,1117.1 500.7,1111.4 501.4,1107.3 						"/>
						
							<linearGradient id="SVGID_36_" gradientUnits="userSpaceOnUse" x1="431.8651" y1="1026.8756" x2="458.9976" y2="1026.8756" gradientTransform="matrix(-0.11 -0.9939 0.9939 -0.11 -473.9416 1675.2004)">
							<stop  offset="0" style="stop-color:#6E7082"/>
							<stop  offset="1" style="stop-color:#707284"/>
						</linearGradient>
						<polygon class="st52" points="493.6,1133.6 494.8,1131.4 495.4,1129.4 496.8,1126 497.4,1123.6 497.8,1119.2 499,1117.1 
							500.7,1111.4 501.7,1105.4 501,1112.1 499.2,1118 498.2,1119.4 497.9,1124.2 496.7,1127.6 495.5,1130.2 494.9,1131.9 						
							"/>
					</g>
					<g>
						<polygon points="1154.3,1033.7 1148.6,1050.5 1147.1,1054.4 1143.4,1066.7 1140.3,1075.4 1138.3,1092 1134.3,1102.3 
							1130.2,1117.3 1133.6,1111 1135.4,1104.9 1139.6,1094.7 1141.6,1087.6 1142.7,1074.9 1146.3,1068.6 1151.3,1051.6 
							1153.3,1039.5 						"/>
						
							<linearGradient id="SVGID_37_" gradientUnits="userSpaceOnUse" x1="377.9731" y1="1672.3757" x2="458.3798" y2="1672.3757" gradientTransform="matrix(-0.11 -0.9939 0.9939 -0.11 -473.9416 1675.2004)">
							<stop  offset="0" style="stop-color:#6E7082"/>
							<stop  offset="1" style="stop-color:#707284"/>
						</linearGradient>
						<polygon class="st53" points="1130.2,1117.3 1133.6,1111 1135.4,1104.9 1139.6,1094.7 1141.6,1087.6 1142.7,1074.9 
							1146.3,1068.6 1151.3,1051.6 1154.3,1033.7 1152.1,1053.8 1146.9,1071.1 1143.9,1075.3 1142.8,1089.6 1139.4,1099.7 
							1135.7,1107.4 1133.9,1112.5 						"/>
					</g>
					<g>
						<polygon points="859.7,1027.8 857.8,1033.5 857.2,1034.8 856,1039 855,1041.9 854.3,1047.5 852.9,1051 851.6,1056 
							852.7,1053.9 853.3,1051.8 854.7,1048.4 855.4,1046 855.8,1041.7 857,1039.6 858.7,1033.9 859.3,1029.8 						"/>
						
							<linearGradient id="SVGID_38_" gradientUnits="userSpaceOnUse" x1="469.5422" y1="1391.1692" x2="496.6747" y2="1391.1692" gradientTransform="matrix(-0.11 -0.9939 0.9939 -0.11 -473.9416 1675.2004)">
							<stop  offset="0" style="stop-color:#6E7082"/>
							<stop  offset="1" style="stop-color:#707284"/>
						</linearGradient>
						<polygon class="st54" points="851.6,1056 852.7,1053.9 853.3,1051.8 854.7,1048.4 855.4,1046 855.8,1041.7 857,1039.6 
							858.7,1033.9 859.7,1027.8 858.9,1034.6 857.2,1040.5 856.2,1041.9 855.8,1046.7 854.7,1050.1 853.4,1052.7 852.8,1054.4 
													"/>
					</g>
					<g>
						<polygon points="1117.2,1182.2 1120.2,1187.4 1120.9,1188.6 1123.2,1192.3 1124.7,1195 1128.5,1199.2 1130.2,1202.5 
							1133.2,1206.9 1132.3,1204.6 1131.2,1202.8 1129.5,1199.5 1128.1,1197.4 1125.1,1194.3 1124.3,1192 1121.1,1187 
							1118.4,1183.8 						"/>
						
							<linearGradient id="SVGID_39_" gradientUnits="userSpaceOnUse" x1="15.2742" y1="1208.8816" x2="42.4068" y2="1208.8816" gradientTransform="matrix(-0.8227 -0.5685 0.5685 -0.8227 461.6433 2205.4595)">
							<stop  offset="0" style="stop-color:#6E7082"/>
							<stop  offset="1" style="stop-color:#707284"/>
						</linearGradient>
						<polygon class="st55" points="1133.2,1206.9 1132.3,1204.6 1131.2,1202.8 1129.5,1199.5 1128.1,1197.4 1125.1,1194.3 
							1124.3,1192 1121.1,1187 1117.2,1182.2 1121.8,1187.2 1125.1,1192.4 1125.5,1194.1 1128.9,1197.5 1130.7,1200.6 
							1131.9,1203.3 1132.8,1204.9 						"/>
					</g>
					<g>
						<polygon points="1922.8,1021.4 1925.9,1026.5 1926.5,1027.8 1928.8,1031.4 1930.4,1034.1 1934.1,1038.3 1935.9,1041.6 
							1938.8,1046 1937.9,1043.7 1936.8,1041.9 1935.1,1038.6 1933.8,1036.5 1930.8,1033.4 1929.9,1031.1 1926.7,1026.1 
							1924.1,1022.9 						"/>
						
							<linearGradient id="SVGID_40_" gradientUnits="userSpaceOnUse" x1="-556.0178" y1="1799.2563" x2="-528.8853" y2="1799.2563" gradientTransform="matrix(-0.8227 -0.5685 0.5685 -0.8227 461.6433 2205.4595)">
							<stop  offset="0" style="stop-color:#6E7082"/>
							<stop  offset="1" style="stop-color:#707284"/>
						</linearGradient>
						<polygon class="st56" points="1938.8,1046 1937.9,1043.7 1936.8,1041.9 1935.1,1038.6 1933.8,1036.5 1930.8,1033.4 
							1929.9,1031.1 1926.7,1026.1 1922.8,1021.4 1927.5,1026.3 1930.7,1031.5 1931.1,1033.2 1934.5,1036.6 1936.4,1039.7 
							1937.5,1042.4 1938.4,1044 						"/>
					</g>
					<g>
						<polygon points="1454.9,1306.4 1457.9,1311.5 1458.5,1312.8 1460.9,1316.5 1462.4,1319.2 1466.2,1323.3 1467.9,1326.6 
							1470.8,1331 1470,1328.7 1468.8,1326.9 1467.2,1323.6 1465.8,1321.5 1462.8,1318.4 1462,1316.1 1458.8,1311.1 1456.1,1307.9 
													"/>
						
							<linearGradient id="SVGID_41_" gradientUnits="userSpaceOnUse" x1="-333.0799" y1="1298.726" x2="-305.9474" y2="1298.726" gradientTransform="matrix(-0.8227 -0.5685 0.5685 -0.8227 461.6433 2205.4595)">
							<stop  offset="0" style="stop-color:#6E7082"/>
							<stop  offset="1" style="stop-color:#707284"/>
						</linearGradient>
						<polygon class="st57" points="1470.8,1331 1470,1328.7 1468.8,1326.9 1467.2,1323.6 1465.8,1321.5 1462.8,1318.4 1462,1316.1 
							1458.8,1311.1 1454.9,1306.4 1459.5,1311.4 1462.8,1316.5 1463.2,1318.2 1466.6,1321.7 1468.4,1324.8 1469.5,1327.4 
							1470.4,1329 						"/>
					</g>
					<g>
						<polygon points="1715.8,1266.6 1718.8,1271.8 1719.4,1273 1721.7,1276.7 1723.3,1279.4 1727.1,1283.6 1728.8,1286.9 
							1731.7,1291.2 1730.8,1289 1729.7,1287.2 1728,1283.9 1726.7,1281.8 1723.7,1278.7 1722.9,1276.4 1719.6,1271.4 1717,1268.2 
													"/>
						
							<linearGradient id="SVGID_42_" gradientUnits="userSpaceOnUse" x1="-525.1006" y1="1479.7555" x2="-497.9682" y2="1479.7555" gradientTransform="matrix(-0.8227 -0.5685 0.5685 -0.8227 461.6433 2205.4595)">
							<stop  offset="0" style="stop-color:#6E7082"/>
							<stop  offset="1" style="stop-color:#707284"/>
						</linearGradient>
						<polygon class="st58" points="1731.7,1291.2 1730.8,1289 1729.7,1287.2 1728,1283.9 1726.7,1281.8 1723.7,1278.7 
							1722.9,1276.4 1719.6,1271.4 1715.8,1266.6 1720.4,1271.6 1723.6,1276.8 1724,1278.5 1727.5,1281.9 1729.3,1285 
							1730.4,1287.7 1731.3,1289.2 						"/>
					</g>
					<g>
						<polygon points="1401.6,1039.3 1408.8,1051.7 1410.4,1054.7 1416,1063.5 1419.7,1070 1428.8,1080 1432.9,1088 1440,1098.5 
							1437.9,1093 1435.1,1088.7 1431.1,1080.7 1427.8,1075.7 1420.6,1068.2 1418.7,1062.8 1410.9,1050.6 1404.5,1043 						"/>
						
							<linearGradient id="SVGID_43_" gradientUnits="userSpaceOnUse" x1="-175.4917" y1="1480.3223" x2="-110.2465" y2="1480.3223" gradientTransform="matrix(-0.8227 -0.5685 0.5685 -0.8227 461.6433 2205.4595)">
							<stop  offset="0" style="stop-color:#6E7082"/>
							<stop  offset="1" style="stop-color:#707284"/>
						</linearGradient>
						<polygon class="st59" points="1440,1098.5 1437.9,1093 1435.1,1088.7 1431.1,1080.7 1427.8,1075.7 1420.6,1068.2 
							1418.7,1062.8 1410.9,1050.6 1401.6,1039.3 1412.7,1051.2 1420.5,1063.7 1421.5,1067.7 1429.7,1076 1434.1,1083.5 
							1436.8,1089.9 1439,1093.6 						"/>
					</g>
					<g>
						<polygon points="622.2,1207.6 614.2,1214.3 612.2,1215.8 606.6,1220.9 602.4,1224.4 596.3,1232.1 591.1,1236.1 584.5,1242.4 
							588.1,1240.3 590.8,1237.7 596.1,1233.9 599.3,1230.9 603.8,1224.8 607.4,1222.8 615.2,1215.7 619.9,1210.2 						"/>
						
							<linearGradient id="SVGID_44_" gradientUnits="userSpaceOnUse" x1="381.0736" y1="1280.7655" x2="428.5255" y2="1280.7655" gradientTransform="matrix(0.4211 -0.907 0.907 0.4211 -728.8179 1052.8252)">
							<stop  offset="0" style="stop-color:#6E7082"/>
							<stop  offset="1" style="stop-color:#707284"/>
						</linearGradient>
						<polygon class="st60" points="584.5,1242.4 588.1,1240.3 590.8,1237.7 596.1,1233.9 599.3,1230.9 603.8,1224.8 607.4,1222.8 
							615.2,1215.7 622.2,1207.6 615,1217.1 607,1224.2 604.2,1225.4 599.3,1232.3 594.5,1236.4 590.2,1239.1 587.8,1241.1 						
							"/>
					</g>
					<g>
						<polygon points="219.4,1369.5 230.9,1352.8 240.4,1342.5 247.6,1341.1 256,1329.6 259.5,1326.4 261.4,1322.4 273.7,1303.5 
							259.7,1322.9 258.1,1325.2 252.9,1326.9 245.9,1337.6 238.6,1338.2 230.1,1350.1 						"/>
						<linearGradient id="SVGID_45_" gradientUnits="userSpaceOnUse" x1="219.3989" y1="1336.5067" x2="273.7364" y2="1336.5067">
							<stop  offset="0" style="stop-color:#6E7082"/>
							<stop  offset="1" style="stop-color:#707284"/>
						</linearGradient>
						<polygon class="st61" points="219.4,1369.5 230.9,1352.8 240.4,1342.5 247.6,1341.1 256,1329.6 259.5,1326.4 261.4,1322.4 
							273.7,1303.5 262.5,1323.1 261.2,1327.9 257.2,1331.1 248.3,1343.1 240.9,1344.4 231.6,1353.7 						"/>
					</g>
					<g>
						<polygon points="471.5,1001.1 489,1022.3 493.7,1037.1 489.2,1044.8 491,1036.4 485.1,1022.6 469.3,1005.9 						"/>
						<polygon class="st32" points="489.2,1044.8 491,1036.4 485.1,1022.6 470.6,1007.4 469.7,1010.9 484.1,1023.6 490.3,1036.5 
													"/>
					</g>
					<g>
						<polygon points="1686.7,1047.3 1734.4,1083.8 1751.7,1112.8 1746,1131.3 1745.7,1112.7 1726.4,1086.2 1684.4,1058.6 						"/>
						<polygon class="st32" points="1746,1131.3 1745.7,1112.7 1726.4,1086.2 1688,1061.1 1687.8,1069 1724.8,1088.9 1744.2,1113.3 
													"/>
					</g>
					<g>
						<polygon points="430.2,1358.1 445.2,1334.2 445.7,1305.2 459.5,1283.6 448.8,1306.9 452.4,1335.3 448.4,1358.3 						"/>
						<polygon class="st32" points="430.9,1357.1 445.2,1334.2 445.7,1305.2 459.5,1283.6 443.1,1305.7 440.4,1333.6 426.1,1357.4 
													"/>
					</g>
					<g>
						<polygon points="1755.8,1374.7 1776.2,1355.3 1783.9,1327.3 1802.6,1309.8 1786.5,1329.7 1783,1358.2 1773.3,1379.5 						"/>
						<polygon class="st32" points="1756.7,1374 1776.2,1355.3 1783.9,1327.3 1802.6,1309.8 1781.3,1327.1 1771.8,1353.5 1752,1373 
													"/>
					</g>
					<g>
						<polygon points="940.1,1049.6 904,1023.3 870.2,1004.9 829.8,955.9 834.3,952.8 875.2,999.9 911.5,1017.1 944.1,1049.6 						
							"/>
						<polygon class="st32" points="940.1,1049.6 904,1023.3 870.2,1004.9 832.2,959 867.9,1006.6 903.2,1025.6 						"/>
					</g>
					<g>
						<polygon points="738.1,1048.4 729.9,1035.7 730.6,1018 723.8,1001 733,1017.3 735.4,1035.4 748.6,1051.4 						"/>
						<polygon class="st32" points="746,1048.3 735.4,1035.4 733,1017.3 723.8,1001 736.3,1018.1 738.4,1035.1 751.2,1048.2 						
							"/>
					</g>
					<g>
						<polygon points="890.4,1193.1 882.8,1183.7 878,1168.1 867.2,1152.1 876.2,1171.1 881,1190.1 891.3,1205.4 						"/>
						<polygon class="st32" points="867.2,1152.1 879.6,1166.2 884,1181.6 888.2,1186.5 888.2,1190.4 882.8,1183.7 878,1168.1 
													"/>
					</g>
					<g>
						<polygon points="1633.8,1333.5 1626.3,1324.2 1621.4,1308.5 1610.6,1292.6 1619.6,1311.5 1624.5,1330.5 1634.7,1345.9 						
							"/>
						<polygon class="st32" points="1610.6,1292.6 1623,1306.7 1627.4,1322.1 1631.7,1327 1631.7,1330.9 1626.3,1324.2 
							1621.4,1308.5 						"/>
					</g>
					<g>
						<polygon points="1127.2,1330.6 1137.5,1315.1 1138.3,1296.1 1147.7,1282.1 1140.3,1297.2 1142.2,1316 1139.2,1331 						"/>
						<polygon class="st32" points="1127.7,1329.9 1137.5,1315.1 1138.3,1296.1 1147.7,1282.1 1136.6,1296.3 1134.4,1314.6 
							1124.5,1330 						"/>
					</g>
					<g>
						<polygon points="1356,1146.9 1390.8,1163.5 1418.7,1181.6 1472.5,1192.3 1473,1187.6 1420.4,1175.8 1392.5,1155.3 
							1354.4,1143.8 						"/>
						<polygon class="st32" points="1356,1146.9 1390.8,1163.5 1418.7,1181.6 1469.1,1191.8 1418.3,1184 1389.4,1165 						"/>
					</g>
					<g>
						<polygon points="1398,953.8 1387.9,969.4 1387.3,988.4 1378,1002.5 1385.2,987.3 1383.1,968.5 1386,953.5 						"/>
						<polygon class="st32" points="1397.5,954.5 1387.9,969.4 1387.3,988.4 1378,1002.5 1388.9,988.2 1391,969.8 1400.7,954.3 
													"/>
					</g>
					<g>
						<polygon points="1869.7,965.1 1858.7,980.1 1857.1,999.1 1847,1012.6 1855.1,997.8 1854,979 1857.8,964.1 						"/>
						<polygon class="st32" points="1869.2,965.7 1858.7,980.1 1857.1,999.1 1847,1012.6 1858.8,998.9 1861.8,980.7 1872.3,965.8 
													"/>
					</g>
				</g>
			</g>
			<polyline class="st15" points="935,1392.2 1047.7,1392.2 1047.7,1104.7 936.9,1104.7 923.5,1391.3 			"/>
			<rect x="1517.9" y="935.1" class="st15" width="125.8" height="271.5"/>
		</g>
		<path class="st62" d="M814.4,354.9c3.5-38.9-10.9-76.8-24.8-91.5c0,0,27.3,6.6,47.8,19.2c0,0-27.3-22.8-67.7-32.7
			c0,0,23.8,28.9,34.1,54C814.2,328.9,814.4,354.9,814.4,354.9z"/>
		<path class="st62" d="M923.9,263.6c0,0,2.3-52.2-10.5-80.1c0,0,8.7,2,52.2,54.8c0,0-24.9-41-62.7-73.5
			C902.8,164.7,924.2,218.7,923.9,263.6z"/>
		<path class="st62" d="M1058.8,226.9c0,0,3.5-44-3.5-68.5c0,0,32.3,29.7,54.8,74.3c0,0-26.2-55.4-64.8-97.5
			C1045.2,135.2,1059.7,184.7,1058.8,226.9z"/>
		<path class="st62" d="M1226.5,303.3c0,0,8.3-31.8,20.1-47.5c0,0-25.5,4.2-57.6,23.8c0,0,28.4-23.6,75.1-36.7
			C1264.1,243,1239.2,271.6,1226.5,303.3z"/>
	</g>
	<g>
		<path d="M576.5,1712.4c-17.1,0-33.2-7.8-43.9-21.3c-11.7-14.8-15.1-34.3-9.2-52.2l33.4-101.5l-53.3-93.3
			c-9.6-16.8-9.9-36.9-0.9-54c9-17,25.8-28.1,45-29.6c158-12.6,567.4-38,954.3-0.7c18.9,1.8,35.4,13,44.2,29.9
			c8.8,16.9,8.5,36.9-0.9,53.5l-54.3,96.1l32.9,98.6c6,18.1,2.5,37.7-9.3,52.6c-11.9,14.9-30.3,22.6-49.3,20.8l0,0
			c-368-36.6-769.6-8.5-883.9,1C579.6,1712.3,578,1712.4,576.5,1712.4z M591,1437l52.3,91.6L610,1630.1
			c162.2-12.3,499.4-30.3,826.8-1.4l-32.6-97.8l53.8-95.2C1110.1,1405.9,742.1,1426.1,591,1437z"/>
		<linearGradient id="SVGID_46_" gradientUnits="userSpaceOnUse" x1="1024.2021" y1="1672.5748" x2="1024.2021" y2="1380.2074">
			<stop  offset="0" style="stop-color:#971316"/>
			<stop  offset="1" style="stop-color:#ED1F25"/>
		</linearGradient>
		<path class="st63" d="M1468.9,1671.6c-367.1-36.5-760.9-9.9-891.1,0.9c-11.6,1-20.3-10.2-16.7-21.2L600,1533l-62.1-108.6
			c-5.9-10.3,0.9-23.3,12.8-24.2c137.4-11,557-38.4,947.3-0.7c11.7,1.1,18.3,14,12.5,24.2l-63,111.4l38.4,115.3
			C1489.7,1661.6,1480.7,1672.8,1468.9,1671.6z"/>
	</g>
	<g>
		<g>
			<path class="st64" d="M731.3,1503.3c-6.1,0.3-11.5-0.1-16.2-1.2c0.2-1.3,0.3-2.1,0.2-2.6c-0.1-2.9-1.3-5.2-3.6-6.9
				c-2.2-1.8-4.7-2.6-7.3-2.4c-1.9,0.1-3.5,0.8-4.9,2.1c-1.4,1.3-1.9,3.4-2.2,5.5c-0.2,1-0.5,2.2-0.4,3c0.1,0.7,0.2,1,0.3,1.7
				c0,0.1,0,0.2,0,0.4c1,2.6,2.4,4.3,4.1,5.2c1.7,0.9,3.8,1.5,6.2,1.7c6.2,0.6,12.7,2.5,19.3,5.9c6.6,3.4,11.9,7.5,16,12.3
				c2.5,3.1,4.6,6.6,6.1,10.5c1.5,3.9,2.4,7.7,2.6,11.4c0.3,6.5-0.9,12.9-3.4,19.1c-2.9,7.1-7.6,12.8-14,17
				c-6.5,4.2-13.6,6.5-21.5,7c-8,0.4-15.9-0.7-23.6-3.4c-7.8-2.7-14.2-6.9-19.2-12.6c-5.1-5.7-7.6-12.5-7.6-20.4
				c0-0.7-0.1-1-0.1-1.7c3.6-0.9,7.5-1.4,11.8-1.7c3.7-0.2,6.9-0.4,9.5-0.4c2.3,0,6.6-0.2,12.6-0.6c0.3,3.7,1.6,6.6,3.9,8.6
				c2.3,2,4.8,2.9,7.7,2.8c2.5-0.1,4.5-1.1,6.1-2.8c1.6-1.7,2.3-4.1,2.1-7.1c-0.1-1.1-0.2-2-0.3-2.6c-0.9-4.6-3.2-7.7-7-9.4
				c-3.8-1.7-8.9-2.9-15.4-3.8c-1.1-0.2-1.7-0.2-2.8-0.4c-5.4-0.7-10.4-2.6-14.4-5.7c-4.7-3.8-8.4-8.6-10.9-13.4
				c-2.6-4.8-4-9.8-4.3-14.8c-0.5-8.1,1.5-15.9,6-23.4c4.5-7.5,10.7-13.1,18.4-16.8c4.8-2.3,10.8-3.6,18.2-4
				c9.5-0.5,18.5,0.6,26.1,3.9c5.8,2.5,10.7,6.4,14.3,11.1c3.6,4.7,5.6,10.4,5.9,17c0.1,2.5-0.1,5.8-0.7,9.8c-0.9,0-1.4,0.1-2.3,0.1
				C741.6,1502.4,736.4,1503.1,731.3,1503.3z"/>
			<path class="st64" d="M856.1,1585.3c-5.4,0.2-13.4,0.5-24,1.1c-9.7,0.4-14.5,0.6-24.2,1.1c-11,0.4-21.9,0.5-32.9,0.2
				c-0.1-4-0.8-19.6-2.6-46.6c-1-15.3-1.7-27.1-2.1-35.4c-0.7-17.1-1-33-0.7-47.8c6.6-0.5,10-0.8,16.6-1.3
				c18.6-1.5,32.8-2.4,42.7-2.7c8.4-0.3,16.6-0.2,24.6,0.2c0.6,2.6,0.9,5.7,1,9.2c0.1,1.9,0,4.9-0.1,9.2c-0.1,4-0.2,7.1-0.1,9.4
				c-7.5,1.8-15.8,2.9-25.1,3.2c-9.8,0.4-14.7,0.6-24.4,1.1c-0.4,5.9-0.5,10.8-0.4,14.6c0.1,3,0.6,5.6,1.4,7.8
				c4.9-0.8,7.4-1.2,12.3-2c1.7-0.1,4.4,0,7.9,0.1c1,0,1.5,0.1,2.4,0.1c0.7,3.7,1.2,7.8,1.3,12.1c0,6,0.1,9,0.1,15
				c-3.9,1.3-9.3,2-16,2.3c-1.9,0-2.9,0-4.9,0c-0.9,0-1.4,0.2-1.7,0.4c-0.2,3.9-0.2,5.9-0.4,9.8c0.2,5.1,0.6,9.4,1.2,12.7
				c6.4-0.2,12.7-0.3,18.8-0.1c2.1,0.1,4.7,0.1,7.8,0.1c3.1,0,6.8,0,11-0.2c4.5-0.3,6.8-0.4,11.3-0.7c0.4,5.7,0.6,9,0.7,9.9
				C857.8,1574.6,857.3,1580.3,856.1,1585.3z"/>
			<path class="st64" d="M944.1,1584.9c-5.4,0.1-11.3-0.5-17.8-1.8c-0.9-2.4-2.4-7.3-4.3-14.9c-2-7.7-3.6-12.8-4.7-15.3
				c-1.5,0-2.2-0.1-3.7-0.1c-1.3,0.1-1.9,0.1-3.2,0.2c-0.5,1.5-1.2,5.2-2.2,11.1c-0.8,4.9-1.6,8.9-2.4,12c-0.8,3.1-2,5.9-3.5,8.4
				c-1.2,0.3-3.1,0.4-5.5,0.5c-1.1,0-3.5-0.1-7.2-0.2c-10.6-0.4-16.7-0.3-17.9-0.3c0-0.6,0.1-2.1,0.3-4.4c0.2-2.3,0.5-4.9,0.9-7.8
				c1.4-9.5,2.1-14.2,3.5-23.7c2.7-19.4,5.4-36.4,8-50.8c2.6-14.4,6.1-29.7,10.6-45.8c1.8-0.3,4.2-0.5,7.2-0.5c0.5,0,0.7,0,1.1,0
				c8.2-0.2,16.2-0.6,24-1.4c1.6,5.9,3.1,11.6,4.4,17.3c1.3,5.7,2.5,10.7,3.6,15.2c4.3,17.3,7.1,28.8,8.5,34.6
				c5.3,26.6,7.9,39.8,13.1,66.4C952.9,1584.4,948.7,1584.9,944.1,1584.9z M912.6,1491.5c-0.1-0.7-0.1-1.1-0.2-1.9
				c-0.1,1.8-0.2,2.7-0.3,4.5c-0.2,9.4-0.6,16.8-1.3,22.3c-0.6,5-0.9,7.6-1.4,12.6c3.1-0.1,4.7-0.1,7.8-0.1
				C914,1504,912.5,1491.5,912.6,1491.5z"/>
			<path class="st64" d="M1037.5,1496c-6.1,0-11.5-0.7-16.1-2.1c0.3-1.2,0.4-2.1,0.4-2.6c0-2.9-1.1-5.3-3.2-7.1
				c-2.1-1.9-4.5-2.8-7.1-2.8c-1.9,0-3.5,0.6-5,1.8c-1.4,1.2-2.1,3.3-2.5,5.4c-0.2,1-0.6,2.1-0.6,3c0.1,0.7,0.1,1,0.2,1.7
				c0,0.1,0,0.2,0,0.4c0.9,2.6,2.2,4.4,3.9,5.4c1.7,1,3.7,1.7,6.1,2.1c6.2,0.9,12.6,3.2,18.9,6.9c6.4,3.8,11.5,8.2,15.3,13.2
				c2.3,3.3,4.2,6.9,5.5,10.8c1.3,3.9,2,7.8,2,11.5c0,6.5-1.5,12.8-4.4,18.9c-3.3,7-8.2,12.4-14.9,16.3c-6.7,3.9-13.9,5.8-21.8,5.8
				c-8,0-15.8-1.6-23.4-4.7c-7.6-3.1-13.8-7.7-18.5-13.7c-4.7-6-6.9-12.9-6.5-20.7c0-0.7,0-1,0-1.7c3.6-0.7,7.6-1,11.9-1
				c3.7,0,6.9,0,9.5,0.1c2.4,0.1,6.6,0.1,12.7,0.1c0.1,3.8,1.3,6.7,3.5,8.8c2.2,2.1,4.7,3.2,7.5,3.2c2.5,0,4.5-0.8,6.2-2.4
				c1.7-1.6,2.5-3.9,2.5-6.9c0-1.1-0.1-2-0.2-2.6c-0.6-4.6-2.8-7.9-6.5-9.7c-3.7-1.9-8.8-3.4-15.1-4.6c-1.1-0.2-1.7-0.3-2.8-0.6
				c-5.4-1-10.3-3.1-14-6.5c-4.5-4-7.9-9-10.2-14c-2.3-5-3.5-10-3.5-15c-0.1-8.1,2.3-15.8,7.2-23c4.9-7.2,11.3-12.5,19.3-15.8
				c4.9-2,11-3,18.3-3.1c9.5,0,18.4,1.6,25.9,5.3c5.7,2.8,10.4,7,13.7,11.9c3.4,4.9,5,10.7,5,17.3c0,2.5-0.4,5.8-1.2,9.7
				c-0.9,0-1.4,0-2.3,0C1047.8,1495.6,1042.7,1496,1037.5,1496z"/>
			<path class="st64" d="M1160.3,1496.7c-0.1,1.3-0.2,2-0.3,3.4c0,1.3,0,2-0.1,3.4c-0.3,4.1-0.6,10.2-0.8,18.2
				c-0.2,8.9-0.6,15.6-1,20.2c-0.3,2.5-0.4,3.7-0.7,6.2c-0.9,10.1-3.6,18.7-8.2,25.7c-1.9,2.6-4.7,4.8-8.5,6.8
				c-3.7,1.9-7.9,3.4-12.3,4.6c-4.6,1.2-10,1.9-16.1,1.8c-2.8,0-4.8-0.1-5.9-0.3c-6-0.6-11.4-2-16.1-4.3c-4.7-2.2-8.2-5.5-10.3-9.8
				c-2.9-5.7-4.5-12.7-4.6-21.2c-0.1-2.4-0.2-3.6-0.3-6c-0.1-1-0.1-3.2-0.1-6.2c-0.2-9.9-0.7-20.1-0.7-29.4
				c0.1-5.7,0.3-11.5,0.7-17.2c0.4-6.2,1.6-12.3,3.5-18.2c1.9-5.9,4.7-11.1,8.6-15.6c1.7-0.9,2.5-1.3,4.2-2.2
				c8.1-3.8,17-5.6,26.6-5.4c6,0.1,11.7,1,17.1,2.7c5.3,1.7,10.3,4,13.9,7.1c4.3,3.7,7.1,8.1,8.4,12c1.4,4,2.5,8.2,2.9,12.1
				C1160.4,1488.6,1160.4,1492.7,1160.3,1496.7z M1130.5,1504.7c-0.2-3.9-0.3-5.9-0.6-9.8c-0.2-3.5-1-6.6-2.4-9.3
				c-1.4-2.7-3.2-4.7-5.4-5.8c-1-0.4-2-0.6-3-0.6c-3-0.1-6,0.9-8.9,2.9c-1.5,1.2-3,3-4.5,5.3c-1.5,2.3-2.6,4.6-3.4,7
				c-1.3,5.5-2,12.5-2.2,21c-0.1,4.2,0,7.4,0.1,9.6c0-0.1,0-0.1,0-0.2c0.5,2.5,0.8,5.8,1,10c0.1,1.1,0.1,1.6,0.2,2.6
				c0.4,6.3,1,10.9,1.9,13.9c0-0.1,0-0.1,0-0.2c1.1,2.5,2.7,4.4,4.8,5.8c2.1,1.3,4.5,2,6.9,2.1c2,0,4-0.4,6.1-1.3
				c2.1-0.9,3.9-2.2,5.4-3.9c1.3-1.5,2.1-3,2.4-4.1c0.3-1.1,0.5-2.9,0.6-5.2c0-2.1,0.1-3.7,0.3-4.7c0.1-1,0.1-1.5,0.2-2.4
				c0.1-1.4,0.2-2.1,0.3-3.6c0-1,0-1.6,0-2.6c0.1-1.4,0.2-2.1,0.3-3.6c0.1-3.6,0.1-5.4,0.2-9c-0.1-5.1-0.1-7.7-0.1-12.8
				C1130.5,1505.2,1130.5,1505,1130.5,1504.7z"/>
			<path class="st64" d="M1227.3,1570.6c-7.2-17.5-11.9-29.6-14.2-36.3c-0.5,14.4-0.7,21.6-1.2,36c-0.3,7.7-0.4,13.1-0.3,15.9
				c-3.4,0.9-7,1.3-10.9,1.1c-1.2,0-3.1-0.2-5.5-0.6c-2.7-0.3-4.7-0.5-5.9-0.6c-3.6-0.3-5.4-0.4-9-0.6c0.2-5.6,0.2-8.4,0.4-14.1
				c0.2-8,0.4-19.4,0.6-34.1c0.1-7.4,0.3-18.6,0.7-33.5c0.6-20.1,1.6-37,3.1-50.5c3.4-0.8,7.2-1.1,11.4-1c2.8,0.1,6.1,0.4,10.1,1.1
				c4,0.6,6.7,1.5,8.1,2.5c1.7,3.3,3.7,7.9,6.1,13.8c2.4,5.9,4.7,11.8,6.8,17.6c2.8,7,4.1,10.5,6.9,17.5c0.1-8.8,0.3-19.1,0.8-30.9
				c0.4-9.6,0.7-16.2,0.9-19.9c5.2-0.8,10.7-1.1,16.5-0.9c4.9,0.2,10,1,15.2,2.3c-2.2,53.1-3.3,79.7-5.6,132.8
				c-0.4,0-1.2,0.1-2.2,0.5c-1.2,0.4-3.7,0.3-6.5,0.5c-0.6,0-3.9-0.2-9.8-1c-1.5-0.2-3.3-0.4-5.6-0.6c-2.3-0.2-3.6-0.3-4-0.2
				C1231.4,1580.8,1230.1,1577.4,1227.3,1570.6z"/>
			<path class="st64" d="M1385.6,1463.1c-0.9,14.6-2,29.3-3.3,44.1c-1.7,19.7-2.9,35.2-3.6,46.5c-0.8,13.1-1.2,26.2-1.3,39.2
				c-2,1.8-6.8,2.4-14.6,1.9c-4.4-0.3-7.7-0.5-9.8-0.8c-0.9-0.1-1.3-0.2-2.2-0.3c-1.3-0.2-2-0.2-3.3-0.4c-2.5-0.1-5.6,0.2-9.5,1
				c1.3-10.8,2.3-22.3,3-34.6c0.3-4.9,0.5-12,0.8-21.5c0.2-4.3,0.2-6.5,0.4-10.9c0.2-13.3,0.6-24,1-32.2c0.7-12.4,1.9-24.5,3.7-36.4
				c1.7-0.2,3.4-0.2,5.3-0.1c1,0.1,2.4,0.2,4.1,0.5c1.7,0.3,4,0.3,6.2,0.5c6.2,0.4,11.7,1.2,15.7,1.3c2.9,0.2,4.4,0.3,7.4,0.5
				C1385.7,1462.1,1385.7,1462.5,1385.6,1463.1z"/>
		</g>
	</g>
</g>
</svg>
