<svg width="12" height="12" viewBox="0 0 12 12" fill="none" xmlns="http://www.w3.org/2000/svg">
<path d="M5.25 10.5C5.25 10.5 4.5 10.5 4.5 9.75C4.5 9 5.25 6.75 8.25 6.75C11.25 6.75 12 9 12 9.75C12 10.5 11.25 10.5 11.25 10.5H5.25ZM8.25 6C8.84674 6 9.41903 5.76295 9.84099 5.34099C10.2629 4.91903 10.5 4.34674 10.5 3.75C10.5 3.15326 10.2629 2.58097 9.84099 2.15901C9.41903 1.73705 8.84674 1.5 8.25 1.5C7.65326 1.5 7.08097 1.73705 6.65901 2.15901C6.23705 2.58097 6 3.15326 6 3.75C6 4.34674 6.23705 4.91903 6.65901 5.34099C7.08097 5.76295 7.65326 6 8.25 6Z" fill="white" fill-opacity="0.5"/>
<path fill-rule="evenodd" clip-rule="evenodd" d="M3.912 10.5C3.80082 10.2658 3.74537 10.0091 3.75 9.74996C3.75 8.7337 4.26 7.68745 5.202 6.95995C4.73182 6.81508 4.24196 6.74423 3.75 6.74995C0.75 6.74995 0 8.99995 0 9.74996C0 10.5 0.75 10.5 0.75 10.5H3.912Z" fill="white" fill-opacity="0.5"/>
<path d="M3.375 6C3.87228 6 4.34919 5.80246 4.70083 5.45083C5.05246 5.09919 5.25 4.62228 5.25 4.125C5.25 3.62772 5.05246 3.15081 4.70083 2.79917C4.34919 2.44754 3.87228 2.25 3.375 2.25C2.87772 2.25 2.40081 2.44754 2.04917 2.79917C1.69754 3.15081 1.5 3.62772 1.5 4.125C1.5 4.62228 1.69754 5.09919 2.04917 5.45083C2.40081 5.80246 2.87772 6 3.375 6Z" fill="white" fill-opacity="0.5"/>
</svg>
