<svg width="40" height="40" viewBox="0 0 40 40" fill="none" xmlns="http://www.w3.org/2000/svg">
<path d="M38 20C38 29.9411 29.9411 38 20 38C10.0589 38 2 29.9411 2 20C2 10.0589 10.0589 2 20 2C29.9411 2 38 10.0589 38 20Z" fill="url(#paint0_linear_235_912)" stroke="black" stroke-width="4"/>
<path d="M26.0766 12.7928L27.2073 13.9236C27.5976 14.3138 27.5976 14.9466 27.2073 15.3369L15.3368 27.2073C14.9466 27.5976 14.3138 27.5975 13.9234 27.2073L12.7927 26.0765C12.4024 25.6862 12.4024 25.0534 12.7927 24.6631L24.6631 12.7926C25.0534 12.4024 25.6862 12.4024 26.0766 12.7928Z" fill="white"/>
<path d="M27.2073 26.0765L26.0764 27.2073C25.6862 27.5976 25.0534 27.5976 24.6631 27.2073L12.7927 15.3369C12.4024 14.9466 12.4024 14.3138 12.7927 13.9235L13.9235 12.7927C14.3138 12.4024 14.9465 12.4024 15.3369 12.7927L27.2073 24.6631C27.5976 25.0535 27.5976 25.6862 27.2073 26.0765Z" fill="white"/>
<defs>
<linearGradient id="paint0_linear_235_912" x1="20.0006" y1="40.0017" x2="20.0006" y2="-0.00599977" gradientUnits="userSpaceOnUse">
<stop stop-color="#971316"/>
<stop offset="1" stop-color="#ED1F25"/>
</linearGradient>
</defs>
</svg>
