<svg width="32" height="32" viewBox="0 0 32 32" fill="none" xmlns="http://www.w3.org/2000/svg">
<path d="M0.824439 31.0605C0.652939 31.0605 0.512939 30.921 0.512939 30.7495V7.78148C0.512939 7.60998 0.652439 7.47048 0.824439 7.47048H7.93994V2.62648C7.93994 2.60598 7.93294 2.15098 8.22944 1.76498C8.56544 1.32698 8.91594 1.15648 9.52194 1.13698C9.67494 1.13198 10.4274 1.12598 13.1434 1.12598C16.9079 1.12598 22.2114 1.13748 22.2114 1.13748L22.2629 1.13498C22.2699 1.13448 22.3149 1.13098 22.3834 1.13098C22.6019 1.13098 23.1469 1.16598 23.4914 1.49148C23.9984 1.97048 24.0179 2.24848 24.0449 2.63298C24.0554 2.77198 24.0689 3.51748 24.0484 6.96898L24.0454 7.47198H31.1754C31.3469 7.47198 31.4859 7.61148 31.4859 7.78298V30.7505C31.4859 30.922 31.3469 31.0615 31.1754 31.0615H0.824439V31.0605ZM12.2919 25.964C12.2919 26.687 12.8799 27.275 13.6029 27.275H18.3959C19.1184 27.275 19.7064 26.687 19.7064 25.964V23.1135H22.5559C23.2789 23.1135 23.8674 22.5255 23.8674 21.8025V17.001C23.8674 16.278 23.2789 15.6895 22.5559 15.6895H19.7064V12.8485C19.7064 12.126 19.1184 11.5375 18.3959 11.5375H13.6029C12.8799 11.5375 12.2919 12.1255 12.2919 12.8485V15.6895H9.44244C8.71944 15.6895 8.13094 16.2775 8.13094 17.001V21.8025C8.13094 22.5255 8.71894 23.1135 9.44244 23.1135H12.2919V25.964ZM10.3839 2.55798C9.77994 2.55798 9.37344 2.94198 9.37344 3.51398V7.47148H22.6114V3.57698C22.6139 3.52148 22.6124 3.14198 22.3334 2.85398C22.2084 2.72448 21.9834 2.56998 21.6219 2.56998H10.5699C10.5264 2.56398 10.4609 2.55798 10.3839 2.55798Z" fill="white"/>
<path d="M13.1439 1.62549C16.9074 1.62549 22.2104 1.63699 22.2109 1.63699L22.2629 1.63599L22.3039 1.63299C22.3149 1.63199 22.3434 1.63049 22.3839 1.63049C22.6389 1.63049 22.9739 1.68949 23.1479 1.85399C23.5134 2.19949 23.5224 2.32699 23.5469 2.67099C23.5544 2.77949 23.5699 3.41499 23.5489 6.96499L23.5429 7.97099H24.5489H30.9864V30.5605H1.01344V7.97099H7.44044H8.44044V6.97099V2.62649V2.60599L8.43994 2.58549C8.43994 2.58299 8.45344 2.29499 8.62694 2.06899C8.84194 1.78849 9.03344 1.65249 9.53994 1.63599C9.68844 1.63149 10.4349 1.62549 13.1439 1.62549ZM8.87344 7.97099H9.87344H22.1114H23.1114V6.97099V3.58549C23.1139 3.40599 23.0809 2.90749 22.6934 2.50599C22.4214 2.22449 22.0409 2.06949 21.6219 2.06949H10.5999C10.5414 2.06299 10.4674 2.05799 10.3839 2.05799C9.50894 2.05799 8.87344 2.67049 8.87344 3.51399V6.97149V7.97099ZM11.7919 15.19H9.44244C8.44344 15.19 7.63094 16.0025 7.63094 17.0015V21.803C7.63094 22.8015 8.44344 23.614 9.44244 23.614H11.7919V25.9645C11.7919 26.963 12.6044 27.7755 13.6029 27.7755H18.3959C19.3944 27.7755 20.2064 26.963 20.2064 25.9645V23.614H22.5559C23.5549 23.614 24.3674 22.8015 24.3674 21.803V17.0015C24.3674 16.0025 23.5549 15.19 22.5559 15.19H20.2064V12.849C20.2064 11.8505 19.3944 11.038 18.3959 11.038H13.6029C12.6044 11.038 11.7919 11.8505 11.7919 12.849V15.19ZM13.1439 0.625488C11.2609 0.625488 9.76344 0.628488 9.50594 0.636988C8.73294 0.661988 8.25144 0.915488 7.83294 1.46049C7.41494 2.00549 7.43994 2.62649 7.43994 2.62649V6.97099H0.824439C0.376439 6.97099 0.0129395 7.33349 0.0129395 7.78199V30.7495C0.0129395 31.1975 0.376439 31.5605 0.824439 31.5605H31.1754C31.6229 31.5605 31.9859 31.1975 31.9859 30.7495V7.78149C31.9859 7.33349 31.6224 6.97049 31.1754 6.97049H24.5489C24.5569 5.65849 24.5704 2.95299 24.5439 2.59649C24.5109 2.12349 24.4599 1.71749 23.8349 1.12649C23.3679 0.685988 22.6959 0.629488 22.3839 0.629488C22.2774 0.629488 22.2129 0.635988 22.2129 0.635988C22.2129 0.635988 16.9084 0.625488 13.1439 0.625488ZM9.87344 6.97099C9.87344 5.89349 9.87344 3.92399 9.87344 3.51349C9.87344 3.11849 10.1894 3.05749 10.3839 3.05749C10.4704 3.05749 10.5324 3.06949 10.5324 3.06949C10.5324 3.06949 21.1154 3.06949 21.6219 3.06949C22.1284 3.06949 22.1114 3.57649 22.1114 3.57649V6.97049H9.87344V6.97099ZM9.44294 22.6135C8.99644 22.6135 8.63144 22.249 8.63144 21.8025V17.001C8.63144 16.555 8.99644 16.1895 9.44294 16.1895H12.7924V12.8485C12.7924 12.402 13.1494 12.0375 13.6034 12.0375H18.3964C18.8504 12.0375 19.2069 12.402 19.2069 12.8485V16.1895H22.5564C23.0029 16.1895 23.3679 16.5545 23.3679 17.001V21.8025C23.3679 22.2495 23.0029 22.6135 22.5564 22.6135H19.2069V25.964C19.2069 26.409 18.8504 26.775 18.3964 26.775H13.6034C13.1494 26.775 12.7924 26.409 12.7924 25.964V22.6135H9.44294Z" fill="white"/>
</svg>
