<svg width="32" height="33" viewBox="0 0 32 33" fill="none" xmlns="http://www.w3.org/2000/svg">
<g clip-path="url(#clip0_107_9441)">
<path d="M16.1618 32.0928C13.925 32.0926 11.7399 31.4204 9.8897 30.1634C8.03951 28.9064 6.60962 27.1226 5.78543 25.0431C4.96123 22.9637 4.78075 20.6847 5.26738 18.5014C5.75401 16.3182 6.8853 14.3316 8.51458 12.799C10.512 10.9192 15.4177 7.53463 14.6735 0.0927734C23.6037 6.04626 28.0688 11.9998 19.1386 20.93C20.627 20.93 22.8595 20.93 26.5804 17.2537C26.9823 18.4042 27.3246 19.6411 27.3246 20.93C27.3246 23.8905 26.1486 26.7298 24.0551 28.8233C21.9617 30.9167 19.1224 32.0928 16.1618 32.0928Z" fill="white"/>
</g>
<defs>
<clipPath id="clip0_107_9441">
<rect width="32" height="32" fill="white" transform="translate(0 0.0927734)"/>
</clipPath>
</defs>
</svg>
