<svg width="32" height="33" viewBox="0 0 32 33" fill="none" xmlns="http://www.w3.org/2000/svg">
<path d="M13.9369 27.7724H9.37462L6.97888 23.2934L4.56231 27.7724H0L4.37482 20.1893L0.24999 13.1896H4.77064L6.95805 17.3145L9.16629 13.1896H13.6453L9.54128 20.2518L13.9369 27.7724Z" fill="white"/>
<path d="M25.5766 22.2865H32V27.7724H14.8132V26.3835C18.077 22.518 20.3917 19.7287 21.7574 18.0158C23.1462 16.2798 24.0952 14.9604 24.6045 14.0576C25.1137 13.1549 25.3683 12.3563 25.3683 11.6619C25.3683 11.0369 25.1831 10.5393 24.8128 10.1689C24.4424 9.77541 23.9679 9.57866 23.3892 9.57866C23.1115 9.57866 22.8569 9.61338 22.6254 9.68282C22.4171 9.72912 22.2319 9.82171 22.0698 9.96059C21.9078 10.0995 21.7689 10.2615 21.6532 10.4467C21.5375 10.6087 21.4449 10.817 21.3754 11.0717C21.306 11.3031 21.2713 11.5577 21.2713 11.8355V12.2869H15.1951V11.8355C15.1951 9.49765 15.9127 7.62272 17.3478 6.21074C18.8061 4.79876 20.7852 4.09277 23.2851 4.09277C25.7387 4.09277 27.7293 4.77562 29.2571 6.1413C30.8079 7.50699 31.5833 9.27775 31.5833 11.4536C31.5833 12.935 31.1783 14.4164 30.3681 15.8979C29.5811 17.3793 27.984 19.5088 25.5766 22.2865Z" fill="white"/>
</svg>
