<svg width="32" height="33" viewBox="0 0 32 33" fill="none" xmlns="http://www.w3.org/2000/svg">
<g clip-path="url(#clip0_107_9431)">
<path d="M26.8355 10.2499H22.1549L22.7478 10.0315C23.5624 9.72465 24.2856 9.21565 24.8494 8.55237C25.4132 7.8891 25.799 7.09333 25.9707 6.2399C26.1423 5.38647 26.0941 4.50341 25.8305 3.67376C25.5669 2.8441 25.0967 2.0951 24.464 1.49719C23.8261 0.903367 23.047 0.4823 22.2008 0.273911C21.3545 0.0655217 20.4691 0.0767141 19.6283 0.306428C18.7876 0.536141 18.0195 0.976764 17.3968 1.58653C16.7741 2.19629 16.3174 2.95498 16.0701 3.79069L15.602 5.56932L15.0872 3.8219C14.7309 2.54678 13.893 1.46008 12.7503 0.791382C11.6077 0.122682 10.2498 -0.0756432 8.96363 0.238306C7.67746 0.552254 6.56369 1.35389 5.85764 2.47385C5.15159 3.59381 4.90855 4.94437 5.17987 6.24021C5.34511 7.09489 5.72759 7.89264 6.2905 8.55666C6.85341 9.22067 7.57779 9.72859 8.39389 10.0315L9.00237 10.2499H4.32176C3.17255 10.2663 2.07572 10.7333 1.26742 11.5503C0.459109 12.3674 0.00397377 13.4692 0 14.6185V27.7242C0.00411141 28.8816 0.46569 29.9903 1.28407 30.8087C2.10244 31.6271 3.21122 32.0887 4.36857 32.0928H26.8355C27.9928 32.0887 29.1016 31.6271 29.92 30.8087C30.7384 29.9903 31.1999 28.8816 31.2041 27.7242V14.6185C31.1999 13.4611 30.7384 12.3524 29.92 11.534C29.1016 10.7156 27.9928 10.254 26.8355 10.2499ZM19.1125 4.68001C19.201 4.35261 19.3747 4.05452 19.6158 3.81609C19.857 3.57765 20.1571 3.40738 20.4855 3.32263C20.6621 3.26735 20.8465 3.24101 21.0315 3.24462C21.3194 3.24707 21.6032 3.3122 21.8633 3.43549C22.1235 3.55877 22.3536 3.73726 22.5377 3.95851C22.7219 4.17977 22.8556 4.43849 22.9296 4.71668C23.0036 4.99486 23.0161 5.28582 22.9662 5.56932C22.9043 5.90149 22.7565 6.21166 22.5376 6.46896C22.3186 6.72627 22.036 6.92174 21.718 7.03591L17.9891 8.42449L19.1125 4.68001ZM8.23787 5.56932C8.188 5.28582 8.20049 4.99486 8.27448 4.71668C8.34848 4.43849 8.48219 4.17977 8.66632 3.95851C8.85046 3.73726 9.08059 3.55877 9.34071 3.43549C9.60082 3.3122 9.88468 3.24707 10.1725 3.24462C10.3576 3.24101 10.542 3.26735 10.7186 3.32263C11.047 3.40738 11.347 3.57765 11.5882 3.81609C11.8294 4.05452 12.0031 4.35261 12.0916 4.68001L13.2149 8.4869L9.48603 7.12953C9.15571 7.00766 8.8649 6.79796 8.64495 6.52303C8.425 6.24809 8.28426 5.91834 8.23787 5.56932ZM28.0837 27.7242C28.0837 28.0552 27.9522 28.3727 27.7181 28.6068C27.484 28.8409 27.1665 28.9724 26.8355 28.9724H4.36857C4.03754 28.9724 3.72006 28.8409 3.48598 28.6068C3.25191 28.3727 3.12041 28.0552 3.12041 27.7242V19.6111H28.0837V27.7242ZM28.0837 16.4907H3.12041V14.6185C3.12041 14.2875 3.25191 13.97 3.48598 13.7359C3.72006 13.5018 4.03754 13.3703 4.36857 13.3703H26.8355C27.1665 13.3703 27.484 13.5018 27.7181 13.7359C27.9522 13.97 28.0837 14.2875 28.0837 14.6185V16.4907Z" fill="white"/>
</g>
<defs>
<clipPath id="clip0_107_9431">
<rect width="32" height="32" fill="white" transform="translate(0 0.0927734)"/>
</clipPath>
</defs>
</svg>
