<svg width="32" height="33" viewBox="0 0 32 33" fill="none" xmlns="http://www.w3.org/2000/svg">
<path d="M16 0.0927734C7.2 0.0927734 0 7.29277 0 16.0928C0 24.8928 7.2 32.0928 16 32.0928C24.8 32.0928 32 24.8928 32 16.0928C32 7.29277 24.8 0.0927734 16 0.0927734ZM16 3.29277C18.88 3.29277 21.6 4.25277 23.84 6.01277L20.48 9.37277C19.84 8.89277 19.04 8.57277 18.08 8.25277C16.8 7.93277 15.36 7.93277 13.92 8.25277C13.12 8.41277 12.32 8.89277 11.52 9.37277L8.16 6.01277C10.4 4.25277 13.12 3.29277 16 3.29277ZM20.64 17.3728C20.48 18.1728 20 18.9728 19.36 19.4528C18.72 19.9328 18.08 20.4128 17.12 20.7328C16.32 20.8928 15.52 20.8928 14.72 20.7328C13.92 20.5728 13.12 20.0928 12.64 19.4528C12 18.8128 11.68 18.1728 11.36 17.3728C11.2 16.5728 11.2 15.7728 11.36 14.9728C11.52 14.1728 12 13.3728 12.64 12.8928C13.28 12.4128 13.92 11.9328 14.88 11.6128C15.2 11.2928 15.52 11.2928 16 11.2928C16.48 11.2928 16.8 11.2928 17.28 11.4528C18.08 11.6128 18.88 12.0928 19.36 12.7328C20 13.3728 20.32 14.0128 20.64 14.8128C20.8 15.6128 20.8 16.5728 20.64 17.3728ZM3.2 16.0928C3.2 13.2128 4.16 10.4928 5.92 8.25277L9.28 11.6128C8.8 12.2528 8.48 13.0528 8.16 14.0128C7.84 15.2928 7.84 16.7328 8.16 18.1728C8.32 18.9728 8.8 19.7728 9.28 20.5728L5.92 23.9328C4.16 21.6928 3.2 18.9728 3.2 16.0928ZM16 28.8928C13.12 28.8928 10.4 27.9328 8.16 26.1728L11.52 22.8128C12.16 23.2928 12.96 23.6128 13.92 23.9328C14.56 24.0928 15.36 24.2528 16 24.2528C16.64 24.2528 17.44 24.0928 18.08 23.9328C18.88 23.7728 19.68 23.2928 20.48 22.8128L23.84 26.1728C21.6 27.9328 18.88 28.8928 16 28.8928ZM26.08 23.9328L22.72 20.5728C23.2 19.9328 23.52 19.1328 23.84 18.1728C24.16 16.8928 24.16 15.4528 23.84 14.0128C23.68 13.2128 23.2 12.4128 22.72 11.6128L26.08 8.25277C27.84 10.4928 28.8 13.2128 28.8 16.0928C28.8 18.9728 27.84 21.6928 26.08 23.9328Z" fill="white"/>
</svg>
