<svg width="32" height="28" viewBox="0 0 32 28" fill="none" xmlns="http://www.w3.org/2000/svg">
<path d="M30.3985 5.53236L24.5068 5.24671L24.164 1.40463C24.0926 0.597655 23.3713 0.0334836 22.5287 0.0977563L1.3901 1.83312C0.547411 1.90453 -0.0596084 2.58296 0.00466426 3.3828L1.51864 20.2222C1.59006 21.0292 2.31848 21.5934 3.15402 21.5291L4.22523 21.4434L4.05384 24.7142C4.01099 25.614 4.71085 26.3424 5.65351 26.3924L29.2344 27.5136C30.1771 27.5565 30.9555 26.8994 31.0055 25.9996L31.9982 7.19631C32.041 6.30364 31.334 5.57521 30.3985 5.53236ZM5.0465 5.91086L4.53946 15.5375L3.29685 17.3014L2.15423 4.5897C2.15423 4.57542 2.15423 4.56828 2.15423 4.55399C2.15423 4.53971 2.15423 4.53257 2.15423 4.51829C2.18993 4.16122 2.46131 3.87556 2.83266 3.84699L21.4717 2.31873C21.8431 2.29017 22.1644 2.53297 22.2216 2.8829C22.2216 2.89719 22.243 2.89719 22.243 2.91147C22.243 2.91861 22.2644 2.92575 22.2644 2.94004L22.4572 5.13959L6.81756 4.38974C5.8749 4.36117 5.08934 5.01818 5.0465 5.91086ZM28.9059 22.8288L25.5709 18.8797L23.607 16.5444C23.4356 16.3373 23.1571 16.1659 22.85 16.1516C22.5429 16.1373 22.3144 16.2588 22.0573 16.4444L20.8861 17.2943C20.6362 17.4442 20.4434 17.5442 20.1791 17.5299C19.922 17.5156 19.6935 17.4157 19.5293 17.2585C19.4721 17.2014 19.365 17.1014 19.2793 17.0157L16.2228 13.5236C16.0014 13.2451 15.6372 13.0665 15.2373 13.0451C14.8302 13.0237 14.4374 13.1951 14.1804 13.445L6.96039 21.2149L6.47478 21.7434L6.4962 21.2577L6.98182 12.0525L7.21748 7.56052C7.21748 7.54624 7.21748 7.53196 7.21748 7.52482C7.21748 7.51053 7.21748 7.49625 7.21748 7.48911C7.31746 7.10347 7.66025 6.82496 8.06731 6.84638L22.6501 7.54624L24.6996 7.64622L28.8631 7.84618C29.2773 7.8676 29.5986 8.18183 29.6058 8.5746C29.6058 8.58889 29.6272 8.59603 29.6272 8.61031C29.6272 8.62459 29.6486 8.63173 29.6486 8.64602L28.9059 22.8288Z" fill="white"/>
<path d="M24.3712 14.2522C25.7566 14.2522 26.885 13.1238 26.885 11.7384C26.885 10.353 25.7638 9.22461 24.3712 9.22461C22.9858 9.22461 21.8574 10.3458 21.8574 11.7384C21.8574 13.131 22.9786 14.2522 24.3712 14.2522Z" fill="white"/>
</svg>
