<svg width="32" height="33" viewBox="0 0 32 33" fill="none" xmlns="http://www.w3.org/2000/svg">
<path d="M4.13891 2.74877L16.0909 0.0927734L28.0429 2.74877C28.3659 2.82058 28.6548 3.00036 28.8618 3.25845C29.0689 3.51655 29.1818 3.83752 29.1818 4.16841V18.695C29.1817 20.1317 28.8269 21.5461 28.1489 22.8128C27.4709 24.0795 26.4907 25.1592 25.2953 25.956L16.0909 32.0928L6.88655 25.956C5.69131 25.1593 4.71122 24.0798 4.03323 22.8134C3.35525 21.547 3.00034 20.1329 3 18.6964V4.16841C3.00006 3.83752 3.11293 3.51655 3.31998 3.25845C3.52704 3.00036 3.81591 2.82058 4.13891 2.74877ZM17.5455 13.1837V5.91096L10.2727 16.0928H14.6364V23.3655L21.9091 13.1837H17.5455Z" fill="white"/>
</svg>
