<svg width="32" height="33" viewBox="0 0 32 33" fill="none" xmlns="http://www.w3.org/2000/svg">
<path d="M16 0.0927734C24.8368 0.0927734 32 7.25597 32 16.0928C32 24.9296 24.8368 32.0928 16 32.0928C7.1632 32.0928 0 24.9296 0 16.0928C0 7.25597 7.1632 0.0927734 16 0.0927734ZM16 3.29277C12.6052 3.29277 9.3495 4.64134 6.94903 7.04181C4.54857 9.44227 3.2 12.698 3.2 16.0928C3.2 19.4875 4.54857 22.7433 6.94903 25.1437C9.3495 27.5442 12.6052 28.8928 16 28.8928C19.3948 28.8928 22.6505 27.5442 25.051 25.1437C27.4514 22.7433 28.8 19.4875 28.8 16.0928C28.8 12.698 27.4514 9.44227 25.051 7.04181C22.6505 4.64134 19.3948 3.29277 16 3.29277ZM16 8.09277C17.6841 8.09341 19.3251 8.62553 20.6892 9.61332C22.0532 10.6011 23.0707 11.9942 23.5967 13.5941C24.1228 15.1939 24.1305 16.919 23.6187 18.5235C23.107 20.128 22.102 21.5301 20.7468 22.5301C19.3917 23.53 17.7555 24.0767 16.0714 24.0924C14.3874 24.1081 12.7413 23.5919 11.3678 22.6174C9.99423 21.6429 8.96327 20.2597 8.42177 18.665C7.88027 17.0703 7.85585 15.3454 8.352 13.736C8.72627 14.5723 9.37644 15.2547 10.1937 15.669C11.0109 16.0833 11.9457 16.2044 12.8415 16.0119C13.7373 15.8194 14.5399 15.3251 15.1148 14.6117C15.6898 13.8983 16.0023 13.009 16 12.0928C16.0002 11.3223 15.7779 10.5682 15.3598 9.92105C14.9417 9.27391 14.3456 8.76128 13.6432 8.44477C14.3888 8.21597 15.1792 8.09277 16 8.09277Z" fill="white"/>
</svg>
