<svg width="32" height="33" viewBox="0 0 32 33" fill="none" xmlns="http://www.w3.org/2000/svg">
<path d="M16.0001 22.4929C19.5347 22.4929 22.4001 19.6275 22.4001 16.0929C22.4001 12.5582 19.5347 9.69287 16.0001 9.69287C12.4655 9.69287 9.6001 12.5582 9.6001 16.0929C9.6001 19.6275 12.4655 22.4929 16.0001 22.4929Z" fill="white"/>
<path d="M30.4 14.4928H28.64C27.84 8.73277 23.36 4.09277 17.6 3.45277V1.69277C17.6 0.732773 16.96 0.0927734 16 0.0927734C15.04 0.0927734 14.4 0.732773 14.4 1.69277V3.45277C8.64 4.09277 4 8.73277 3.36 14.4928H1.6C0.64 14.4928 0 15.1328 0 16.0928C0 17.0528 0.64 17.6928 1.6 17.6928H3.36C4.16 23.4528 8.64 28.0928 14.4 28.7328V30.4928C14.4 31.4528 15.04 32.0928 16 32.0928C16.96 32.0928 17.6 31.4528 17.6 30.4928V28.7328C23.36 27.9328 28 23.4528 28.64 17.6928H30.4C31.36 17.6928 32 17.0528 32 16.0928C32 15.1328 31.36 14.4928 30.4 14.4928ZM25.44 17.6928C24.8 21.6928 21.6 24.8928 17.6 25.5328C17.6 24.7328 16.8 24.0928 16 24.0928C15.2 24.0928 14.56 24.7328 14.4 25.5328C10.4 24.8928 7.2 21.6928 6.56 17.6928C7.36 17.6928 8 16.8928 8 16.0928C8 15.2928 7.36 14.6528 6.56 14.4928C7.2 10.4928 10.4 7.29277 14.4 6.65277C14.4 7.45277 15.2 8.09277 16 8.09277C16.8 8.09277 17.44 7.45277 17.6 6.65277C21.6 7.29277 24.8 10.4928 25.44 14.4928C24.64 14.4928 24 15.2928 24 16.0928C24 16.8928 24.64 17.5328 25.44 17.6928Z" fill="white"/>
</svg>
