<svg width="32" height="32" viewBox="0 0 32 32" fill="none" xmlns="http://www.w3.org/2000/svg">
<path d="M13.7266 15.9727C13.7266 17.3606 14.8527 18.4861 16.24 18.4861C17.2147 18.4861 18.0499 17.9259 18.4669 17.1153L18.4739 17.1216L23.0622 8.84375L15.0073 13.7831L15.015 13.7907C14.25 14.2223 13.7266 15.0322 13.7266 15.9727Z" fill="white"/>
<path d="M26.3659 3.99597C23.7903 1.74493 20.4626 0.307611 16.6602 0.0927734V3.91232C19.8288 4.11384 21.6958 5.12022 23.5704 6.69063L26.3659 3.99597Z" fill="white"/>
<path d="M28.1604 14.7815H31.9755C31.7195 10.9791 30.2321 7.85474 27.9227 5.29443L25.2236 7.97705C26.8498 9.84024 27.9196 12.2465 28.1604 14.7815Z" fill="white"/>
<path d="M28.1779 16.6831C27.7742 23.0205 22.5237 28.0467 16.1103 28.0467C9.43383 28.0467 3.80243 22.632 3.80243 15.9562C3.80243 9.6011 9.05549 4.40127 14.7591 3.91329V0.09375C6.52054 0.587432 0 7.51926 0 15.9727C0 24.7455 7.2373 31.8491 16.0101 31.8491C24.5225 31.8491 31.5938 24.9217 32 16.6831H28.1779Z" fill="white"/>
</svg>
