<svg width="32" height="33" viewBox="0 0 32 33" fill="none" xmlns="http://www.w3.org/2000/svg">
<g clip-path="url(#clip0_107_9389)">
<path d="M31.6422 0.450525C31.4052 0.219434 31.0867 0.0909271 30.7557 0.0927935L20.8325 0.123901C20.6486 0.124139 20.467 0.164641 20.3004 0.242564C20.1338 0.320487 19.9863 0.43394 19.8682 0.574953L8.91851 13.8266L7.62757 12.5356C7.15906 12.074 6.52774 11.8152 5.87002 11.8152C5.21229 11.8152 4.58097 12.074 4.11247 12.5356L2.13717 14.5109C1.90486 14.7409 1.72044 15.0146 1.59459 15.3163C1.46873 15.618 1.40393 15.9416 1.40393 16.2685C1.40393 16.5954 1.46873 16.919 1.59459 17.2207C1.72044 17.5223 1.90486 17.7961 2.13717 18.026L5.38786 21.2767L0.721793 25.9272C0.259185 26.3984 0 27.0323 0 27.6926C0 28.3528 0.259185 28.9868 0.721793 29.4579L2.63488 31.371C3.10793 31.8299 3.74112 32.0866 4.40021 32.0866C5.0593 32.0866 5.69248 31.8299 6.16554 31.371L10.816 26.7049L14.0667 29.9556C14.5352 30.4172 15.1666 30.676 15.8243 30.676C16.482 30.676 17.1133 30.4172 17.5818 29.9556L19.5571 27.9803C19.7894 27.7503 19.9739 27.4766 20.0997 27.1749C20.2256 26.8733 20.2904 26.5496 20.2904 26.2228C20.2904 25.8959 20.2256 25.5722 20.0997 25.2706C19.9739 24.9689 19.7894 24.6952 19.5571 24.4652L18.2662 23.1743L31.5178 12.2246C31.6588 12.1065 31.7723 11.959 31.8502 11.7924C31.9281 11.6258 31.9686 11.4442 31.9689 11.2602L32 1.33708C32.0018 1.00604 31.8733 0.687564 31.6422 0.450525ZM29.4803 10.6692L16.4931 21.4012L14.4711 19.3792L22.9323 10.9336C23.1307 10.6919 23.2321 10.3849 23.2167 10.0726C23.2014 9.76018 23.0704 9.46467 22.8493 9.24352C22.6281 9.02237 22.3326 8.89138 22.0202 8.87604C21.7078 8.8607 21.4009 8.9621 21.1592 9.16051L12.7136 17.6216L10.6916 15.5997L21.4236 2.61247L29.5114 2.58136L29.4803 10.6692Z" fill="white"/>
</g>
<defs>
<clipPath id="clip0_107_9389">
<rect width="32" height="32" fill="white" transform="translate(0 0.0927734)"/>
</clipPath>
</defs>
</svg>
