<svg width="32" height="33" viewBox="0 0 32 33" fill="none" xmlns="http://www.w3.org/2000/svg">
<g clip-path="url(#clip0_107_9401)">
<path d="M26.6685 8.06257C26.6685 8.06257 27.1761 8.57322 27.5339 8.06358L28.2169 7.08489C28.4555 6.74062 28.1473 6.50259 28.1157 6.47904L23.974 3.58507H23.973C23.7179 3.40767 23.5485 3.51541 23.4598 3.61514L23.3856 3.72188L22.7547 4.62489C22.7517 4.6284 22.3989 5.18565 22.9632 5.4803V5.48081C23.77 5.87769 25.2498 6.71456 26.6675 8.06558L26.6685 8.06257Z" fill="white"/>
<path d="M19.6991 0.0927734H13.1725C12.6659 0.0927734 12.251 0.499683 12.251 1.01433V1.77503C12.251 2.28918 12.6659 2.70411 13.1725 2.70411H13.4953V3.24131C13.4958 4.01353 13.9833 4.07768 14.2279 4.06114C14.2695 4.05513 14.3126 4.04861 14.3582 4.0426C14.3587 4.0426 14.3647 4.0411 14.3647 4.0411H14.3642C15.2331 3.92233 16.6719 3.80858 18.322 4.01854L18.323 4.01704C18.323 4.01704 19.3799 4.21298 19.3769 3.24081V2.70361H19.6996C20.2068 2.70361 20.6212 2.28918 20.6212 1.77453V1.01433C20.6207 0.500184 20.2058 0.0927734 19.6991 0.0927734Z" fill="white"/>
<path d="M16.436 5.21924C9.01544 5.21924 3 11.2352 3 18.6568C3 26.0768 9.01544 32.0928 16.436 32.0928C23.8571 32.0928 29.872 26.0763 29.872 18.6568C29.872 11.2352 23.8571 5.21924 16.436 5.21924ZM17.2964 18.6528C16.5072 18.6538 16.44 18.1045 16.436 17.9462V8.65391C16.4591 8.33069 16.6269 7.72183 17.5625 7.87918C17.5811 7.88169 17.5986 7.88369 17.6182 7.8862C17.6783 7.89622 17.7349 7.90424 17.7785 7.90775C20.5046 8.2906 26.4845 10.0636 27.2316 18.102C27.2106 18.3255 27.0838 18.6513 26.5241 18.6548C21.7123 18.6412 18.668 18.6472 17.2964 18.6528Z" fill="white"/>
</g>
<defs>
<clipPath id="clip0_107_9401">
<rect width="32" height="32" fill="white" transform="translate(0 0.0927734)"/>
</clipPath>
</defs>
</svg>
