<svg width="32" height="33" viewBox="0 0 32 33" fill="none" xmlns="http://www.w3.org/2000/svg">
<g clip-path="url(#clip0_107_9410)">
<path d="M30.9316 6.3678C29.1568 2.57575 25.3318 0.254348 21.2042 0.102666C21.1448 0.0963797 21.0851 0.0930782 21.0253 0.0927734H12.541C8.72337 0.0927734 5.15472 0.917133 2.58354 4.00024C0.405585 6.61428 0 9.62979 0 12.8802V30.6386C0.00553751 31.0226 0.160522 31.3892 0.432041 31.6607C0.70356 31.9323 1.07023 32.0872 1.45417 32.0928H30.5401C30.924 32.0872 31.2907 31.9323 31.5622 31.6607C31.8337 31.3892 31.9887 31.0226 31.9942 30.6386V18.9747C31.9942 14.984 32.671 10.0898 30.9316 6.3678ZM3.49693 8.01652C4.9948 4.34647 8.44309 3.00771 12.1296 3.00771H21.0245C24.4043 3.07778 27.4932 5.13621 28.6284 8.37512C29.1461 9.85402 29.0859 11.3527 29.0859 12.886V14.6419H2.90669C2.89103 12.4681 2.66516 10.0535 3.49693 8.01652ZM12.9614 17.5502H19.0295V20.2706H12.9614V17.5502ZM5.11433 29.1836H2.90834V17.5494H10.0531V21.7264C10.0575 22.1111 10.2121 22.4788 10.4837 22.7512C10.7553 23.0236 11.1226 23.1792 11.5072 23.1847H20.487C20.8725 23.1841 21.242 23.0307 21.5145 22.7581C21.7871 22.4855 21.9405 22.116 21.9412 21.7306V17.5494H29.0867V29.1836H5.11433Z" fill="white"/>
</g>
<defs>
<clipPath id="clip0_107_9410">
<rect width="32" height="32" fill="white" transform="translate(0 0.0927734)"/>
</clipPath>
</defs>
</svg>
