<svg width="40" height="30" viewBox="0 0 40 30" fill="none" xmlns="http://www.w3.org/2000/svg">
<path d="M39.7583 13.8594C35.9923 5.59297 28.5368 0 20 0C11.4632 0 4.00552 5.59688 0.241629 13.8602C0.0827689 14.2137 0 14.6043 0 15.0004C0 15.3965 0.0827689 15.7871 0.241629 16.1406C4.0076 24.407 11.4632 30 20 30C28.5368 30 35.9944 24.4031 39.7583 16.1398C39.9172 15.7863 39.9999 15.3957 39.9999 14.9996C39.9999 14.6035 39.9172 14.2129 39.7583 13.8594ZM20 26.25C18.0222 26.25 16.0888 25.5902 14.4443 24.354C12.7998 23.1179 11.518 21.3609 10.7612 19.3052C10.0043 17.2495 9.80626 14.9875 10.1921 12.8052C10.578 10.6229 11.5304 8.61839 12.9289 7.04505C14.3274 5.47171 16.1092 4.40025 18.0491 3.96617C19.9889 3.53208 21.9995 3.75487 23.8268 4.60636C25.6541 5.45784 27.2158 6.89978 28.3147 8.74983C29.4135 10.5999 30 12.775 30 15C30.0006 16.4776 29.7424 17.9408 29.2401 19.306C28.7377 20.6713 28.0012 21.9118 27.0725 22.9566C26.1437 24.0014 25.0411 24.83 23.8276 25.3951C22.614 25.9602 21.3134 26.2507 20 26.25ZM20 7.5C19.4049 7.50936 18.8137 7.60895 18.2423 7.79609C18.7133 8.51615 18.9393 9.40226 18.8794 10.2937C18.8194 11.1852 18.4775 12.0229 17.9156 12.6551C17.3537 13.2872 16.609 13.6719 15.8166 13.7393C15.0242 13.8068 14.2365 13.5525 13.5965 13.0227C13.232 14.5333 13.2978 16.1344 13.7846 17.6008C14.2714 19.0671 15.1547 20.3248 16.3101 21.1968C17.4655 22.0689 18.835 22.5113 20.2256 22.4619C21.6163 22.4125 22.9582 21.8737 24.0624 20.9213C25.1666 19.969 25.9775 18.6511 26.3811 17.1531C26.7846 15.6551 26.7605 14.0525 26.312 12.5708C25.8635 11.089 25.0133 9.80284 23.881 8.89321C22.7487 7.98358 21.3913 7.49632 20 7.5Z" fill="white"/>
</svg>
