<svg width="22" height="16" viewBox="0 0 22 16" fill="none" xmlns="http://www.w3.org/2000/svg">
<path d="M2.28574 3.5H20.2857C21.1137 3.5 21.7857 2.828 21.7857 2C21.7857 1.172 21.1137 0.5 20.2857 0.5H2.28574C1.45774 0.5 0.785736 1.172 0.785736 2C0.785736 2.828 1.45774 3.5 2.28574 3.5ZM20.2857 6.5H2.28574C1.45774 6.5 0.785736 7.172 0.785736 8C0.785736 8.828 1.45774 9.5 2.28574 9.5H20.2857C21.1137 9.5 21.7857 8.828 21.7857 8C21.7857 7.172 21.1137 6.5 20.2857 6.5ZM20.2857 12.5H2.28574C1.45774 12.5 0.785736 13.172 0.785736 14C0.785736 14.828 1.45774 15.5 2.28574 15.5H20.2857C21.1137 15.5 21.7857 14.828 21.7857 14C21.7857 13.172 21.1137 12.5 20.2857 12.5Z" fill="white"/>
</svg>
