<svg width="24" height="18" viewBox="0 0 24 18" fill="none" xmlns="http://www.w3.org/2000/svg">
<path d="M20.4528 2.98994C17.7026 0.931942 15.0677 0.989782 15.0677 0.989782L14.7984 1.29746C18.0679 2.27834 19.5874 3.72074 19.5874 3.72074C14.9095 1.1453 8.95129 1.16378 4.08577 3.72074C4.08577 3.72074 5.66281 2.2013 9.12481 1.22042L8.93257 0.989542C8.93257 0.989542 6.31681 0.931942 3.54745 2.9897C3.54745 2.9897 0.777847 7.9709 0.777847 14.1063C0.777847 14.1063 2.39353 16.8759 6.64393 17.0105C6.64393 17.0105 7.35553 16.1643 7.93249 15.4335C5.49001 14.7027 4.56673 13.1832 4.56673 13.1832C6.10129 14.1435 7.65289 14.7444 9.58657 15.1258C12.7325 15.7733 16.6457 15.1075 19.5684 13.1832C19.5684 13.1832 18.6067 14.7411 16.0872 15.4527C16.6642 16.1643 17.3566 16.9913 17.3566 16.9913C21.607 16.8567 23.2224 14.0871 23.2224 14.1065C23.2222 7.97114 20.4528 2.98994 20.4528 2.98994ZM8.41321 12.3178C7.33609 12.3178 6.45145 11.3753 6.45145 10.2022C6.53017 7.3925 10.3159 7.40114 10.375 10.2022C10.375 11.3753 9.50929 12.3178 8.41321 12.3178ZM15.433 12.3178C14.3558 12.3178 13.4712 11.3753 13.4712 10.2022C13.5576 7.39802 17.2961 7.39682 17.3947 10.2022C17.3947 11.3753 16.5293 12.3178 15.433 12.3178Z" fill="white"/>
</svg>
