<svg width="24" height="20" viewBox="0 0 24 20" fill="none" xmlns="http://www.w3.org/2000/svg">
<path d="M23.9947 2.55775C23.112 2.95 22.164 3.21475 21.1672 3.3325C22.1835 2.7235 22.9643 1.759 23.3325 0.61C22.3808 1.17325 21.3277 1.58425 20.2065 1.804C19.308 0.84775 18.0285 0.25 16.6117 0.25C13.893 0.25 11.6902 2.4535 11.6902 5.17225C11.6902 5.55775 11.733 5.93425 11.817 6.29425C7.72575 6.08875 4.09875 4.129 1.67025 1.15075C1.24725 1.87825 1.00425 2.7235 1.00425 3.62575C1.00425 5.33425 1.8735 6.84025 3.1935 7.72375C2.38725 7.6975 1.62825 7.477 0.964498 7.108C0.963748 7.12825 0.963748 7.15 0.963748 7.1695C0.963748 9.55525 2.66025 11.545 4.9125 11.9972C4.5 12.109 4.065 12.1698 3.61575 12.1698C3.29775 12.1698 2.99025 12.139 2.69025 12.082C3.31575 14.0365 5.1345 15.46 7.28775 15.5005C5.604 16.8205 3.4815 17.6087 1.17525 17.6087C0.777748 17.6087 0.385498 17.5855 0.000747681 17.5397C2.17875 18.9347 4.76625 19.75 7.5465 19.75C16.6005 19.75 21.5527 12.2492 21.5527 5.74375C21.5527 5.53075 21.5467 5.31775 21.5377 5.10625C22.5 4.4125 23.334 3.54625 23.9947 2.55775Z" fill="white"/>
</svg>
